<svg width="24" height="24" viewBox="0 0 24 24" fill="none" xmlns="http://www.w3.org/2000/svg">
<path d="M19 9.00039C19 10.8569 18.2625 12.6374 16.9497 13.9501C15.637 15.2629 13.8565 16.0004 12 16.0004C10.1435 16.0004 8.36301 15.2629 7.05025 13.9501C5.7375 12.6374 5 10.8569 5 9.00039V3.15039C5 3.04544 5.03302 2.94316 5.09438 2.85803C5.15574 2.7729 5.24233 2.70923 5.34189 2.67604C5.44144 2.64286 5.54892 2.64184 5.64908 2.67313C5.74925 2.70442 5.83704 2.76643 5.9 2.85039L8 5.65039L11.6 0.706385C11.6464 0.642748 11.7072 0.590973 11.7774 0.555277C11.8476 0.519582 11.9252 0.500977 12.004 0.500977C12.0828 0.500977 12.1604 0.519582 12.2306 0.555277C12.3008 0.590973 12.3616 0.642748 12.408 0.706385L16 5.65039L18.1 2.85039C18.163 2.76643 18.2507 2.70442 18.3509 2.67313C18.4511 2.64184 18.5586 2.64286 18.6581 2.67604C18.7577 2.70923 18.8443 2.7729 18.9056 2.85803C18.967 2.94316 19 3.04544 19 3.15039V9.00039Z" fill="#EAEFE0"/>
<path d="M12 12.5C10.1435 12.5 8.36301 11.7625 7.05025 10.4497C5.7375 9.13699 5 7.35652 5 5.5V9C5 10.8565 5.7375 12.637 7.05025 13.9497C8.36301 15.2625 10.1435 16 12 16C13.8565 16 15.637 15.2625 16.9497 13.9497C18.2625 12.637 19 10.8565 19 9V5.5C19 7.35652 18.2625 9.13699 16.9497 10.4497C15.637 11.7625 13.8565 12.5 12 12.5Z" fill="#A2D141"/>
<path d="M19 9.00039C19 10.8569 18.2625 12.6374 16.9497 13.9501C15.637 15.2629 13.8565 16.0004 12 16.0004C10.1435 16.0004 8.36301 15.2629 7.05025 13.9501C5.7375 12.6374 5 10.8569 5 9.00039V3.15039C5 3.04544 5.03302 2.94316 5.09438 2.85803C5.15574 2.7729 5.24233 2.70923 5.34189 2.67604C5.44144 2.64286 5.54892 2.64184 5.64908 2.67313C5.74925 2.70442 5.83704 2.76643 5.9 2.85039L8 5.65039L11.6 0.706385C11.6464 0.642748 11.7072 0.590973 11.7774 0.555277C11.8476 0.519582 11.9252 0.500977 12.004 0.500977C12.0828 0.500977 12.1604 0.519582 12.2306 0.555277C12.3008 0.590973 12.3616 0.642748 12.408 0.706385L16 5.65039L18.1 2.85039C18.163 2.76643 18.2507 2.70442 18.3509 2.67313C18.4511 2.64184 18.5586 2.64286 18.6581 2.67604C18.7577 2.70923 18.8443 2.7729 18.9056 2.85803C18.967 2.94316 19 3.04544 19 3.15039V9.00039Z" stroke="#00303E" stroke-linecap="round" stroke-linejoin="round"/>
<path d="M7.5 10C7.5 9.60218 7.65804 9.22064 7.93934 8.93934C8.22064 8.65804 8.60218 8.5 9 8.5C9.39782 8.5 9.77936 8.65804 10.0607 8.93934C10.342 9.22064 10.5 9.60218 10.5 10" stroke="#00303E" stroke-linecap="round" stroke-linejoin="round"/>
<path d="M13.5 10C13.5 9.60218 13.658 9.22064 13.9393 8.93934C14.2206 8.65804 14.6022 8.5 15 8.5C15.3978 8.5 15.7794 8.65804 16.0607 8.93934C16.342 9.22064 16.5 9.60218 16.5 10" stroke="#00303E" stroke-linecap="round" stroke-linejoin="round"/>
<path d="M12 16L12.001 23.5" stroke="#00303E" stroke-linecap="round" stroke-linejoin="round"/>
<path d="M1.99933 23.5C1.9047 23.4999 1.81204 23.4729 1.73213 23.4222C1.65222 23.3715 1.58834 23.2992 1.54792 23.2136C1.50749 23.128 1.49218 23.0327 1.50376 22.9388C1.51534 22.8449 1.55334 22.7562 1.61333 22.683C2.66533 21.4 5.42733 19.5 7.18733 19.5C9.39933 19.5 11.9993 21.291 11.9993 23.5H1.99933Z" fill="#A2D141" stroke="#00303E" stroke-linecap="round" stroke-linejoin="round"/>
<path d="M22 23.5C22.0946 23.4999 22.1873 23.4729 22.2672 23.4222C22.3471 23.3715 22.411 23.2992 22.4514 23.2136C22.4918 23.128 22.5072 23.0327 22.4956 22.9388C22.484 22.8449 22.446 22.7562 22.386 22.683C21.334 21.4 18.572 19.5 16.812 19.5C14.6 19.5 12 21.291 12 23.5H22Z" fill="#A2D141" stroke="#00303E" stroke-linecap="round" stroke-linejoin="round"/>
</svg>
