<svg width="75" height="53" viewBox="0 0 75 53" fill="none" xmlns="http://www.w3.org/2000/svg">
<g clip-path="url(#clip0_53217_57466)">
<path d="M7.8125 1.4375H67.1875" stroke="#00303E" stroke-width="3.125" stroke-linecap="round" stroke-linejoin="round"/>
<path d="M57.9969 48.5063C57.9475 49.301 57.5966 50.047 57.0158 50.5917C56.435 51.1365 55.6682 51.439 54.8719 51.4375H20.1219C19.3256 51.439 18.5587 51.1365 17.9779 50.5917C17.3972 50.047 17.0462 49.301 16.9969 48.5063L14.0625 1.4375H60.9375L57.9969 48.5063Z" fill="#D2E5AB" stroke="#00303E" stroke-width="3.125" stroke-linecap="round" stroke-linejoin="round"/>
<path d="M37.5 1.4375L59.6687 21.7344" stroke="#00303E" stroke-width="3.125" stroke-linecap="round" stroke-linejoin="round"/>
<path d="M14.0654 1.47266L58.1779 45.5852" stroke="#00303E" stroke-width="3.125" stroke-linecap="round" stroke-linejoin="round"/>
<path d="M15.3306 21.7383L45.0337 51.4414" stroke="#00303E" stroke-width="3.125" stroke-linecap="round" stroke-linejoin="round"/>
<path d="M37.4993 1.4375L15.3306 21.7344" stroke="#00303E" stroke-width="3.125" stroke-linecap="round" stroke-linejoin="round"/>
<path d="M60.9338 1.47266L16.8213 45.5852" stroke="#00303E" stroke-width="3.125" stroke-linecap="round" stroke-linejoin="round"/>
<path d="M59.6685 21.7383L29.9653 51.4414" stroke="#00303E" stroke-width="3.125" stroke-linecap="round" stroke-linejoin="round"/>
</g>
<defs>
<clipPath id="clip0_53217_57466">
<rect width="75" height="53" fill="white"/>
</clipPath>
</defs>
</svg>
