<svg width="142" height="148" viewBox="0 0 142 148" fill="none" xmlns="http://www.w3.org/2000/svg">
<path d="M113.956 1.6553C127.234 -2.77063 132.661 10.876 133.715 18.2525C135.559 25.8926 140.828 44.1096 140.828 56.1892C140.829 78.791 140.828 83.291 128.973 99.6581C117.982 114.832 103.143 110.662 96.8203 108.291C90.4976 105.92 68.4658 90.42 55.8203 92.791C43.1748 95.162 38.0835 120.207 34.9221 126.53C31.7607 132.852 28.5993 150.24 18.3249 146.288C8.05042 142.337 11.2118 134.433 12.0021 126.53C12.7925 118.626 25.438 80.6898 34.9221 71.996C44.4062 63.3022 52.3097 64.8829 64.9551 64.8829C77.6006 64.8829 94.9882 83.3234 105.263 77.791C115.537 72.2586 106.053 36.4306 105.263 29.3175C104.472 22.2044 97.3592 7.1877 113.956 1.6553Z" fill="white" stroke="black" stroke-width="1.58069"/>
<circle cx="3.16137" cy="3.16137" r="2.37103" transform="matrix(-1 0 0 1 125.812 12.7207)" fill="black" stroke="black" stroke-width="1.58069"/>
<circle cx="3.16137" cy="3.16137" r="2.37103" transform="matrix(-1 0 0 1 114.746 15.8809)" fill="black" stroke="black" stroke-width="1.58069"/>
<path d="M136.32 41.5645C132.532 43.7726 122.229 47.7915 111.32 46.2016" stroke="black"/>
<path d="M136.32 46.5645C132.381 48.331 121.666 51.5461 110.32 50.2742" stroke="black"/>
<path d="M138.32 49.5645C134.381 51.7726 123.666 55.7915 112.32 54.2016" stroke="black"/>
<path d="M83.8203 61.291V52.791L83.3203 52.291L43.8203 54.791L38.8203 50.291L34.3203 48.791L27.8203 53.291L28.3203 59.791L2.82031 98.791L9.82031 102.791L37.8203 62.791L83.8203 61.291Z" fill="white" stroke="black"/>
<path d="M84.3203 51.8859L42.9209 54.3392L38.321 49.7392C37.2988 49.0237 34.5184 48.0219 31.5744 49.7392C28.6305 51.4565 27.4856 52.7036 27.2812 53.1124C26.8723 54.5435 26.2999 58.755 27.2812 60.4723L1.52157 98.4984" stroke="black" stroke-width="3.67994"/>
<circle cx="1.53331" cy="1.53331" r="1.53331" transform="matrix(-1 0 0 1 36.4805 56.4863)" fill="black"/>
<circle cx="1.53331" cy="1.53331" r="1.53331" transform="matrix(-1 0 0 1 37.5469 57.791)" fill="black"/>
<circle cx="1.53331" cy="1.53331" r="1.53331" transform="matrix(-1 0 0 1 38.5469 59.791)" fill="black"/>
<path d="M84.3203 55.791L34.6411 58.0191L5.32031 99.791" stroke="black" stroke-width="1.22665"/>
<path d="M84.3203 58.291L36.1744 60.1656L7.32031 100.791" stroke="black" stroke-width="1.22665"/>
<path d="M84.3203 60.791L37.7076 62.6192L9.82031 102.291" stroke="black" stroke-width="1.22665"/>
</svg>
