<svg width="24" height="24" viewBox="0 0 24 24" fill="none" xmlns="http://www.w3.org/2000/svg">
<g clip-path="url(#clip0_53665_42769)">
<path d="M0.5 23.0391H23.5" stroke="#00303E" stroke-linecap="round" stroke-linejoin="round"/>
<path d="M4.5 18.7203C4.4987 18.656 4.48473 18.5925 4.4589 18.5336C4.43307 18.4746 4.39587 18.4213 4.34944 18.3768C4.30301 18.3322 4.24825 18.2972 4.18829 18.2738C4.12833 18.2504 4.06435 18.239 4 18.2403H2C1.93565 18.239 1.87167 18.2504 1.81171 18.2738C1.75175 18.2972 1.69699 18.3322 1.65056 18.3768C1.60413 18.4213 1.56693 18.4746 1.5411 18.5336C1.51527 18.5925 1.5013 18.656 1.5 18.7203V23.0403H4.5V18.7203Z" fill="#A2D141"/>
<path d="M10.5 13.9196C10.4987 13.8552 10.4847 13.7917 10.4589 13.7328C10.4331 13.6738 10.3959 13.6205 10.3494 13.576C10.303 13.5314 10.2482 13.4964 10.1883 13.473C10.1283 13.4496 10.0644 13.4382 10 13.4396H8C7.93565 13.4382 7.87167 13.4496 7.81171 13.473C7.75175 13.4964 7.69699 13.5314 7.65056 13.576C7.60413 13.6205 7.56693 13.6738 7.5411 13.7328C7.51527 13.7917 7.5013 13.8552 7.5 13.9196V23.0396H10.5V13.9196Z" fill="#A2D141"/>
<path d="M16.5 15.8395C16.4987 15.7751 16.4847 15.7117 16.4589 15.6527C16.4331 15.5938 16.3959 15.5405 16.3494 15.4959C16.303 15.4513 16.2482 15.4163 16.1883 15.3929C16.1283 15.3695 16.0644 15.3582 16 15.3595H14C13.9356 15.3582 13.8717 15.3695 13.8117 15.3929C13.7518 15.4163 13.697 15.4513 13.6506 15.4959C13.6041 15.5405 13.5669 15.5938 13.5411 15.6527C13.5153 15.7117 13.5013 15.7751 13.5 15.8395V23.0395H16.5V15.8395Z" fill="#A2D141"/>
<path d="M22.5 9.12073C22.4987 9.05638 22.4847 8.99291 22.4589 8.93396C22.4331 8.87501 22.3959 8.82172 22.3494 8.77714C22.303 8.73257 22.2482 8.69758 22.1883 8.67417C22.1283 8.65077 22.0644 8.6394 22 8.64073H20C19.9356 8.6394 19.8717 8.65077 19.8117 8.67417C19.7518 8.69758 19.697 8.73257 19.6506 8.77714C19.6041 8.82172 19.5669 8.87501 19.5411 8.93396C19.5153 8.99291 19.5013 9.05638 19.5 9.12073V23.0407H22.5V9.12073Z" fill="#A2D141"/>
<path d="M4 18.2403H2C1.93565 18.239 1.87167 18.2504 1.81171 18.2738C1.75175 18.2972 1.69699 18.3322 1.65056 18.3768C1.60413 18.4213 1.56693 18.4746 1.5411 18.5336C1.51527 18.5925 1.5013 18.656 1.5 18.7203V21.0803C1.5013 21.016 1.51527 20.9525 1.5411 20.8936C1.56693 20.8346 1.60413 20.7813 1.65056 20.7368C1.69699 20.6922 1.75175 20.6572 1.81171 20.6338C1.87167 20.6104 1.93565 20.599 2 20.6003H4C4.06435 20.599 4.12833 20.6104 4.18829 20.6338C4.24825 20.6572 4.30301 20.6922 4.34944 20.7368C4.39587 20.7813 4.43307 20.8346 4.4589 20.8936C4.48473 20.9525 4.4987 21.016 4.5 21.0803V18.7203C4.4987 18.656 4.48473 18.5925 4.4589 18.5336C4.43307 18.4746 4.39587 18.4213 4.34944 18.3768C4.30301 18.3322 4.24825 18.2972 4.18829 18.2738C4.12833 18.2504 4.06435 18.239 4 18.2403Z" fill="#EAEFE0"/>
<path d="M10 13.4395H8C7.86994 13.4371 7.74424 13.4864 7.6505 13.5766C7.55675 13.6668 7.50263 13.7905 7.5 13.9205V16.2805C7.5013 16.2162 7.51527 16.1527 7.5411 16.0938C7.56693 16.0348 7.60413 15.9815 7.65056 15.937C7.69699 15.8924 7.75175 15.8574 7.81171 15.834C7.87167 15.8106 7.93565 15.7992 8 15.8005H10C10.0644 15.7992 10.1283 15.8106 10.1883 15.834C10.2482 15.8574 10.303 15.8924 10.3494 15.937C10.3959 15.9815 10.4331 16.0348 10.4589 16.0938C10.4847 16.1527 10.4987 16.2162 10.5 16.2805V13.9205C10.4974 13.7905 10.4432 13.6668 10.3495 13.5766C10.2558 13.4864 10.1301 13.4371 10 13.4395Z" fill="#EAEFE0"/>
<path d="M16 15.3595H14C13.9356 15.3582 13.8717 15.3695 13.8117 15.3929C13.7518 15.4163 13.697 15.4513 13.6506 15.4959C13.6041 15.5405 13.5669 15.5938 13.5411 15.6527C13.5153 15.7117 13.5013 15.7751 13.5 15.8395V18.1995C13.5013 18.1351 13.5153 18.0717 13.5411 18.0127C13.5669 17.9538 13.6041 17.9005 13.6506 17.8559C13.697 17.8113 13.7518 17.7763 13.8117 17.7529C13.8717 17.7295 13.9356 17.7182 14 17.7195H16C16.0644 17.7182 16.1283 17.7295 16.1883 17.7529C16.2482 17.7763 16.303 17.8113 16.3494 17.8559C16.3959 17.9005 16.4331 17.9538 16.4589 18.0127C16.4847 18.0717 16.4987 18.1351 16.5 18.1995V15.8395C16.4987 15.7751 16.4847 15.7117 16.4589 15.6527C16.4331 15.5938 16.3959 15.5405 16.3494 15.4959C16.303 15.4513 16.2482 15.4163 16.1883 15.3929C16.1283 15.3695 16.0644 15.3582 16 15.3595Z" fill="#EAEFE0"/>
<path d="M22 8.64073H20C19.9356 8.6394 19.8717 8.65077 19.8117 8.67417C19.7518 8.69758 19.697 8.73257 19.6506 8.77714C19.6041 8.82172 19.5669 8.87501 19.5411 8.93396C19.5153 8.99291 19.5013 9.05638 19.5 9.12073V11.4807C19.5013 11.4164 19.5153 11.3529 19.5411 11.294C19.5669 11.235 19.6041 11.1817 19.6506 11.1371C19.697 11.0926 19.7518 11.0576 19.8117 11.0342C19.8717 11.0108 19.9356 10.9994 20 11.0007H22C22.0644 10.9994 22.1283 11.0108 22.1883 11.0342C22.2482 11.0576 22.303 11.0926 22.3494 11.1371C22.3959 11.1817 22.4331 11.235 22.4589 11.294C22.4847 11.3529 22.4987 11.4164 22.5 11.4807V9.12073C22.4987 9.05638 22.4847 8.99291 22.4589 8.93396C22.4331 8.87501 22.3959 8.82172 22.3494 8.77714C22.303 8.73257 22.2482 8.69758 22.1883 8.67417C22.1283 8.65077 22.0644 8.6394 22 8.64073Z" fill="#EAEFE0"/>
<path d="M4.5 18.7203C4.4987 18.656 4.48473 18.5925 4.4589 18.5336C4.43307 18.4746 4.39587 18.4213 4.34944 18.3768C4.30301 18.3322 4.24825 18.2972 4.18829 18.2738C4.12833 18.2504 4.06435 18.239 4 18.2403H2C1.93565 18.239 1.87167 18.2504 1.81171 18.2738C1.75175 18.2972 1.69699 18.3322 1.65056 18.3768C1.60413 18.4213 1.56693 18.4746 1.5411 18.5336C1.51527 18.5925 1.5013 18.656 1.5 18.7203V23.0403H4.5V18.7203Z" stroke="#00303E" stroke-linecap="round" stroke-linejoin="round"/>
<path d="M10.5 13.9196C10.4987 13.8552 10.4847 13.7917 10.4589 13.7328C10.4331 13.6738 10.3959 13.6205 10.3494 13.576C10.303 13.5314 10.2482 13.4964 10.1883 13.473C10.1283 13.4496 10.0644 13.4382 10 13.4396H8C7.93565 13.4382 7.87167 13.4496 7.81171 13.473C7.75175 13.4964 7.69699 13.5314 7.65056 13.576C7.60413 13.6205 7.56693 13.6738 7.5411 13.7328C7.51527 13.7917 7.5013 13.8552 7.5 13.9196V23.0396H10.5V13.9196Z" stroke="#00303E" stroke-linecap="round" stroke-linejoin="round"/>
<path d="M16.5 15.8395C16.4987 15.7751 16.4847 15.7117 16.4589 15.6527C16.4331 15.5938 16.3959 15.5405 16.3494 15.4959C16.303 15.4513 16.2482 15.4163 16.1883 15.3929C16.1283 15.3695 16.0644 15.3582 16 15.3595H14C13.9356 15.3582 13.8717 15.3695 13.8117 15.3929C13.7518 15.4163 13.697 15.4513 13.6506 15.4959C13.6041 15.5405 13.5669 15.5938 13.5411 15.6527C13.5153 15.7117 13.5013 15.7751 13.5 15.8395V23.0395H16.5V15.8395Z" stroke="#00303E" stroke-linecap="round" stroke-linejoin="round"/>
<path d="M22.5 9.12073C22.4987 9.05638 22.4847 8.99291 22.4589 8.93396C22.4331 8.87501 22.3959 8.82172 22.3494 8.77714C22.303 8.73257 22.2482 8.69758 22.1883 8.67417C22.1283 8.65077 22.0644 8.6394 22 8.64073H20C19.9356 8.6394 19.8717 8.65077 19.8117 8.67417C19.7518 8.69758 19.697 8.73257 19.6506 8.77714C19.6041 8.82172 19.5669 8.87501 19.5411 8.93396C19.5153 8.99291 19.5013 9.05638 19.5 9.12073V23.0407H22.5V9.12073Z" stroke="#00303E" stroke-linecap="round" stroke-linejoin="round"/>
<path d="M2.99858 12.9591C3.1922 12.9663 3.38529 12.9344 3.56629 12.8653C3.7473 12.7962 3.91251 12.6913 4.05204 12.5569C4.19157 12.4224 4.30256 12.2613 4.37837 12.0829C4.45418 11.9046 4.49326 11.7129 4.49326 11.5191C4.49326 11.3254 4.45418 11.1336 4.37837 10.9553C4.30256 10.777 4.19157 10.6158 4.05204 10.4814C3.91251 10.347 3.7473 10.242 3.56629 10.1729C3.38529 10.1038 3.1922 10.0719 2.99858 10.0791C2.80496 10.0719 2.61188 10.1038 2.43087 10.1729C2.24986 10.242 2.08465 10.347 1.94512 10.4814C1.80559 10.6158 1.6946 10.777 1.61879 10.9553C1.54298 11.1336 1.50391 11.3254 1.50391 11.5191C1.50391 11.7129 1.54298 11.9046 1.61879 12.0829C1.6946 12.2613 1.80559 12.4224 1.94512 12.5569C2.08465 12.6913 2.24986 12.7962 2.43087 12.8653C2.61188 12.9344 2.80496 12.9663 2.99858 12.9591Z" fill="#A2D141" stroke="#00303E" stroke-linecap="round" stroke-linejoin="round"/>
<path d="M9 8.16009C9.28224 8.14852 9.55486 8.05426 9.78397 7.88901C10.0131 7.72376 10.1886 7.49482 10.2886 7.23065C10.3886 6.96647 10.4088 6.67872 10.3467 6.40317C10.2845 6.12761 10.1427 5.87641 9.93894 5.68078C9.73516 5.48515 9.47838 5.35373 9.20051 5.30286C8.92265 5.25199 8.63597 5.2839 8.37609 5.39464C8.11622 5.50538 7.89463 5.69006 7.73887 5.92571C7.58311 6.16137 7.50004 6.43761 7.5 6.72009C7.50814 7.1099 7.6707 7.48053 7.95197 7.75054C8.23323 8.02056 8.61018 8.16786 9 8.16009Z" fill="#A2D141" stroke="#00303E" stroke-linecap="round" stroke-linejoin="round"/>
<path d="M15 10.08C15.2822 10.0684 15.5549 9.97418 15.784 9.80893C16.0131 9.64368 16.1886 9.41474 16.2886 9.15057C16.3886 8.8864 16.4088 8.59865 16.3467 8.32309C16.2845 8.04753 16.1427 7.79633 15.9389 7.6007C15.7352 7.40507 15.4784 7.27365 15.2005 7.22278C14.9227 7.17191 14.636 7.20382 14.3761 7.31456C14.1162 7.4253 13.8946 7.60998 13.7389 7.84564C13.5831 8.08129 13.5 8.35753 13.5 8.64001C13.5081 9.02982 13.6707 9.40045 13.952 9.67046C14.2332 9.94048 14.6102 10.0878 15 10.08Z" fill="#A2D141" stroke="#00303E" stroke-linecap="round" stroke-linejoin="round"/>
<path d="M21 3.84039C21.3898 3.84816 21.7668 3.70086 22.048 3.43084C22.3293 3.16083 22.4919 2.7902 22.5 2.40039C22.5 2.00257 22.342 1.62104 22.0607 1.33973C21.7794 1.05843 21.3978 0.900391 21 0.900391C20.6022 0.900391 20.2206 1.05843 19.9393 1.33973C19.658 1.62104 19.5 2.00257 19.5 2.40039C19.5081 2.7902 19.6707 3.16083 19.952 3.43084C20.2332 3.70086 20.6102 3.84816 21 3.84039Z" fill="#A2D141" stroke="#00303E" stroke-linecap="round" stroke-linejoin="round"/>
<path d="M4.26172 10.5106L7.84872 7.64062" stroke="#00303E" stroke-linecap="round" stroke-linejoin="round"/>
<path d="M10.4219 7.17969L13.5759 8.18869" stroke="#00303E" stroke-linecap="round" stroke-linejoin="round"/>
<path d="M19.7981 3.25977L16.0391 7.46977" stroke="#00303E" stroke-linecap="round" stroke-linejoin="round"/>
</g>
<defs>
<clipPath id="clip0_53665_42769">
<rect width="24" height="24" fill="white"/>
</clipPath>
</defs>
</svg>
