<svg width="92" height="92" viewBox="0 0 92 92" fill="none" xmlns="http://www.w3.org/2000/svg">
<path d="M72.7626 55.548H17.2327C17.2327 55.548 6.4867 44.2199 2.99789 35.6951C2.27837 37.4364 1.91005 39.3027 1.9141 41.1868C1.9141 55.7778 17.2327 55.548 17.2327 55.548H72.7626C72.7626 55.548 89.9961 53.3038 89.9961 36.3997C89.9968 34.5198 89.7206 32.65 89.1765 30.8506C85.7528 42.3663 72.7626 44.0591 72.7626 44.0591V55.548Z" fill="#3E7F77"/>
<path d="M89.996 36.4016C89.9979 33.8294 89.4806 31.2834 88.4751 28.9159C87.4696 26.5484 85.9966 24.4083 84.1443 22.6236C82.2921 20.8389 80.0986 19.4464 77.6955 18.5296C75.2923 17.6127 72.7288 17.1904 70.1585 17.2878C67.6257 11.9021 63.37 7.51442 58.0642 4.81841C52.7584 2.1224 46.7053 1.27194 40.862 2.4015C35.0187 3.53105 29.7186 6.57617 25.7999 11.0554C21.8811 15.5346 19.5672 21.1922 19.2241 27.1338C17.1335 26.6959 14.9717 26.7297 12.8958 27.2328C10.82 27.7358 8.88248 28.6955 7.22432 30.0418C5.56616 31.3881 4.2291 33.0873 3.31049 35.0156C2.39187 36.9439 1.91482 39.0527 1.91406 41.1886C1.91406 55.7796 17.2327 55.5498 17.2327 55.5498H72.7626C72.7626 55.5498 89.996 53.3056 89.996 36.4016Z" fill="white" stroke="#00303E" stroke-width="3.82965" stroke-linecap="round" stroke-linejoin="round"/>
<circle cx="46" cy="74" r="17" fill="#A2D141"/>
<path d="M57 70C55.5 65.5 51.1 62.5 46 62.5C40.9 62.5 36.5 65.5 35 70" stroke="#00303E" stroke-width="3.5" stroke-linecap="round"/>
<path d="M35 78C36.5 82.5 40.9 85.5 46 85.5C51.1 85.5 55.5 82.5 57 78" stroke="#00303E" stroke-width="3.5" stroke-linecap="round"/>
<path d="M57 66L57 70L61 70" stroke="#00303E" stroke-width="3.5" stroke-linecap="round" stroke-linejoin="round"/>
<path d="M35 82L35 78L31 78" stroke="#00303E" stroke-width="3.5" stroke-linecap="round" stroke-linejoin="round"/>
</svg>
