<svg width="92" height="81" viewBox="0 0 92 81" fill="none" xmlns="http://www.w3.org/2000/svg">
<path d="M38.9355 78.3951C41.7663 76.5081 45.0922 75.5012 48.4943 75.5012C51.8964 75.5012 55.2223 76.5081 58.0531 78.3951L66.5473 68.5491C61.2021 64.9806 54.9193 63.0762 48.4924 63.0762C42.0655 63.0762 35.7827 64.9806 30.4375 68.5491L38.9355 78.3951Z" fill="#A2D141"/>
<path d="M66.5473 68.5491C61.2021 64.9806 54.9193 63.0762 48.4924 63.0762C42.0655 63.0762 35.7827 64.9806 30.4375 68.5491" stroke="#00303E" stroke-width="3.82965" stroke-linecap="round" stroke-linejoin="round"/>
<path d="M58.0512 78.394C55.2204 76.5069 51.8945 75.5 48.4924 75.5C45.0903 75.5 41.7644 76.5069 38.9336 78.394" stroke="#00303E" stroke-width="3.82965" stroke-linecap="round" stroke-linejoin="round"/>
<path d="M89.996 36.4016C89.9979 33.8294 89.4806 31.2834 88.4751 28.9159C87.4696 26.5484 85.9966 24.4083 84.1443 22.6236C82.2921 20.8389 80.0986 19.4464 77.6955 18.5296C75.2923 17.6127 72.7288 17.1904 70.1585 17.2878C67.6257 11.9021 63.37 7.51442 58.0642 4.81841C52.7584 2.1224 46.7053 1.27194 40.862 2.4015C35.0187 3.53105 29.7186 6.57617 25.7999 11.0554C21.8811 15.5346 19.5672 21.1922 19.2241 27.1338C17.1335 26.6959 14.9717 26.7297 12.8958 27.2328C10.82 27.7358 8.88248 28.6955 7.22432 30.0418C5.56616 31.3881 4.2291 33.0873 3.31049 35.0156C2.39187 36.9439 1.91482 39.0527 1.91406 41.1886C1.91406 55.7796 17.2327 55.5498 17.2327 55.5498H72.7626C72.7626 55.5498 89.996 53.3056 89.996 36.4016Z" fill="white"/>
<path d="M72.7626 44.0591H17.2327C17.2327 44.0591 6.4867 44.2199 2.99789 35.6951C2.27837 37.4364 1.91005 39.3027 1.9141 41.1868C1.9141 55.7778 17.2327 55.548 17.2327 55.548H72.7626C72.7626 55.548 89.9961 53.3038 89.9961 36.3997C89.9968 34.5198 89.7206 32.65 89.1765 30.8506C85.7528 42.3663 72.7626 44.0591 72.7626 44.0591Z" fill="#3E7F77"/>
<path d="M89.996 36.4016C89.9979 33.8294 89.4806 31.2834 88.4751 28.9159C87.4696 26.5484 85.9966 24.4083 84.1443 22.6236C82.2921 20.8389 80.0986 19.4464 77.6955 18.5296C75.2923 17.6127 72.7288 17.1904 70.1585 17.2878C67.6257 11.9021 63.37 7.51442 58.0642 4.81841C52.7584 2.1224 46.7053 1.27194 40.862 2.4015C35.0187 3.53105 29.7186 6.57617 25.7999 11.0554C21.8811 15.5346 19.5672 21.1922 19.2241 27.1338C17.1335 26.6959 14.9717 26.7297 12.8958 27.2328C10.82 27.7358 8.88248 28.6955 7.22432 30.0418C5.56616 31.3881 4.2291 33.0873 3.31049 35.0156C2.39187 36.9439 1.91482 39.0527 1.91406 41.1886C1.91406 55.7796 17.2327 55.5498 17.2327 55.5498H72.7626C72.7626 55.5498 89.996 53.3056 89.996 36.4016Z" stroke="#00303E" stroke-width="3.82965" stroke-linecap="round" stroke-linejoin="round"/>
</svg>
