<svg width="74" height="74" viewBox="0 0 74 74" fill="none" xmlns="http://www.w3.org/2000/svg">
<path d="M72.4596 36.9987C72.4596 36.9987 56.5866 16.957 37.0013 16.957C17.416 16.957 1.54297 36.9987 1.54297 36.9987C1.54297 36.9987 17.416 57.0404 37.0013 57.0404C56.5866 57.0404 72.4596 36.9987 72.4596 36.9987Z" fill="#EAEFE0"/>
<path d="M37.0013 16.957C17.416 16.957 1.54297 36.9987 1.54297 36.9987C1.54297 36.9987 2.7948 38.5774 5.02714 40.8498C10.7467 35.0346 22.9136 24.6654 37.0013 24.6654C51.0891 24.6654 63.2559 35.0346 68.9755 40.8559C70.1989 39.6276 71.3616 38.3403 72.4596 36.9987C72.4596 36.9987 56.5866 16.957 37.0013 16.957Z" fill="white"/>
<path d="M24.668 37.0326C24.668 40.3036 25.9674 43.4406 28.2803 45.7535C30.5933 48.0665 33.7303 49.3659 37.0013 49.3659C40.2723 49.3659 43.4093 48.0665 45.7223 45.7535C48.0352 43.4406 49.3346 40.3036 49.3346 37.0326C49.3346 33.7615 48.0352 30.6245 45.7223 28.3116C43.4093 25.9986 40.2723 24.6992 37.0013 24.6992C33.7303 24.6992 30.5933 25.9986 28.2803 28.3116C25.9674 30.6245 24.668 33.7615 24.668 37.0326Z" fill="#A2D141"/>
<path d="M28.2778 45.7538C26.0074 43.4324 24.744 40.3093 24.7619 37.0623C24.7798 33.8152 26.0775 30.7062 28.3733 28.41C30.6691 26.1137 33.7779 24.8155 37.025 24.7971C40.272 24.7786 43.3953 26.0414 45.7171 28.3114L28.2778 45.7538Z" fill="#EAEFE0"/>
<path d="M60.1805 25.5625C64.7287 28.8553 68.8525 32.6974 72.4583 37.0017C72.4583 37.0017 56.5853 57.0433 37 57.0433C33.863 57.0252 30.7459 56.5431 27.75 55.6127" stroke="#00303E" stroke-width="3.08333" stroke-linecap="round" stroke-linejoin="round"/>
<path d="M13.7776 48.407C9.24634 45.1212 5.13716 41.2895 1.54297 36.9987C1.54297 36.9987 17.416 16.957 37.0013 16.957C39.6024 16.9691 42.1919 17.3057 44.7096 17.9591" stroke="#00303E" stroke-width="3.08333" stroke-linecap="round" stroke-linejoin="round"/>
<path d="M24.668 37.0013C24.668 33.7303 25.9674 30.5933 28.2803 28.2803C30.5933 25.9674 33.7303 24.668 37.0013 24.668" stroke="#00303E" stroke-width="3.08333" stroke-linecap="round" stroke-linejoin="round"/>
<path d="M49.3333 37C49.3333 40.271 48.0339 43.408 45.721 45.721C43.408 48.0339 40.271 49.3333 37 49.3333" stroke="#00303E" stroke-width="3.08333" stroke-linecap="round" stroke-linejoin="round"/>
<path d="M67.0625 6.9375L6.9375 67.0625" stroke="#00303E" stroke-width="3.08333" stroke-linecap="round" stroke-linejoin="round"/>
</svg>
