<svg width="75" height="75" viewBox="0 0 75 75" fill="none" xmlns="http://www.w3.org/2000/svg">
<g clip-path="url(#clip0_53097_37778)">
<path d="M25.7625 73.4375C23.7835 73.3296 21.9001 72.5515 20.4219 71.2313L3.77813 54.6687C2.44994 53.1935 1.66789 51.3073 1.5625 49.325V26.0344C1.66705 24.0553 2.438 22.1698 3.75 20.6844L20.4406 3.7875C21.906 2.45594 23.7855 1.67015 25.7625 1.5625H49.0625C51.0406 1.66995 52.9222 2.45192 54.3937 3.77813L71.2375 20.6938C72.5555 22.1728 73.3313 24.0561 73.4375 26.0344V49.325C73.3277 51.2988 72.5421 53.1746 71.2125 54.6375L54.4062 71.25C52.9209 72.562 51.0353 73.3329 49.0563 73.4375H25.7625Z" fill="#A2D141"/>
<path d="M71.2313 20.6969L54.375 3.77812C52.9083 2.45585 51.0341 1.67417 49.0625 1.5625H25.7625C23.7885 1.671 21.9122 2.45683 20.45 3.7875L3.75 20.6844C2.438 22.1698 1.66705 24.0553 1.5625 26.0344V36.9719C1.66705 34.9928 2.438 33.1073 3.75 31.6219L20.4438 14.725C21.9076 13.393 23.7863 12.6071 25.7625 12.5H49.0625C51.0399 12.6078 52.921 13.3885 54.3938 14.7125L71.2375 31.6344C72.5582 33.1111 73.3363 34.9937 73.4438 36.9719V26.0344C73.3346 24.0554 72.5542 22.1727 71.2313 20.6969Z" fill="#EAEFE0"/>
<path d="M25.7625 73.4375C23.7835 73.3295 21.9001 72.5515 20.4219 71.2313L3.77812 54.6687C2.44994 53.1935 1.66789 51.3073 1.5625 49.325V26.0344C1.66705 24.0553 2.438 22.1698 3.75 20.6844L20.4406 3.7875C21.906 2.45594 23.7855 1.67015 25.7625 1.5625H49.0625C51.0406 1.66995 52.9222 2.45192 54.3938 3.77812L71.2375 20.6938C72.5555 22.1728 73.3313 24.0561 73.4375 26.0344V49.325C73.3277 51.2988 72.5421 53.1746 71.2125 54.6375L54.4062 71.25C52.9209 72.562 51.0353 73.3329 49.0562 73.4375H25.7625Z" stroke="#2E4343" stroke-width="3.125" stroke-linecap="round" stroke-linejoin="round"/>
<path d="M52.4422 47.7789C52.4406 45.8845 52.9065 44.019 53.7984 42.3477L58.3703 33.7508C58.8141 33.0272 58.9524 32.157 58.7546 31.3316C58.5568 30.5061 58.0392 29.793 57.3156 29.3492C56.5921 28.9054 55.7219 28.7672 54.8964 28.965C54.071 29.1628 53.3579 29.6804 52.9141 30.4039L47.1078 39.5477L50.5453 20.7227C50.6637 20.3018 50.6947 19.8611 50.6364 19.4278C50.578 18.9945 50.4316 18.5777 50.2061 18.2031C49.9806 17.8285 49.6807 17.5041 49.3251 17.2498C48.9695 16.9954 48.5655 16.8166 48.1382 16.7243C47.7108 16.632 47.269 16.6281 46.8401 16.713C46.4112 16.7979 46.0042 16.9697 45.6442 17.2178C45.2842 17.4659 44.9788 17.7851 44.7468 18.1557C44.5148 18.5263 44.3612 18.9404 44.2953 19.3727L40.7016 35.2789V15.0164C40.7016 14.1677 40.3644 13.3538 39.7643 12.7537C39.1642 12.1535 38.3503 11.8164 37.5016 11.8164C36.6529 11.8164 35.8389 12.1535 35.2388 12.7537C34.6387 13.3538 34.3016 14.1677 34.3016 15.0164V35.3133L30.7109 18.6133C30.639 18.1869 30.4814 17.7795 30.2477 17.4158C30.014 17.052 29.7089 16.7394 29.351 16.4968C28.9931 16.2541 28.5898 16.0866 28.1653 16.0042C27.7408 15.9218 27.3041 15.9263 26.8814 16.0174C26.4587 16.1084 26.0589 16.2842 25.706 16.5342C25.3532 16.7841 25.0546 17.1029 24.8284 17.4714C24.6022 17.8399 24.453 18.2504 24.3898 18.6781C24.3267 19.1059 24.3509 19.542 24.4609 19.9602L27.9141 43.832L21.5391 38.2664C20.9102 37.7074 20.0866 37.4184 19.2463 37.4617C18.406 37.505 17.6165 37.8772 17.0484 38.4978C16.4803 39.1185 16.1792 39.9377 16.2102 40.7786C16.2412 41.6194 16.6018 42.4143 17.2141 42.9914L28.4391 57.932C29.3369 58.8709 30.4156 59.6183 31.61 60.129C32.8045 60.6398 34.09 60.9034 35.3891 60.9039H42.8578C50.4297 60.9008 52.4422 54.9789 52.4422 47.7789Z" fill="white" stroke="#2E4343" stroke-width="3.125" stroke-linecap="round" stroke-linejoin="round"/>
</g>
<defs>
<clipPath id="clip0_53097_37778">
<rect width="75" height="75" fill="white"/>
</clipPath>
</defs>
</svg>
