<svg width="24" height="24" viewBox="0 0 24 24" fill="none" xmlns="http://www.w3.org/2000/svg">
<path fill-rule="evenodd" clip-rule="evenodd" d="M18.6284 13.4807C19.4942 12.2024 20 10.6603 20 9C20 4.58172 16.4182 1 12 1C7.58169 1 3.99997 4.58172 3.99997 9C3.99997 10.5545 4.44335 12.0055 5.21054 13.2333L2.05683 18.6957C1.88354 18.9958 1.87801 19.3643 2.04223 19.6695C2.20644 19.9747 2.51698 20.1731 2.86294 20.1939L5.85949 20.3738L7.51353 22.8789C7.70449 23.1681 8.03159 23.3379 8.37801 23.3275C8.72444 23.3171 9.04078 23.1281 9.21407 22.8279L12.0007 18.0013L14.6339 22.5622C14.8072 22.8623 15.1236 23.0513 15.47 23.0617C15.8164 23.0721 16.1435 22.9024 16.3345 22.6132L17.9071 20.2314L20.756 20.0604C21.102 20.0396 21.4125 19.8412 21.5767 19.536C21.741 19.2308 21.7354 18.8623 21.5621 18.5622L18.6284 13.4807ZM12 15C15.3137 15 18 12.3137 18 9C18 5.68629 15.3137 3 12 3C8.68626 3 5.99997 5.68629 5.99997 9C5.99997 12.3137 8.68626 15 12 15ZM13.6354 16.8327L15.557 20.1609L16.5135 18.7122C16.687 18.4495 16.9739 18.2838 17.2881 18.2649L19.0211 18.1609L17.2281 15.0554C16.2192 15.9273 14.9901 16.5513 13.6354 16.8327ZM4.59789 18.2944L6.57136 14.8763C7.61639 15.8422 8.91962 16.5328 10.3659 16.833L8.29104 20.4267L7.25302 18.8545C7.07959 18.5919 6.79261 18.4262 6.47842 18.4073L4.59789 18.2944Z" fill="currentColor"/>
</svg>
