<svg width="44" height="44" viewBox="0 0 44 44" fill="none" xmlns="http://www.w3.org/2000/svg">
<g clip-path="url(#clip0_52362_144731)">
<path d="M2.7115 0.908203H40.673C40.673 0.908203 42.4807 0.908203 42.4807 2.7159V40.6774C42.4807 40.6774 42.4807 42.4851 40.673 42.4851H2.7115C2.7115 42.4851 0.903809 42.4851 0.903809 40.6774V2.7159C0.903809 2.7159 0.903809 0.908203 2.7115 0.908203Z" fill="#E1E1F3"/>
<path d="M42.4807 7.23122V2.71199C42.4807 2.23256 42.2903 1.77277 41.9513 1.43376C41.6123 1.09475 41.1525 0.904297 40.673 0.904297H2.7115C2.23207 0.904297 1.77228 1.09475 1.43327 1.43376C1.09426 1.77277 0.903809 2.23256 0.903809 2.71199V7.23122H42.4807Z" fill="white"/>
<path d="M2.7115 0.908203H40.673C40.673 0.908203 42.4807 0.908203 42.4807 2.7159V40.6774C42.4807 40.6774 42.4807 42.4851 40.673 42.4851H2.7115C2.7115 42.4851 0.903809 42.4851 0.903809 40.6774V2.7159C0.903809 2.7159 0.903809 0.908203 2.7115 0.908203Z" stroke="#00303E" stroke-width="1.80769" stroke-linecap="round" stroke-linejoin="round"/>
<path d="M18.0769 9.94546C18.0769 10.9043 18.4578 11.8239 19.1358 12.5019C19.8138 13.1799 20.7334 13.5608 21.6923 13.5608C22.6511 13.5608 23.5707 13.1799 24.2488 12.5019C24.9268 11.8239 25.3077 10.9043 25.3077 9.94546C25.3077 8.9866 24.9268 8.06702 24.2488 7.389C23.5707 6.71098 22.6511 6.33008 21.6923 6.33008C20.7334 6.33008 19.8138 6.71098 19.1358 7.389C18.4578 8.06702 18.0769 8.9866 18.0769 9.94546Z" fill="#000066"/>
<path d="M21.6923 13.5569C20.7334 13.5569 19.8138 13.176 19.1358 12.498C18.4578 11.82 18.0769 10.9004 18.0769 9.94156C18.0769 8.9827 18.4578 8.06311 19.1358 7.38509C19.8138 6.70708 20.7334 6.32617 21.6923 6.32617V13.5569Z" fill="#E1E1F3"/>
<path d="M25.3041 9.94531H37.0957" stroke="#00303E" stroke-width="1.80769" stroke-linecap="round" stroke-linejoin="round"/>
<path d="M6.36487 9.94531H18.0697" stroke="#00303E" stroke-width="1.80769" stroke-linecap="round" stroke-linejoin="round"/>
<path d="M10.8462 21.6955C10.8462 22.6543 11.2271 23.5739 11.9051 24.2519C12.5831 24.9299 13.5027 25.3108 14.4616 25.3108C15.4204 25.3108 16.34 24.9299 17.018 24.2519C17.6961 23.5739 18.077 22.6543 18.077 21.6955C18.077 20.7366 17.6961 19.817 17.018 19.139C16.34 18.461 15.4204 18.0801 14.4616 18.0801C13.5027 18.0801 12.5831 18.461 11.9051 19.139C11.2271 19.817 10.8462 20.7366 10.8462 21.6955Z" fill="#000066"/>
<path d="M14.4616 25.3069C13.5027 25.3069 12.5831 24.926 11.9051 24.248C11.2271 23.57 10.8462 22.6504 10.8462 21.6916C10.8462 20.7327 11.2271 19.8131 11.9051 19.1351C12.5831 18.4571 13.5027 18.0762 14.4616 18.0762V25.3069Z" fill="#E1E1F3"/>
<path d="M18.0697 21.6953H37.0957" stroke="#00303E" stroke-width="1.80769" stroke-linecap="round" stroke-linejoin="round"/>
<path d="M6.36487 21.6953H10.8389" stroke="#00303E" stroke-width="1.80769" stroke-linecap="round" stroke-linejoin="round"/>
<path d="M14.4615 33.4455C14.4615 34.4043 14.8425 35.3239 15.5205 36.0019C16.1985 36.6799 17.1181 37.0608 18.0769 37.0608C19.0358 37.0608 19.9554 36.6799 20.6334 36.0019C21.3114 35.3239 21.6923 34.4043 21.6923 33.4455C21.6923 32.4866 21.3114 31.567 20.6334 30.889C19.9554 30.211 19.0358 29.8301 18.0769 29.8301C17.1181 29.8301 16.1985 30.211 15.5205 30.889C14.8425 31.567 14.4615 32.4866 14.4615 33.4455Z" fill="#000066"/>
<path d="M18.0769 37.0569C17.1181 37.0569 16.1985 36.676 15.5205 35.998C14.8425 35.32 14.4615 34.4004 14.4615 33.4416C14.4615 32.4827 14.8425 31.5631 15.5205 30.8851C16.1985 30.2071 17.1181 29.8262 18.0769 29.8262V37.0569Z" fill="#E1E1F3"/>
<path d="M21.6851 33.4453H37.0956" stroke="#00303E" stroke-width="1.80769" stroke-linecap="round" stroke-linejoin="round"/>
<path d="M6.36487 33.4453H14.4615" stroke="#00303E" stroke-width="1.80769" stroke-linecap="round" stroke-linejoin="round"/>
<path d="M18.0769 9.94546C18.0769 10.9043 18.4578 11.8239 19.1358 12.5019C19.8138 13.1799 20.7334 13.5608 21.6923 13.5608C22.6511 13.5608 23.5707 13.1799 24.2488 12.5019C24.9268 11.8239 25.3077 10.9043 25.3077 9.94546C25.3077 8.9866 24.9268 8.06702 24.2488 7.389C23.5707 6.71098 22.6511 6.33008 21.6923 6.33008C20.7334 6.33008 19.8138 6.71098 19.1358 7.389C18.4578 8.06702 18.0769 8.9866 18.0769 9.94546Z" stroke="#00303E" stroke-width="1.80769" stroke-linecap="round" stroke-linejoin="round"/>
<path d="M10.8462 21.6955C10.8462 22.6543 11.2271 23.5739 11.9051 24.2519C12.5831 24.9299 13.5027 25.3108 14.4616 25.3108C15.4204 25.3108 16.34 24.9299 17.018 24.2519C17.6961 23.5739 18.077 22.6543 18.077 21.6955C18.077 20.7366 17.6961 19.817 17.018 19.139C16.34 18.461 15.4204 18.0801 14.4616 18.0801C13.5027 18.0801 12.5831 18.461 11.9051 19.139C11.2271 19.817 10.8462 20.7366 10.8462 21.6955Z" stroke="#00303E" stroke-width="1.80769" stroke-linecap="round" stroke-linejoin="round"/>
<path d="M14.4615 33.4455C14.4615 34.4043 14.8425 35.3239 15.5205 36.0019C16.1985 36.6799 17.1181 37.0608 18.0769 37.0608C19.0358 37.0608 19.9554 36.6799 20.6334 36.0019C21.3114 35.3239 21.6923 34.4043 21.6923 33.4455C21.6923 32.4866 21.3114 31.567 20.6334 30.889C19.9554 30.211 19.0358 29.8301 18.0769 29.8301C17.1181 29.8301 16.1985 30.211 15.5205 30.889C14.8425 31.567 14.4615 32.4866 14.4615 33.4455Z" stroke="#00303E" stroke-width="1.80769" stroke-linecap="round" stroke-linejoin="round"/>
</g>
<defs>
<clipPath id="clip0_52362_144731">
<rect width="43.3846" height="43.3846" fill="white"/>
</clipPath>
</defs>
</svg>