<svg width="32" height="32" viewBox="0 0 32 32" fill="none" xmlns="http://www.w3.org/2000/svg">
<path d="M20.1139 16.6243C19.7689 17.0556 19.1396 17.1255 18.7084 16.7805L16.9998 15.4136V19.9996C16.9998 20.5519 16.552 20.9996 15.9998 20.9996C15.4475 20.9996 14.9998 20.5519 14.9998 19.9996V15.4135L13.2911 16.7805C12.8598 17.1255 12.2305 17.0556 11.8855 16.6243C11.5405 16.193 11.6104 15.5637 12.0417 15.2187L15.3715 12.5549C15.5411 12.4177 15.7566 12.3349 15.9913 12.333C15.9941 12.3329 15.9969 12.3329 15.9998 12.3329L16.003 12.3329C16.2418 12.3337 16.4609 12.4182 16.6325 12.5585L19.9577 15.2187C20.389 15.5637 20.4589 16.193 20.1139 16.6243Z" fill="currentColor"/>
<path fill-rule="evenodd" clip-rule="evenodd" d="M11.1731 9.59163C12.4554 7.59923 14.6937 6.27734 17.2423 6.27734C21.083 6.27734 24.2225 9.27927 24.4426 13.0648C24.5271 13.0612 24.6121 13.0594 24.6974 13.0594C27.9946 13.0594 30.6675 15.7323 30.6675 19.0295C30.6675 22.3267 27.9946 24.9996 24.6974 24.9996H9.1659C4.83937 24.9996 1.33203 21.4923 1.33203 17.1657C1.33203 12.8392 4.83937 9.33185 9.1659 9.33185C9.85878 9.33185 10.5317 9.42204 11.1731 9.59163ZM17.2423 8.27734C15.1752 8.27734 13.3872 9.48045 12.5439 11.2291C12.3172 11.6992 11.767 11.9159 11.2806 11.7266C10.6262 11.472 9.91364 11.3319 9.1659 11.3319C5.94394 11.3319 3.33203 13.9438 3.33203 17.1657C3.33203 20.3877 5.94394 22.9996 9.1659 22.9996H24.6974C26.89 22.9996 28.6675 21.2221 28.6675 19.0295C28.6675 16.8369 26.89 15.0594 24.6974 15.0594C24.3407 15.0594 23.9964 15.1062 23.6696 15.1935C23.3494 15.279 23.0075 15.2003 22.7569 14.9833C22.5063 14.7662 22.3796 14.4391 22.4185 14.1099C22.4425 13.907 22.4549 13.7001 22.4549 13.49C22.4549 10.6111 20.1211 8.27734 17.2423 8.27734Z" fill="currentColor"/>
</svg>
