<svg width="11" height="15" viewBox="0 0 11 15" fill="none" xmlns="http://www.w3.org/2000/svg">
<path fill-rule="evenodd" clip-rule="evenodd" d="M5.33333 0C2.80401 0 1.43431 1.35257 0.735533 2.69156C0.394002 3.34599 0.212155 3.99299 0.114967 4.47146C0.0660735 4.71217 0.0378115 4.9142 0.0216342 5.05858C0.0114519 5.14945 0 5.24177 0 5.33333C0 7.14825 0.821433 8.20913 1.52965 8.76896C1.88197 9.04747 2.07806 9.33264 2.10937 9.58316L2.52582 12.9147C2.65093 13.9156 3.50173 14.6667 4.51038 14.6667H6.15629C7.16494 14.6667 8.01574 13.9156 8.14085 12.9147L8.55729 9.58316C8.58861 9.33264 8.7847 9.04747 9.13702 8.76896C9.84523 8.20913 10.6667 7.14825 10.6667 5.33333C10.6667 5.24177 10.6552 5.14945 10.645 5.05858C10.6289 4.9142 10.6006 4.71217 10.5517 4.47146C10.4545 3.99299 10.2727 3.34599 9.93113 2.69156C9.23235 1.35257 7.86265 0 5.33333 0ZM2.35649 7.72297C1.62541 7.14506 1.24345 6.12831 1.34668 5.20705C1.35909 5.09622 1.38165 4.93366 1.42162 4.73687C1.50216 4.34034 1.65026 3.82067 1.91758 3.30844C2.4365 2.31409 3.40014 1.33333 5.33333 1.33333C7.26652 1.33333 8.23016 2.31409 8.74908 3.30844C9.01641 3.82067 9.1645 4.34034 9.24505 4.73687C9.28502 4.93366 9.30757 5.09622 9.31999 5.20705C9.42321 6.12832 9.04126 7.14506 8.31017 7.72297C7.85687 8.0813 7.33032 8.6493 7.23425 9.41778L7.07815 10.6667H3.58852L3.43241 9.41778C3.33635 8.6493 2.80979 8.0813 2.35649 7.72297ZM3.75519 12L3.84886 12.7494C3.89056 13.083 4.17416 13.3333 4.51038 13.3333H6.15629C6.49251 13.3333 6.77611 13.083 6.81781 12.7494L6.91148 12H3.75519Z" fill="#004F29"/>
</svg>
