<svg width="16" height="16" viewBox="0 0 16 16" fill="none" xmlns="http://www.w3.org/2000/svg">
<path d="M8.71051 2.07911C10.1493 0.640298 12.4821 0.640298 13.9209 2.07911C15.3597 3.51792 15.3597 5.85068 13.9209 7.28949L11.5525 9.65785C10.1137 11.0967 7.78096 11.0967 6.34215 9.65785C6.20899 9.52469 6.08816 9.38388 5.97964 9.23682C5.81756 9.01716 5.86297 8.71601 6.05601 8.52298C6.3729 8.20608 6.93154 8.33157 7.23859 8.65802C7.25523 8.67571 7.2722 8.69321 7.28949 8.71051C8.2051 9.62611 9.68959 9.62611 10.6052 8.71051L12.9736 6.34215C13.8892 5.42654 13.8892 3.94205 12.9736 3.02645C12.0579 2.11084 10.5735 2.11084 9.65785 3.02645L8.94734 3.73696C8.68574 3.99856 8.2616 3.99856 8 3.73696C7.7384 3.47536 7.7384 3.05122 8 2.78961L8.71051 2.07911Z" fill="currentColor"/>
<path d="M4.44746 6.34215C5.81666 4.97295 8.04348 4.94523 9.46583 6.16556C9.72204 6.38538 9.7012 6.77247 9.4625 7.01118C9.18176 7.29191 8.7171 7.24921 8.38884 7.02589C7.48879 6.41357 6.20793 6.47637 5.39481 7.28949L3.02645 9.65785C2.11084 10.5735 2.11084 12.0579 3.02645 12.9736C3.94205 13.8892 5.42654 13.8892 6.34215 12.9736L7.05266 12.263C7.31426 12.0014 7.7384 12.0014 8 12.263C8.2616 12.5246 8.2616 12.9488 8 13.2104L7.28949 13.9209C5.85068 15.3597 3.51792 15.3597 2.07911 13.9209C0.640298 12.4821 0.640298 10.1493 2.07911 8.71051L4.44746 6.34215Z" fill="currentColor"/>
</svg>
