<svg width="116" height="116" viewBox="0 0 116 116" fill="none" xmlns="http://www.w3.org/2000/svg">
<g clip-path="url(#clip0_52362_142107)">
<path d="M43.8248 26.5838C47.3974 24.2022 51.5951 22.9314 55.8888 22.9314C60.1825 22.9314 64.3801 24.2022 67.9528 26.5838L78.6731 14.1573C71.927 9.6536 63.9976 7.25 55.8864 7.25C47.7751 7.25 39.8457 9.6536 33.0996 14.1573L43.8248 26.5838Z" fill="#A2D141"/>
<path d="M113.584 84.5834C113.586 81.3371 112.933 78.1238 111.664 75.1359C110.395 72.1479 108.536 69.4469 106.199 67.1945C103.861 64.9421 101.093 63.1847 98.0596 62.0275C95.0265 60.8704 91.7912 60.3373 88.5472 60.4602C85.3507 53.6631 79.9796 48.1255 73.2832 44.7229C66.5869 41.3203 58.9474 40.2469 51.5727 41.6725C44.198 43.0981 37.5089 46.9413 32.5631 52.5944C27.6172 58.2475 24.6969 65.388 24.2639 72.8867C21.6255 72.3341 18.897 72.3768 16.2771 73.0117C13.6573 73.6465 11.212 74.8577 9.11922 76.5569C7.02649 78.256 5.33901 80.4005 4.17964 82.8342C3.02027 85.2678 2.41819 87.9294 2.41724 90.6251C2.41724 109.04 21.7506 108.75 21.7506 108.75H91.8339C91.8339 108.75 113.584 105.918 113.584 84.5834Z" fill="white"/>
<path d="M91.8339 94.2483H21.7506C21.7506 94.2483 8.18828 94.4513 3.78511 83.6923C2.87702 85.89 2.41217 88.2454 2.41728 90.6233C2.41728 109.038 21.7506 108.748 21.7506 108.748H91.8339C91.8339 108.748 113.584 105.916 113.584 84.5816C113.585 82.209 113.236 79.8492 112.55 77.5781C108.229 92.112 91.8339 94.2483 91.8339 94.2483Z" fill="#3E7F77"/>
<path d="M113.584 84.5834C113.586 81.3371 112.933 78.1238 111.664 75.1359C110.395 72.1479 108.536 69.4469 106.199 67.1945C103.861 64.9421 101.093 63.1847 98.0596 62.0275C95.0265 60.8704 91.7912 60.3373 88.5472 60.4602C85.3507 53.6631 79.9796 48.1255 73.2833 44.7229C66.5869 41.3203 58.9474 40.2469 51.5727 41.6725C44.198 43.0981 37.5089 46.9413 32.5631 52.5944C27.6172 58.2475 24.6969 65.388 24.2639 72.8867C21.6255 72.3341 18.897 72.3768 16.2771 73.0117C13.6573 73.6465 11.212 74.8577 9.11922 76.5569C7.02649 78.256 5.33901 80.4005 4.17964 82.8342C3.02027 85.2678 2.41819 87.9294 2.41724 90.6251C2.41724 109.04 21.7506 108.75 21.7506 108.75H91.8339C91.8339 108.75 113.584 105.918 113.584 84.5834Z" stroke="#00303E" stroke-width="4.83333" stroke-linecap="round" stroke-linejoin="round"/>
<path d="M78.6731 14.1573C71.927 9.6536 63.9976 7.25 55.8864 7.25C47.7751 7.25 39.8457 9.6536 33.0996 14.1573" stroke="#00303E" stroke-width="4.83333" stroke-linecap="round" stroke-linejoin="round"/>
<path d="M67.9515 26.5821C64.3788 24.2005 60.1812 22.9297 55.8875 22.9297C51.5938 22.9297 47.3962 24.2005 43.8235 26.5821" stroke="#00303E" stroke-width="4.83333" stroke-linecap="round" stroke-linejoin="round"/>
</g>
<defs>
<clipPath id="clip0_52362_142107">
<rect width="116" height="116" fill="white"/>
</clipPath>
</defs>
</svg>
