<svg width="143" height="143" viewBox="0 0 143 143" fill="none" xmlns="http://www.w3.org/2000/svg">
<path d="M111.831 86.3916C107.369 86.6954 137.041 85.0092 137.041 58.727C136.985 54.9541 136.169 51.2311 134.642 47.7806C133.115 44.3302 130.907 41.2231 128.152 38.6451C125.397 36.0671 122.15 34.0711 118.605 32.7765C115.061 31.4818 111.292 30.9151 107.524 31.1101C104.196 24.4128 99.0557 18.7837 92.6872 14.8632C86.3188 10.9427 78.9779 8.88815 71.4995 8.93323C61.4827 8.79885 51.7917 12.4895 44.4017 19.2528C37.0117 26.0162 32.4791 35.3432 31.7277 45.3327C28.6623 44.6587 25.4856 44.6732 22.4265 45.3751C19.3674 46.077 16.5021 47.4489 14.0372 49.3918C11.5722 51.3347 9.569 53.8002 8.17191 56.6107C6.77481 59.4212 6.01864 62.5066 5.95789 65.6446C5.95789 85.1224 25.394 86.2664 28.391 86.3916H111.831Z" fill="white"/>
<path d="M111.498 71.4929H111.832C111.349 71.5227 111.266 71.5346 111.498 71.4929H28.3914C25.8591 71.3857 11.6008 70.5575 7.22739 58.5574C6.38576 60.8244 5.95596 63.2236 5.95826 65.6418C5.95826 85.1196 25.3943 86.2636 28.3914 86.3888H111.498C113.417 86.0432 137.042 82.1762 137.042 58.7242C137.04 56.3081 136.713 53.9032 136.07 51.5742C131.608 68.1682 113.208 71.1891 111.498 71.4929Z" fill="#A2D141"/>
<path d="M122.145 82.8583C126.721 80.7415 130.573 77.3256 133.221 73.0358C135.87 68.7461 137.198 63.7721 137.041 58.733C136.985 54.96 136.169 51.237 134.642 47.7866C133.114 44.3361 130.907 41.229 128.152 38.651C125.396 36.0731 122.149 34.0771 118.605 32.7824C115.061 31.4878 111.292 30.9211 107.523 31.1161C104.196 24.4181 99.0558 18.7882 92.6874 14.8666C86.319 10.9451 78.978 8.88939 71.4992 8.93323C61.4823 8.79885 51.7913 12.4895 44.4013 19.2528C37.0113 26.0162 32.4787 35.3432 31.7273 45.3327C28.6619 44.6587 25.4852 44.6732 22.4261 45.3751C19.367 46.077 16.5017 47.4489 14.0368 49.3918C11.5718 51.3347 9.56863 53.8002 8.17154 56.6107C6.77444 59.4212 6.01827 62.5066 5.95752 65.6446C5.71761 70.1413 7.08401 74.5768 9.81266 78.159C12.5413 81.7412 16.4545 84.2367 20.8533 85.1999" stroke="#00303E" stroke-width="5.95833" stroke-linecap="round" stroke-linejoin="round"/>
<path d="M44.6874 98.3125C44.6874 105.424 47.5123 112.243 52.5406 117.272C57.5689 122.3 64.3888 125.125 71.4999 125.125C78.611 125.125 85.4309 122.3 90.4592 117.272C95.4875 112.243 98.3124 105.424 98.3124 98.3125C98.3124 91.2014 95.4875 84.3815 90.4592 79.3532C85.4309 74.3249 78.611 71.5 71.4999 71.5C64.3888 71.5 57.5689 74.3249 52.5406 79.3532C47.5123 84.3815 44.6874 91.2014 44.6874 98.3125Z" fill="#A2D141"/>
<path d="M56.604 104.277H35.7499V125.132" stroke="#00303E" stroke-width="5.95833" stroke-linecap="round" stroke-linejoin="round"/>
<path d="M103.777 111.622C101.332 118.791 96.5092 124.908 90.1092 128.958C83.7093 133.009 76.1167 134.749 68.5914 133.891C61.0662 133.032 54.0607 129.626 48.7374 124.239C43.4142 118.851 40.0932 111.805 39.3256 104.27" stroke="#00303E" stroke-width="5.95833" stroke-linecap="round" stroke-linejoin="round"/>
<path d="M86.3958 92.3581H107.25V71.5039" stroke="#00303E" stroke-width="5.95833" stroke-linecap="round" stroke-linejoin="round"/>
<path d="M39.2239 85.0126C41.6681 77.8444 46.4897 71.7272 52.8886 67.6762C59.2876 63.6251 66.8793 61.8836 74.4042 62.7407C81.9291 63.5977 88.9348 67.0018 94.2589 72.388C99.583 77.7743 102.906 84.819 103.675 92.3533" stroke="#00303E" stroke-width="5.95833" stroke-linecap="round" stroke-linejoin="round"/>
</svg>
