<svg width="22" height="22" viewBox="0 0 22 22" fill="none" xmlns="http://www.w3.org/2000/svg">
<path fill-rule="evenodd" clip-rule="evenodd" d="M5.55281 0.605529C6.10941 0.327246 6.77344 0 8 0C9.22655 0 9.89057 0.32722 10.4472 0.605498L10.4631 0.613472C10.8987 0.83131 11.2359 0.99991 12 0.999935C13.2371 0.999975 13.9698 0.53871 14.2141 0.355119C14.5944 0.0693231 15.0437 0.093419 15.3539 0.236903C15.6681 0.382232 16 0.728985 16 1.24148L16 12H19C20.6562 12 22 13.3415 22 14.999V18C22 18.925 21.7659 19.6852 21.3633 20.2891C20.9649 20.8867 20.4408 21.2726 19.9472 21.5194C19.4575 21.7643 18.9799 21.8817 18.6331 21.9395C18.4249 21.9742 18.2116 22.0004 18 22H4C3.07502 22 2.3148 21.7659 1.71092 21.3633C1.11331 20.9649 0.727388 20.4408 0.480573 19.9472C0.235716 19.4575 0.118271 18.9799 0.0604811 18.6332C0.031191 18.4574 0.016159 18.3088 0.00840068 18.2002C0.00193628 18.1097 2.64253e-05 18.0561 0 18V1.24146C0 0.728988 0.331843 0.382234 0.646058 0.236899C0.956284 0.0934089 1.40561 0.0693127 1.78589 0.355089C2.03019 0.538676 2.76289 0.999935 4 0.999935C4.76415 0.999935 5.10128 0.831338 5.53688 0.613495L5.55281 0.605529ZM2.00332 18L2 2.68371C2.54018 2.86577 3.20732 2.99993 4 2.99993C5.22656 2.99993 5.89059 2.67269 6.44719 2.39441L6.46312 2.38644C6.89872 2.1686 7.23585 2 8 2C8.76417 2 9.10131 2.16859 9.53691 2.38643L9.55282 2.39439C10.1094 2.67266 10.7734 2.9999 12 2.99993C12.7927 2.99996 13.4598 2.86581 14 2.68373V18C14 18.783 14.1678 19.448 14.4635 20H4C3.42498 20 3.0602 19.8591 2.82033 19.6992C2.57419 19.5351 2.39761 19.3092 2.26943 19.0528C2.13928 18.7925 2.06923 18.5201 2.03327 18.3044C2.01637 18.2029 2.00612 18.1024 2.00332 18ZM18.3044 19.9667C18.5201 19.9308 18.7925 19.8607 19.0528 19.7306C19.3092 19.6024 19.5351 19.4258 19.6992 19.1797C19.8591 18.9398 20 18.575 20 18V14.999C20 14.4474 19.5529 14 19 14H16L16 18C16 18.575 16.1409 18.9398 16.3008 19.1797C16.4649 19.4258 16.6908 19.6024 16.9472 19.7306C17.2075 19.8607 17.4799 19.9308 17.6957 19.9667C17.8012 19.9843 17.8869 19.9927 17.9423 19.9967C18.0629 20.0053 18.1857 19.9865 18.3044 19.9667Z" fill="black"/>
<path d="M4 7C4 6.44772 4.44772 6 5 6H11C11.5523 6 12 6.44772 12 7C12 7.55229 11.5523 8 11 8H5C4.44772 8 4 7.55229 4 7Z" fill="black"/>
<path d="M4 11C4 10.4477 4.44772 10 5 10H11C11.5523 10 12 10.4477 12 11C12 11.5523 11.5523 12 11 12H5C4.44772 12 4 11.5523 4 11Z" fill="black"/>
<path d="M4 15C4 14.4477 4.44772 14 5 14H11C11.5523 14 12 14.4477 12 15C12 15.5523 11.5523 16 11 16H5C4.44772 16 4 15.5523 4 15Z" fill="black"/>
</svg>
