<svg width="16" height="16" viewBox="0 0 16 16" fill="currentColor" xmlns="http://www.w3.org/2000/svg">
<path fill-rule="evenodd" clip-rule="evenodd" d="M2.91132 4.49939C2.76745 3.6486 3.56625 2.93712 4.41052 3.16406L5.04974 3.33589C5.55706 3.47226 6.09536 3.26714 6.37768 2.82987L6.99035 1.88094C7.46183 1.15069 8.54338 1.15069 9.01485 1.88094L9.62753 2.82987C9.90985 3.26714 10.4481 3.47226 10.9555 3.33589L11.5947 3.16406C12.439 2.93712 13.2378 3.6486 13.0939 4.49939L12.9362 5.43183C12.8552 5.91104 13.0798 6.39035 13.5024 6.6403L14.0867 6.98586C14.8634 7.44518 14.8634 8.55466 14.0867 9.01398L13.5024 9.35954C13.0798 9.60949 12.8552 10.0888 12.9362 10.568L13.0939 11.5004C13.2378 12.3512 12.439 13.0627 11.5947 12.8358L10.9555 12.6639C10.4481 12.5276 9.90985 12.7327 9.62753 13.17L9.01485 14.1189C8.54338 14.8491 7.46183 14.8491 6.99035 14.1189L6.37768 13.17C6.09536 12.7327 5.55706 12.5276 5.04974 12.6639L4.41052 12.8358C3.56625 13.0627 2.76745 12.3512 2.91132 11.5004L3.06899 10.568C3.15002 10.0888 2.92546 9.60949 2.50279 9.35954L1.91846 9.01398C1.14176 8.55466 1.14176 7.44518 1.91846 6.98586L2.50279 6.6403C2.92546 6.39035 3.15002 5.91104 3.06899 5.43183L2.91132 4.49939ZM6.20286 4.45217H4.40312V6.22604L2.60338 7.99992L4.40312 9.7738V11.5477H6.20286L8.0026 13.3215L9.80235 11.5477H11.6021V9.7738L13.4018 7.99992L11.6021 6.22604V4.45217H9.80235L8.0026 2.67829L6.20286 4.45217Z" fill="#3E7F77"/>
<path d="M10.7005 7.99992C10.7005 9.46945 9.49183 10.6607 8.00087 10.6607C6.50991 10.6607 5.30125 9.46945 5.30125 7.99992C5.30125 6.53039 6.50991 5.3391 8.00087 5.3391C9.49183 5.3391 10.7005 6.53039 10.7005 7.99992ZM6.49935 7.99992C6.49935 8.81727 7.1716 9.47986 8.00087 9.47986C8.83014 9.47986 9.50239 8.81727 9.50239 7.99992C9.50239 7.18257 8.83014 6.51998 8.00087 6.51998C7.1716 6.51998 6.49935 7.18257 6.49935 7.99992Z" fill="#3E7F77"/>
</svg>
