<svg width="24" height="24" viewBox="0 0 24 24" fill="none" xmlns="http://www.w3.org/2000/svg">
<path d="M23 12C23 18.0758 18.0758 23 12 23C5.92422 23 1 18.0758 1 12C1 5.92422 5.92422 1 12 1C18.0758 1 23 5.92422 23 12ZM12.4426 3.07324L10.9902 4.1625C10.7625 4.33566 10.625 4.60723 10.625 4.89598V5.28484C10.625 5.57617 10.8613 5.8125 11.1535 5.8125C11.2566 5.8125 11.3598 5.78242 11.4457 5.72227L13.2418 4.52602C13.3277 4.46844 13.4309 4.4375 13.534 4.4375H13.577C13.8434 4.4375 14.0625 4.65535 14.0625 4.92348C14.0625 5.05238 14.0109 5.17613 13.9207 5.26723L13.0656 6.12187C12.8164 6.33242 12.5113 6.56016 12.1805 6.66758L11.0375 7.05C10.7926 7.13164 10.625 7.36367 10.625 7.62578C10.625 7.78477 10.5605 7.93945 10.4488 8.05117L9.67539 8.82461C9.40469 9.09531 9.25 9.46914 9.25 9.85586V10.0363C9.25 10.741 9.83437 11.3125 10.5348 11.3125C11.0074 11.3125 11.4457 11.0461 11.6562 10.625L11.8281 10.277C11.9355 10.0707 12.1461 9.9375 12.3781 9.9375C12.5758 9.9375 12.7562 10.0277 12.8723 10.1824L13.5727 11.1191C13.6629 11.2395 13.809 11.3125 13.9637 11.3125C14.3246 11.3125 14.5609 10.9301 14.3977 10.6078L14.3504 10.509C14.1957 10.2082 14.3504 9.84297 14.6684 9.73555L15.5793 9.43047C15.9059 9.32305 16.125 9.01797 16.125 8.67422C16.125 8.23164 16.4816 7.875 16.9242 7.875H18.1875C18.5656 7.875 18.875 8.18437 18.875 8.5625C18.875 8.94063 18.5656 9.25 18.1875 9.25H17.298C16.9887 9.25 16.6879 9.37461 16.4688 9.59375L16.2668 9.7957C16.1766 9.88594 16.125 10.0105 16.125 10.1395C16.125 10.4059 16.3441 10.625 16.6105 10.625H17.0961C17.3539 10.625 17.6031 10.7281 17.7836 10.9086L18.0672 11.1922C18.1059 11.2309 18.1875 11.3727 18.1875 11.4844C18.1875 11.5961 18.1059 11.6992 18.0672 11.7766L17.7449 12.0988C17.5859 12.2191 17.5 12.4684 17.5 12.6875C17.5 12.9066 17.5859 13.1172 17.7449 13.2762L18.5312 14.0625C18.9695 14.5008 19.5668 14.75 20.1898 14.75H20.4691C20.7871 13.882 20.9375 12.9582 20.9375 12C20.9375 7.21328 17.1734 3.30484 12.4426 3.07324ZM19.8375 16.3012C19.6785 16.1895 19.4852 16.125 19.2789 16.125C19.0211 16.125 18.7719 16.0219 18.5914 15.8414L17.977 15.227C17.6848 14.9348 17.2379 14.75 16.7738 14.75C16.357 14.75 15.9488 14.5996 15.6309 14.3289L14.4535 13.3492C13.9938 12.9238 13.3578 12.6488 12.7004 12.6488H11.8023C11.2566 12.6488 10.7281 12.8465 10.277 13.1473L9.09961 13.9336C8.33477 14.4449 7.875 15.3043 7.875 16.2238V16.3613C7.875 17.0918 8.16289 17.7879 8.67852 18.3035L9.36602 18.991C9.73125 19.3563 10.2254 19.5625 10.741 19.5625H11.6562C12.2277 19.5625 12.6875 20.0223 12.6875 20.5938C12.6875 20.7012 12.7047 20.8086 12.7348 20.9074C15.8027 20.6582 18.4281 18.8621 19.8375 16.3012ZM8.07695 5.32695L6.70195 6.70195C6.43125 6.96836 6.43125 7.40664 6.70195 7.67305C6.96836 7.94375 7.40664 7.94375 7.67305 7.67305L9.04805 6.29805C9.31875 6.03164 9.31875 5.59336 9.04805 5.32695C8.78164 5.05797 8.34336 5.05797 8.07695 5.32695Z" fill="currentColor"/>
</svg>
