<svg width="28" height="28" viewBox="0 0 28 28" fill="none" xmlns="http://www.w3.org/2000/svg">
<rect width="28" height="28" rx="4" fill="white"/>
<path d="M11.208 15.7061C11.5984 15.3157 12.2316 15.3159 12.6221 15.7061C13.0125 16.0966 13.0126 16.7306 12.6221 17.1211L7.63086 22.1104H10.7539C11.3062 22.1104 11.7539 22.5581 11.7539 23.1104C11.7538 23.6625 11.3061 24.1104 10.7539 24.1104H5.14062C4.8752 24.1104 4.62019 24.0042 4.43262 23.8164C4.24543 23.6288 4.14042 23.3744 4.14062 23.1094L4.14746 17.6426C4.14811 17.0903 4.59615 16.6429 5.14844 16.6436C5.70065 16.6443 6.14811 17.0923 6.14746 17.6445L6.14258 20.7695L11.208 15.7061ZM22.3672 4.21484C22.6324 4.21493 22.8867 4.32026 23.0742 4.50781C23.2617 4.69556 23.3674 4.95047 23.3672 5.21582L23.3604 10.6826C23.3597 11.2348 22.9116 11.6822 22.3594 11.6816C21.8072 11.681 21.3598 11.2329 21.3604 10.6807L21.3633 7.55566L16.2988 12.6191C15.9082 13.0092 15.2751 13.0086 14.8848 12.6182C14.4946 12.2276 14.4944 11.5945 14.8848 11.2041L19.876 6.21484H16.7539C16.2016 6.21484 15.7539 5.76713 15.7539 5.21484C15.7539 4.66256 16.2016 4.21484 16.7539 4.21484H22.3672Z" fill="#666666"/>
</svg>
