<svg width="24" height="24" viewBox="0 0 24 24" fill="none" xmlns="http://www.w3.org/2000/svg">
<path fill-rule="evenodd" clip-rule="evenodd" d="M11.9944 15.5C13.9274 15.5 15.4944 13.933 15.4944 12C15.4944 10.067 13.9274 8.5 11.9944 8.5C10.0614 8.5 8.49445 10.067 8.49445 12C8.49445 13.933 10.0614 15.5 11.9944 15.5ZM11.9944 13.4944C11.1691 13.4944 10.5001 12.8253 10.5001 12C10.5001 11.1747 11.1691 10.5056 11.9944 10.5056C12.8198 10.5056 13.4888 11.1747 13.4888 12C13.4888 12.8253 12.8198 13.4944 11.9944 13.4944Z" fill="currentColor"/>
<path fill-rule="evenodd" clip-rule="evenodd" d="M12.0001 5C7.18885 5 3.91676 7.60905 2.18936 9.47978C0.857453 10.9222 0.857454 13.0778 2.18936 14.5202C3.91676 16.391 7.18885 19 12.0001 19C16.8113 19 20.0833 16.391 21.8107 14.5202C23.1426 13.0778 23.1426 10.9222 21.8107 9.47978C20.0833 7.60905 16.8113 5 12.0001 5ZM3.65874 10.8366C5.18838 9.18002 7.96696 7 12.0001 7C16.0331 7 18.8117 9.18002 20.3414 10.8366C20.9658 11.5128 20.9658 12.4872 20.3414 13.1634C18.8117 14.82 16.0331 17 12.0001 17C7.96696 17 5.18838 14.82 3.65874 13.1634C3.03433 12.4872 3.03433 11.5128 3.65874 10.8366Z" fill="currentColor"/>
</svg>
