<svg width="39" height="39" viewBox="0 0 39 39" fill="none" xmlns="http://www.w3.org/2000/svg">
<path d="M11.7627 32.1646C11.7627 32.2092 11.7266 32.2452 11.6821 32.2452H6.15342C6.10889 32.2452 6.0728 32.2092 6.0728 32.1646V14.0326C6.0728 13.9881 6.10889 13.952 6.15342 13.952H11.6821C11.7266 13.952 11.7627 13.9881 11.7627 14.0326V32.1646ZM8.94833 11.4435C8.051 11.4435 7.27604 11.1172 6.62344 10.4646C5.97083 9.81203 5.64453 9.03707 5.64453 8.13974C5.64453 7.24241 5.97083 6.46744 6.62344 5.81484C7.27604 5.16224 8.051 4.83594 8.94833 4.83594C9.84566 4.83594 10.6206 5.16224 11.2732 5.81484C11.9258 6.46744 12.2521 7.24241 12.2521 8.13974C12.2521 8.71077 12.089 9.2614 11.7627 9.79164C11.4772 10.2811 11.0693 10.689 10.5391 11.0153C10.0496 11.3008 9.51936 11.4435 8.94833 11.4435ZM33.0538 32.1646C33.0538 32.2092 33.0177 32.2452 32.9732 32.2452H27.4446C27.4001 32.2452 27.364 32.2092 27.364 32.1646V23.3127C27.364 22.6194 27.3436 22.0687 27.3028 21.6608C27.262 21.2122 27.16 20.7227 26.9969 20.1925C26.8337 19.6215 26.5278 19.1932 26.0791 18.9077C25.6713 18.6222 25.1206 18.4794 24.4272 18.4794C23.0813 18.4794 22.1635 18.9077 21.6741 19.7642C21.2254 20.6208 21.0011 21.7628 21.0011 23.1904V32.1646C21.0011 32.2092 20.965 32.2452 20.9205 32.2452H15.3918C15.3473 32.2452 15.3112 32.2092 15.3112 32.1646V14.0326C15.3112 13.9881 15.3473 13.952 15.3918 13.952H20.7369C20.7814 13.952 20.8175 13.9881 20.8175 14.0326V16.4226C20.8175 16.4435 20.8345 16.4604 20.8554 16.4604C20.8697 16.4604 20.8828 16.4523 20.8892 16.4396C21.2981 15.6328 21.9676 14.9464 22.8977 14.3802C23.8358 13.7684 24.9575 13.4625 26.2627 13.4625C27.6495 13.4625 28.7915 13.6869 29.6889 14.1355C30.627 14.5434 31.3204 15.1756 31.769 16.0322C32.2585 16.8479 32.5848 17.7452 32.7479 18.7241C32.9519 19.703 33.0538 20.8655 33.0538 22.2115V32.1646Z" stroke="currentColor" stroke-width="1.93477" stroke-linecap="round"/>
</svg>
