<svg width="24" height="24" viewBox="0 0 24 24" fill="none" xmlns="http://www.w3.org/2000/svg">
<path fill-rule="evenodd" clip-rule="evenodd" d="M12.0034 14.0038C14.4887 14.0038 16.5034 11.9891 16.5034 9.50383C16.5034 7.01855 14.4887 5.00383 12.0034 5.00383C9.51816 5.00383 7.50344 7.01855 7.50344 9.50383C7.50344 11.9891 9.51816 14.0038 12.0034 14.0038ZM12.0034 12.0074C10.6207 12.0074 9.49985 10.8865 9.49985 9.50383C9.49985 8.12114 10.6207 7.00025 12.0034 7.00025C13.3861 7.00025 14.507 8.12114 14.507 9.50383C14.507 10.8865 13.3861 12.0074 12.0034 12.0074Z" fill="currentColor"/>
<path fill-rule="evenodd" clip-rule="evenodd" d="M21.2718 11.5821C22.5647 5.78852 18.005 0.00390625 11.9998 0.00390625C5.99633 0.00390625 1.43624 5.79646 2.72801 11.5829C3.72507 16.2824 7.75705 20.8469 10.1634 23.2272C11.194 24.2467 12.8057 24.2467 13.8363 23.2272C16.2428 20.8468 20.275 16.282 21.2718 11.5821ZM11.9998 2.00391C16.7123 2.00391 20.3366 6.59018 19.3199 11.1465C18.8315 13.3358 17.7357 15.3019 16.45 17.1194C15.1062 19.0188 13.5828 20.6648 12.4298 21.8053C12.1784 22.054 11.8213 22.054 11.5699 21.8053C10.417 20.6649 8.89364 19.0189 7.54993 17.1197C6.26404 15.3021 5.16871 13.3364 4.67996 11.1471C3.66423 6.59719 7.28997 2.00391 11.9998 2.00391Z" fill="currentColor"/>
</svg>
