<svg width="24" height="24" viewBox="0 0 24 24" fill="none" xmlns="http://www.w3.org/2000/svg">
<path fill-rule="evenodd" clip-rule="evenodd" d="M13.7231 1.51984C14.5124 1.1252 15.4354 1.09808 16.2465 1.44569L21.1818 3.56079C22.2848 4.03353 23 5.11814 23 6.31823V18.9664C23 21.1201 20.7978 22.5722 18.8182 21.7238L15.4587 20.284C15.1883 20.1681 14.8806 20.1771 14.6175 20.3087L10.2769 22.479C9.48759 22.8737 8.56458 22.9008 7.75348 22.5532L2.81824 20.4381C1.71519 19.9653 1 18.8807 1 17.6806V5.03251C1 2.87877 3.20215 1.42668 5.18176 2.27508L8.54132 3.71489C8.81169 3.83076 9.11936 3.82172 9.38246 3.69017L13.7231 1.51984ZM16 3.51598V18.3526C16.0831 18.3799 16.1654 18.4109 16.2465 18.4457L19.6061 19.8855C20.2659 20.1683 21 19.6843 21 18.9664V6.31823C21 5.9182 20.7616 5.55666 20.3939 5.39908L16 3.51598ZM14 18.3984V3.61747L10.2769 5.47903C10.1862 5.52436 10.0938 5.56484 10 5.60045V20.3814L13.7231 18.5198C13.8138 18.4745 13.9062 18.434 14 18.3984ZM7.75348 5.55318C7.83462 5.58795 7.91687 5.61898 8 5.64626V20.4829L3.60608 18.5998C3.2384 18.4422 3 18.0807 3 17.6806V5.03251C3 4.3146 3.73405 3.83057 4.39392 4.11337L7.75348 5.55318Z" fill="currentColor"/>
</svg>
