<svg width="24" height="24" viewBox="0 0 24 24" fill="none" xmlns="http://www.w3.org/2000/svg">
<path d="M11 5C10.4477 5 10 5.44771 10 6C10 6.55228 10.4477 7 11 7H18C18.5523 7 19 6.55228 19 6C19 5.44771 18.5523 5 18 5H11Z" fill="currentColor"/>
<path d="M10 10C10 9.44771 10.4477 9 11 9H13C13.5523 9 14 9.44771 14 10C14 10.5523 13.5523 11 13 11H11C10.4477 11 10 10.5523 10 10Z" fill="currentColor"/>
<path d="M11 13C10.4477 13 10 13.4477 10 14C10 14.5523 10.4477 15 11 15H13C13.5523 15 14 14.5523 14 14C14 13.4477 13.5523 13 13 13H11Z" fill="currentColor"/>
<path d="M10 18C10 17.4477 10.4477 17 11 17H13C13.5523 17 14 17.4477 14 18C14 18.5523 13.5523 19 13 19H11C10.4477 19 10 18.5523 10 18Z" fill="currentColor"/>
<path d="M16 9C15.4477 9 15 9.44771 15 10C15 10.5523 15.4477 11 16 11H18C18.5523 11 19 10.5523 19 10C19 9.44771 18.5523 9 18 9H16Z" fill="currentColor"/>
<path d="M15 14C15 13.4477 15.4477 13 16 13H18C18.5523 13 19 13.4477 19 14C19 14.5523 18.5523 15 18 15H16C15.4477 15 15 14.5523 15 14Z" fill="currentColor"/>
<path d="M16 17C15.4477 17 15 17.4477 15 18C15 18.5523 15.4477 19 16 19H18C18.5523 19 19 18.5523 19 18C19 17.4477 18.5523 17 18 17H16Z" fill="currentColor"/>
<path fill-rule="evenodd" clip-rule="evenodd" d="M4.50013 23H19C19.925 23 20.6852 22.7659 21.2891 22.3633C21.8867 21.9649 22.2726 21.4408 22.5194 20.9472C22.7643 20.4575 22.8817 19.9799 22.9395 19.6331C22.9743 19.4246 22.9995 19.2118 23 19V4.00006C23 2.34321 21.6569 1.00006 20 1.00006H9C7.34315 1.00006 6 2.34321 6 4.00006L6 13H4C2.34381 13 1 14.3415 1 15.999V19C1 20.8388 1.79875 21.9204 2.7355 22.4825C3.17156 22.7441 3.59956 22.871 3.91326 22.9337C4.1055 22.9722 4.30358 23 4.50013 23ZM21 4.00006C21 3.44778 20.5523 3.00006 20 3.00006H9C8.44771 3.00006 8 3.44778 8 4.00006V19C8 19.8052 7.84683 20.4652 7.59599 21H19C19.575 21 19.9398 20.8591 20.1797 20.6992C20.4258 20.5351 20.6024 20.3092 20.7306 20.0528C20.8917 19.7305 20.9901 19.3558 21 18.9939V4.00006ZM4 15H6L6 19C6 20.1612 5.54875 20.5796 5.2355 20.7675C4.76451 21.0501 4.23209 21.0481 3.7645 20.7675C3.45125 20.5796 3 20.1612 3 19V15.999C3 15.4474 3.44705 15 4 15Z" fill="currentColor"/>
</svg>
