<svg width="16" height="16" viewBox="0 0 16 16" fill="none" xmlns="http://www.w3.org/2000/svg">
<path d="M8.95365 3.80196L3.34584 9.40978C3.20624 9.54937 3.09939 9.71822 3.03299 9.90414L1.80539 13.3414C1.6162 13.8712 2.1277 14.3827 2.65744 14.1935L6.09472 12.9659C6.28064 12.8995 6.44949 12.7926 6.58908 12.653L12.1969 7.04521M8.95365 3.80196L10.4793 2.2763C11 1.75561 11.8442 1.75561 12.3649 2.2763L13.7226 3.63393C14.2433 4.15463 14.2433 4.99885 13.7226 5.51955L12.1969 7.04521M8.95365 3.80196L10.5753 5.42359L12.1969 7.04521" stroke="black" stroke-width="1.33333"/>
<path d="M3.33203 10L5.9987 12.6667" stroke="black" stroke-width="1.33333"/>
</svg>
