<svg width="24" height="24" viewBox="0 0 24 24" fill="none" xmlns="http://www.w3.org/2000/svg">
<path fill-rule="evenodd" clip-rule="evenodd" d="M12.0002 1C12.5525 1 13.0002 1.44772 13.0002 2V3.03241C14.2501 3.11076 15.4554 3.31872 16.4998 3.51766C16.7365 3.56274 16.9616 3.6067 17.1769 3.64875C17.5774 3.72697 17.9444 3.79865 18.2887 3.85854C18.8203 3.95099 19.2171 4 19.5002 4C20.0264 4 20.4801 3.824 20.8166 3.63176C20.9872 3.53425 21.1546 3.42192 21.2987 3.28732C21.6897 2.90238 22.3187 2.90423 22.7073 3.29289C23.0978 3.68342 23.0978 4.31658 22.7073 4.70711C22.625 4.78929 22.536 4.8645 22.4452 4.93712C22.2949 5.05735 22.0802 5.21318 21.8089 5.36824C21.5533 5.51425 21.2398 5.66392 20.8769 5.7809L23.5922 12.7633C23.841 13.403 24.0885 14.3096 23.7735 15.2388C23.5812 15.8064 23.2113 16.5114 22.5026 17.0733C21.783 17.6438 20.798 18 19.5002 18C18.2024 18 17.2174 17.6438 16.4978 17.0733C15.7891 16.5114 15.4193 15.8064 15.2269 15.2388C14.9119 14.3096 15.1594 13.403 15.4082 12.7633L18.095 5.85438C17.6827 5.78545 17.2365 5.69819 16.7646 5.60606C16.5537 5.5649 16.3396 5.5231 16.1256 5.48234C15.1316 5.293 14.0692 5.11204 13.0002 5.03671V21H17.0002C17.5525 21 18.0002 21.4477 18.0002 22C18.0002 22.5523 17.5525 23 17.0002 23H7.00022C6.44793 23 6.00022 22.5523 6.00022 22C6.00022 21.4477 6.44793 21 7.00022 21H11.0002V5.03671C9.93127 5.11204 8.86885 5.293 7.87483 5.48234C7.66084 5.5231 7.44673 5.5649 7.23588 5.60606C6.76397 5.69819 6.31771 5.78545 5.90543 5.85438L8.59224 12.7633C8.84101 13.403 9.08852 14.3096 8.77353 15.2388C8.58116 15.8064 8.21134 16.5114 7.5026 17.0733C6.78305 17.6438 5.79803 18 4.50022 18C3.20241 18 2.21739 17.6438 1.49783 17.0733C0.789093 16.5114 0.419271 15.8064 0.226902 15.2388C-0.088091 14.3096 0.159424 13.403 0.408188 12.7633L3.12358 5.7809C2.76061 5.66392 2.44709 5.51425 2.19158 5.36824C1.92022 5.21318 1.7055 5.05735 1.55521 4.93712C1.54644 4.9301 1.29311 4.70711 1.29311 4.70711C0.902586 4.31658 0.902586 3.68342 1.29311 3.29289C1.68176 2.90424 2.31073 2.90238 2.70169 3.2873C2.71476 3.29973 2.8959 3.46721 3.18386 3.63176C3.52029 3.824 3.974 4 4.50022 4C4.78333 4 5.1801 3.95099 5.71169 3.85854C6.05615 3.79863 6.42288 3.72701 6.82351 3.64876C7.03872 3.60673 7.26403 3.56272 7.5006 3.51766C8.54507 3.31872 9.75037 3.11076 11.0002 3.03241V2C11.0002 1.44772 11.4479 1 12.0002 1ZM4.50022 7.75903L2.46206 13H6.53837L4.50022 7.75903ZM2.74037 15.5061C2.55212 15.3569 2.41041 15.1818 2.30372 15H6.69671C6.59002 15.1818 6.44831 15.3569 6.26006 15.5061C5.94466 15.7562 5.41606 16 4.50022 16C3.58437 16 3.05578 15.7562 2.74037 15.5061ZM17.4621 13L19.5002 7.75903L21.5384 13H17.4621ZM17.3037 15C17.4104 15.1818 17.5521 15.3569 17.7404 15.5061C18.0558 15.7562 18.5844 16 19.5002 16C20.4161 16 20.9447 15.7562 21.2601 15.5061C21.4483 15.3569 21.59 15.1818 21.6967 15H17.3037Z" fill="currentColor"/>
</svg>
