<svg width="44" height="44" viewBox="0 0 44 44" fill="none" xmlns="http://www.w3.org/2000/svg">
<g clip-path="url(#clip0_52362_144697)">
<path d="M31.6346 23.4997C31.6346 22.3011 31.1584 21.1516 30.3109 20.3041C29.4634 19.4566 28.3139 18.9805 27.1153 18.9805H5.42304C4.22446 18.9805 3.07498 19.4566 2.22746 20.3041C1.37994 21.1516 0.903809 22.3011 0.903809 23.4997C0.903809 24.6983 1.37994 25.8478 2.22746 26.6953C3.07498 27.5428 4.22446 28.0189 5.42304 28.0189H27.1153C28.3139 28.0189 29.4634 27.5428 30.3109 26.6953C31.1584 25.8478 31.6346 24.6983 31.6346 23.4997Z" fill="#000066"/>
<path d="M31.6346 23.4997C31.6346 22.3011 31.1584 21.1516 30.3109 20.3041C29.4634 19.4566 28.3139 18.9805 27.1153 18.9805H5.42304C4.82957 18.9805 4.2419 19.0974 3.6936 19.3245C3.14531 19.5516 2.64711 19.8845 2.22746 20.3041C1.37994 21.1516 0.903809 22.3011 0.903809 23.4997H31.6346Z" fill="white"/>
<path d="M31.6346 14.4606C31.6346 13.2621 31.1584 12.1126 30.3109 11.2651C29.4634 10.4175 28.3139 9.94141 27.1153 9.94141H5.42304C4.22446 9.94141 3.07498 10.4175 2.22746 11.2651C1.37994 12.1126 0.903809 13.2621 0.903809 14.4606C0.903809 15.6592 1.37994 16.8087 2.22746 17.6562C3.07498 18.5037 4.22446 18.9799 5.42304 18.9799H27.1153C28.3139 18.9799 29.4634 18.5037 30.3109 17.6562C31.1584 16.8087 31.6346 15.6592 31.6346 14.4606Z" fill="#000066"/>
<path d="M31.6346 14.4606C31.6346 13.2621 31.1584 12.1126 30.3109 11.2651C29.4634 10.4175 28.3139 9.94141 27.1153 9.94141H5.42304C4.82957 9.94141 4.2419 10.0583 3.6936 10.2854C3.14531 10.5125 2.64711 10.8454 2.22746 11.2651C1.37994 12.1126 0.903809 13.2621 0.903809 14.4606H31.6346Z" fill="white"/>
<path d="M31.6346 5.42157C31.6346 4.8281 31.5177 4.24044 31.2906 3.69214C31.0635 3.14384 30.7306 2.64565 30.3109 2.226C29.8913 1.80635 29.3931 1.47346 28.8448 1.24635C28.2965 1.01924 27.7088 0.902344 27.1153 0.902344H5.42304C4.22446 0.902344 3.07498 1.37848 2.22746 2.226C1.37994 3.07352 0.903809 4.223 0.903809 5.42157C0.903809 6.62015 1.37994 7.76963 2.22746 8.61715C3.07498 9.46467 4.22446 9.94081 5.42304 9.94081H27.1153C28.3139 9.94081 29.4634 9.46467 30.3109 8.61715C31.1584 7.76963 31.6346 6.62015 31.6346 5.42157Z" fill="#000066"/>
<path d="M31.6346 5.42157C31.6346 4.8281 31.5177 4.24044 31.2906 3.69214C31.0635 3.14384 30.7306 2.64565 30.3109 2.226C29.8913 1.80635 29.3931 1.47346 28.8448 1.24635C28.2965 1.01924 27.7088 0.902344 27.1153 0.902344H5.42304C4.82957 0.902344 4.2419 1.01924 3.6936 1.24635C3.14531 1.47346 2.64711 1.80635 2.22746 2.226C1.37994 3.07352 0.903809 4.223 0.903809 5.42157H31.6346Z" fill="white"/>
<path d="M20.7885 31.6333C20.7885 34.5098 21.9312 37.2686 23.9652 39.3027C25.9993 41.3367 28.758 42.4794 31.6346 42.4794C34.5112 42.4794 37.2699 41.3367 39.304 39.3027C41.338 37.2686 42.4808 34.5098 42.4808 31.6333C42.4808 28.7567 41.338 25.9979 39.304 23.9639C37.2699 21.9298 34.5112 20.7871 31.6346 20.7871C28.758 20.7871 25.9993 21.9298 23.9652 23.9639C21.9312 25.9979 20.7885 28.7567 20.7885 31.6333Z" fill="#000066"/>
<path d="M39.3046 23.9641C37.2704 21.9299 34.5114 20.7871 31.6345 20.7871C28.7577 20.7871 25.9987 21.9299 23.9645 23.9641C21.9303 25.9984 20.7875 28.7574 20.7875 31.6342C20.7875 34.511 21.9303 37.27 23.9645 39.3042L39.3046 23.9641Z" fill="#E1E1F3"/>
<path d="M20.7885 31.6333C20.7885 34.5098 21.9312 37.2686 23.9652 39.3027C25.9993 41.3367 28.758 42.4794 31.6346 42.4794C34.5112 42.4794 37.2699 41.3367 39.304 39.3027C41.338 37.2686 42.4808 34.5098 42.4808 31.6333C42.4808 28.7567 41.338 25.9979 39.304 23.9639C37.2699 21.9298 34.5112 20.7871 31.6346 20.7871C28.758 20.7871 25.9993 21.9298 23.9652 23.9639C21.9312 25.9979 20.7885 28.7567 20.7885 31.6333Z" stroke="#000066" stroke-width="1.80769" stroke-linecap="round" stroke-linejoin="round"/>
<path d="M36.4682 28.4805L31.2169 35.4835C31.1003 35.6387 30.9517 35.7671 30.7812 35.86C30.6107 35.9528 30.4222 36.008 30.2285 36.0217C30.0348 36.0354 29.8405 36.0074 29.6586 35.9395C29.4767 35.8716 29.3115 35.7654 29.1742 35.6281L26.4626 32.9165" stroke="#000066" stroke-width="1.80769" stroke-linecap="round" stroke-linejoin="round"/>
<path d="M9.94226 37.0566H15.3653" stroke="#000066" stroke-width="1.80769" stroke-linecap="round" stroke-linejoin="round"/>
<path d="M15.3672 28.0176V37.056" stroke="#000066" stroke-width="1.80769" stroke-linecap="round" stroke-linejoin="round"/>
<path d="M5.87502 36.1523C5.78564 36.1523 5.69826 36.1788 5.62394 36.2285C5.54963 36.2782 5.4917 36.3487 5.4575 36.4313C5.42329 36.5139 5.41434 36.6048 5.43178 36.6924C5.44922 36.7801 5.49226 36.8606 5.55546 36.9238C5.61866 36.987 5.69919 37.0301 5.78685 37.0475C5.87452 37.0649 5.96538 37.056 6.04796 37.0218C6.13054 36.9876 6.20112 36.9297 6.25078 36.8553C6.30044 36.781 6.32694 36.6936 6.32694 36.6043C6.32694 36.4844 6.27933 36.3695 6.19458 36.2847C6.10982 36.2 5.99488 36.1523 5.87502 36.1523Z" stroke="#000066" stroke-width="1.80769" stroke-linecap="round" stroke-linejoin="round"/>
<path d="M1.35573 36.1523C1.26635 36.1523 1.17898 36.1788 1.10466 36.2285C1.03034 36.2782 0.972414 36.3487 0.938209 36.4313C0.904004 36.5139 0.895055 36.6048 0.912492 36.6924C0.92993 36.7801 0.972971 36.8606 1.03617 36.9238C1.09938 36.987 1.1799 37.0301 1.26757 37.0475C1.35523 37.0649 1.4461 37.056 1.52868 37.0218C1.61125 36.9876 1.68183 36.9297 1.73149 36.8553C1.78115 36.781 1.80765 36.6936 1.80765 36.6043C1.80765 36.4844 1.76004 36.3695 1.67529 36.2847C1.59054 36.2 1.47559 36.1523 1.35573 36.1523Z" stroke="#000066" stroke-width="1.80769" stroke-linecap="round" stroke-linejoin="round"/>
<path d="M7.68264 23.0469C7.59325 23.0469 7.50588 23.0734 7.43156 23.123C7.35724 23.1727 7.29932 23.2433 7.26511 23.3259C7.23091 23.4084 7.22196 23.4993 7.2394 23.587C7.25683 23.6746 7.29988 23.7552 7.36308 23.8184C7.42628 23.8816 7.50681 23.9246 7.59447 23.942C7.68213 23.9595 7.773 23.9505 7.85558 23.9163C7.93816 23.8821 8.00874 23.8242 8.0584 23.7499C8.10805 23.6756 8.13456 23.5882 8.13456 23.4988C8.13456 23.3789 8.08695 23.264 8.00219 23.1792C7.91744 23.0945 7.80249 23.0469 7.68264 23.0469Z" stroke="#000066" stroke-width="1.80769" stroke-linecap="round" stroke-linejoin="round"/>
<path d="M12.2019 23.0469C12.1125 23.0469 12.0252 23.0734 11.9508 23.123C11.8765 23.1727 11.8186 23.2433 11.7844 23.3259C11.7502 23.4084 11.7412 23.4993 11.7587 23.587C11.7761 23.6746 11.8192 23.7552 11.8824 23.8184C11.9456 23.8816 12.0261 23.9246 12.1138 23.942C12.2014 23.9595 12.2923 23.9505 12.3749 23.9163C12.4574 23.8821 12.528 23.8242 12.5777 23.7499C12.6273 23.6756 12.6538 23.5882 12.6538 23.4988C12.6538 23.3789 12.6062 23.264 12.5215 23.1792C12.4367 23.0945 12.3218 23.0469 12.2019 23.0469Z" stroke="#000066" stroke-width="1.80769" stroke-linecap="round" stroke-linejoin="round"/>
<path d="M22.5961 18.9805H5.42304C4.22447 18.9805 3.07498 19.4566 2.22746 20.3041C1.37994 21.1516 0.903809 22.3011 0.903809 23.4997C0.903809 24.6983 1.37994 25.8478 2.22746 26.6953C3.07498 27.5428 4.22447 28.0189 5.42304 28.0189H17.173" stroke="#000066" stroke-width="1.80769" stroke-linecap="round" stroke-linejoin="round"/>
<path d="M7.68264 14.0078C7.59325 14.0078 7.50588 14.0343 7.43156 14.084C7.35724 14.1336 7.29932 14.2042 7.26511 14.2868C7.23091 14.3694 7.22196 14.4602 7.2394 14.5479C7.25683 14.6356 7.29988 14.7161 7.36308 14.7793C7.42628 14.8425 7.50681 14.8855 7.59447 14.903C7.68213 14.9204 7.773 14.9115 7.85558 14.8773C7.93816 14.8431 8.00874 14.7851 8.0584 14.7108C8.10805 14.6365 8.13456 14.5491 8.13456 14.4597C8.13456 14.3399 8.08695 14.2249 8.00219 14.1402C7.91744 14.0554 7.80249 14.0078 7.68264 14.0078Z" stroke="#000066" stroke-width="1.80769" stroke-linecap="round" stroke-linejoin="round"/>
<path d="M12.2019 14.0078C12.1125 14.0078 12.0252 14.0343 11.9508 14.084C11.8765 14.1336 11.8186 14.2042 11.7844 14.2868C11.7502 14.3694 11.7412 14.4602 11.7587 14.5479C11.7761 14.6356 11.8192 14.7161 11.8824 14.7793C11.9456 14.8425 12.0261 14.8855 12.1138 14.903C12.2014 14.9204 12.2923 14.9115 12.3749 14.8773C12.4574 14.8431 12.528 14.7851 12.5777 14.7108C12.6273 14.6365 12.6538 14.5491 12.6538 14.4597C12.6538 14.3399 12.6062 14.2249 12.5215 14.1402C12.4367 14.0554 12.3218 14.0078 12.2019 14.0078Z" stroke="#000066" stroke-width="1.80769" stroke-linecap="round" stroke-linejoin="round"/>
<path d="M31.6346 14.4606C31.6346 13.2621 31.1584 12.1126 30.3109 11.2651C29.4634 10.4175 28.3139 9.94141 27.1153 9.94141H5.42304C4.22447 9.94141 3.07498 10.4175 2.22746 11.2651C1.37994 12.1126 0.903809 13.2621 0.903809 14.4606C0.903809 15.6592 1.37994 16.8087 2.22746 17.6562C3.07498 18.5037 4.22447 18.9799 5.42304 18.9799H22.5961" stroke="#000066" stroke-width="1.80769" stroke-linecap="round" stroke-linejoin="round"/>
<path d="M7.68264 4.9707C7.59325 4.9707 7.50588 4.99721 7.43156 5.04687C7.35724 5.09652 7.29932 5.1671 7.26511 5.24968C7.23091 5.33226 7.22196 5.42313 7.2394 5.51079C7.25683 5.59846 7.29988 5.67898 7.36308 5.74218C7.42628 5.80539 7.50681 5.84843 7.59447 5.86587C7.68213 5.8833 7.773 5.87435 7.85558 5.84015C7.93816 5.80594 8.00874 5.74802 8.0584 5.6737C8.10805 5.59938 8.13456 5.51201 8.13456 5.42263C8.13456 5.30277 8.08695 5.18782 8.00219 5.10307C7.91744 5.01832 7.80249 4.9707 7.68264 4.9707Z" stroke="#000066" stroke-width="1.80769" stroke-linecap="round" stroke-linejoin="round"/>
<path d="M12.2019 4.9707C12.1125 4.9707 12.0252 4.99721 11.9508 5.04687C11.8765 5.09652 11.8186 5.1671 11.7844 5.24968C11.7502 5.33226 11.7412 5.42313 11.7587 5.51079C11.7761 5.59846 11.8192 5.67898 11.8824 5.74218C11.9456 5.80539 12.0261 5.84843 12.1138 5.86587C12.2014 5.8833 12.2923 5.87435 12.3749 5.84015C12.4574 5.80594 12.528 5.74802 12.5777 5.6737C12.6273 5.59938 12.6538 5.51201 12.6538 5.42263C12.6538 5.30277 12.6062 5.18782 12.5215 5.10307C12.4367 5.01832 12.3218 4.9707 12.2019 4.9707Z" stroke="#000066" stroke-width="1.80769" stroke-linecap="round" stroke-linejoin="round"/>
<path d="M31.6346 5.42157C31.6346 4.8281 31.5177 4.24044 31.2906 3.69214C31.0635 3.14384 30.7306 2.64565 30.3109 2.226C29.8913 1.80635 29.3931 1.47346 28.8448 1.24635C28.2965 1.01924 27.7088 0.902344 27.1153 0.902344H5.42304C4.22447 0.902344 3.07498 1.37848 2.22746 2.226C1.37994 3.07352 0.903809 4.223 0.903809 5.42157C0.903809 6.62015 1.37994 7.76963 2.22746 8.61715C3.07498 9.46467 4.22447 9.94081 5.42304 9.94081H27.1153C28.3139 9.94081 29.4634 9.46467 30.3109 8.61715C31.1584 7.76963 31.6346 6.62015 31.6346 5.42157Z" stroke="#000066" stroke-width="1.80769" stroke-linecap="round" stroke-linejoin="round"/>
</g>
<defs>
<clipPath id="clip0_52362_144697">
<rect width="43.3846" height="43.3846" fill="white"/>
</clipPath>
</defs>
</svg>
