<svg width="73" height="73" viewBox="0 0 73 73" fill="none" xmlns="http://www.w3.org/2000/svg">
<g clip-path="url(#clip0_53036_58868)">
<path d="M4.5625 11.4843V34.7135C4.65187 42.3891 7.09797 49.8518 11.5695 56.091C16.0411 62.3302 22.3221 67.0445 29.562 69.5954L32.9717 70.8546C35.2495 71.6911 37.7505 71.6911 40.0283 70.8546L43.438 69.5954C50.6779 67.0445 56.9589 62.3302 61.4305 56.091C65.902 49.8518 68.3481 42.3891 68.4375 34.7135V11.4843C68.4344 10.5717 68.1636 9.68001 67.6586 8.91982C67.1536 8.15962 66.4367 7.56433 65.5966 7.20774C56.3827 3.36202 46.4838 1.42796 36.5 1.52286C26.5162 1.42796 16.6173 3.36202 7.40342 7.20774C6.56333 7.56433 5.84635 8.15962 5.34136 8.91982C4.83636 9.68001 4.56556 10.5717 4.5625 11.4843Z" fill="#EAEFE0"/>
<path d="M36.5 1.52286C26.5162 1.42796 16.6173 3.36202 7.40342 7.20774C6.56333 7.56433 5.84635 8.15962 5.34136 8.91982C4.83636 9.68001 4.56556 10.5717 4.5625 11.4843V34.7135C4.65187 42.3891 7.09797 49.8518 11.5695 56.091C16.0411 62.3302 22.3221 67.0444 29.562 69.5954L32.9717 70.8546C34.1019 71.2688 35.2962 71.4809 36.5 71.4812V1.52286Z" fill="white"/>
<path d="M4.5625 11.4843V34.7135C4.65187 42.3891 7.09797 49.8518 11.5695 56.091C16.0411 62.3302 22.3221 67.0445 29.562 69.5954L32.9717 70.8546C35.2495 71.6911 37.7505 71.6911 40.0283 70.8546L43.438 69.5954C50.6779 67.0445 56.9589 62.3302 61.4305 56.091C65.902 49.8518 68.3481 42.3891 68.4375 34.7135V11.4843C68.4344 10.5717 68.1636 9.68001 67.6586 8.91982C67.1536 8.15962 66.4367 7.56433 65.5966 7.20774C56.3827 3.36202 46.4838 1.42796 36.5 1.52286C26.5162 1.42796 16.6173 3.36202 7.40342 7.20774C6.56333 7.56433 5.84635 8.15962 5.34136 8.91982C4.83636 9.68001 4.56556 10.5717 4.5625 11.4843Z" stroke="#00303E" stroke-width="3.04167" stroke-linecap="round" stroke-linejoin="round"/>
<path d="M56.3245 33.3856C56.3261 35.9905 55.8145 38.5701 54.819 40.9772C53.8234 43.3843 52.3634 45.5717 50.5224 47.4145C48.6813 49.2572 46.4953 50.7192 44.0891 51.717C41.6829 52.7147 39.1038 53.2287 36.4989 53.2295C31.2129 53.1414 26.1756 50.9692 22.4831 47.1857C18.7907 43.4021 16.742 38.3133 16.7828 33.0267C16.7848 27.9723 18.7662 23.1197 22.3025 19.5084C25.8388 15.897 30.6487 13.8142 35.702 13.7061C35.9879 13.6939 36.2738 13.6878 36.5597 13.6878C39.1537 13.6733 41.7248 14.1725 44.125 15.1564C46.5251 16.1404 48.7067 17.5897 50.5441 19.4208C52.3814 21.252 53.8381 23.4286 54.8302 25.8254C55.8223 28.2222 56.3302 30.7917 56.3245 33.3856Z" fill="#A2D141"/>
<path d="M35.7014 13.7058C30.6484 13.8147 25.8389 15.8978 22.3028 19.5089C18.7667 23.1201 16.785 27.9723 16.7822 33.0265C16.781 36.203 17.5215 39.336 18.9449 42.1758C21.5537 43.4455 24.4172 44.105 27.3186 44.1042C30.6757 44.0989 33.9767 43.2426 36.913 41.6151C39.8494 39.9877 42.3251 37.6423 44.1088 34.7982C45.8926 31.9541 46.9261 28.7042 47.1127 25.3522C47.2994 22.0003 46.6331 18.6557 45.1762 15.6312C42.4869 14.3457 39.5429 13.6815 36.5622 13.6875C36.2732 13.6875 35.9873 13.6875 35.7014 13.7058Z" fill="#EAEFE0"/>
<path d="M56.3245 33.3856C56.3261 35.9905 55.8145 38.5701 54.819 40.9772C53.8234 43.3843 52.3634 45.5717 50.5224 47.4145C48.6813 49.2572 46.4953 50.7192 44.0891 51.717C41.6829 52.7147 39.1038 53.2287 36.4989 53.2295C31.2129 53.1414 26.1756 50.9692 22.4831 47.1857C18.7907 43.4021 16.742 38.3133 16.7828 33.0267C16.7848 27.9723 18.7662 23.1197 22.3025 19.5084C25.8388 15.897 30.6487 13.8142 35.702 13.7061C35.9879 13.6939 36.2738 13.6878 36.5597 13.6878C39.1537 13.6733 41.7248 14.1725 44.125 15.1564C46.5251 16.1404 48.7067 17.5897 50.5441 19.4208C52.3814 21.252 53.8381 23.4287 54.8302 25.8254C55.8223 28.2222 56.3301 30.7917 56.3245 33.3856Z" stroke="#00303E" stroke-width="3.04167" stroke-linecap="round" stroke-linejoin="round"/>
<path d="M35.7015 13.7109C25.3872 24.886 25.3872 39.4678 35.7015 53.2222" stroke="#00303E" stroke-width="3.04167" stroke-linecap="round" stroke-linejoin="round"/>
<path d="M37.4121 13.7109C47.7294 24.886 47.7294 39.4617 37.4121 53.2161" stroke="#00303E" stroke-width="3.04167" stroke-linecap="round" stroke-linejoin="round"/>
<path d="M16.7295 33.457H56.2712" stroke="#00303E" stroke-width="3.04167" stroke-linecap="round" stroke-linejoin="round"/>
</g>
<defs>
<clipPath id="clip0_53036_58868">
<rect width="73" height="73" fill="white"/>
</clipPath>
</defs>
</svg>
