<svg width="16" height="16" viewBox="0 0 16 16" fill="none" xmlns="http://www.w3.org/2000/svg">
<path d="M3.47039 4.96839H4.9723C5.30702 4.96839 5.57836 5.23973 5.57836 5.57445C5.57836 5.90917 5.30702 6.18051 4.9723 6.18051H2.54806C1.87862 6.18051 1.33594 5.63783 1.33594 4.96839V2.54415C1.33594 2.20943 1.60728 1.93809 1.942 1.93809C2.27672 1.93809 2.54806 2.20943 2.54806 2.54415V4.1656C3.31747 3.0707 4.40297 2.22703 5.66837 1.75403C7.19248 1.18433 8.87232 1.19168 10.3914 1.7747C11.9105 2.35772 13.1639 3.47616 13.9154 4.91928C14.667 6.3624 14.8649 8.03057 14.4717 9.60946C14.0786 11.1884 13.1216 12.569 11.7811 13.4912C10.4406 14.4134 8.80904 14.8135 7.19395 14.6161C5.57886 14.4188 4.09171 13.6375 3.01269 12.4197C2.06817 11.3536 1.49347 10.0174 1.36397 8.6095C1.33331 8.27618 1.60997 8.00405 1.94469 8.00377C2.27941 8.00349 2.55018 8.27544 2.58761 8.60806C2.71253 9.7183 3.17662 10.7688 3.92398 11.6123C4.80594 12.6077 6.0215 13.2463 7.34163 13.4076C8.66177 13.5689 9.99532 13.2419 11.091 12.4881C12.1868 11.7343 12.969 10.6058 13.2903 9.31529C13.6116 8.02475 13.4499 6.66123 12.8356 5.48166C12.2213 4.30209 11.1968 3.38791 9.95513 2.91136C8.71349 2.43482 7.34043 2.42881 6.09466 2.89447C5.03901 3.28907 4.13653 3.99927 3.50559 4.92129C3.49446 4.93756 3.48271 4.95327 3.47039 4.96839Z" fill="currentColor"/>
</svg>
