<svg width="16" height="16" viewBox="0 0 16 16" fill="none" xmlns="http://www.w3.org/2000/svg">
<path fill-rule="evenodd" clip-rule="evenodd" d="M5.33464 0.666016C6.43921 0.666016 7.33464 1.56145 7.33464 2.66602V5.33268C7.33464 6.43725 6.43921 7.33268 5.33464 7.33268H2.66797C1.5634 7.33268 0.667969 6.43725 0.667969 5.33268V2.66602C0.667969 1.56145 1.5634 0.666016 2.66797 0.666016H5.33464ZM5.33464 1.99935C5.70283 1.99935 6.0013 2.29783 6.0013 2.66602V5.33268C6.0013 5.70087 5.70283 5.99935 5.33464 5.99935H2.66797C2.29978 5.99935 2.0013 5.70087 2.0013 5.33268V2.66602C2.0013 2.29783 2.29978 1.99935 2.66797 1.99935H5.33464Z" fill="currentColor"/>
<path fill-rule="evenodd" clip-rule="evenodd" d="M5.33464 8.66602C6.43921 8.66602 7.33464 9.56145 7.33464 10.666V13.3327C7.33464 14.4373 6.43921 15.3327 5.33464 15.3327H2.66797C1.5634 15.3327 0.667969 14.4373 0.667969 13.3327V10.666C0.667969 9.56145 1.5634 8.66602 2.66797 8.66602H5.33464ZM5.33464 9.99935C5.70283 9.99935 6.0013 10.2978 6.0013 10.666V13.3327C6.0013 13.7009 5.70283 13.9993 5.33464 13.9993H2.66797C2.29978 13.9993 2.0013 13.7009 2.0013 13.3327V10.666C2.0013 10.2978 2.29978 9.99935 2.66797 9.99935H5.33464Z" fill="currentColor"/>
<path fill-rule="evenodd" clip-rule="evenodd" d="M15.3346 2.66602C15.3346 1.56145 14.4392 0.666016 13.3346 0.666016H10.668C9.5634 0.666016 8.66797 1.56145 8.66797 2.66602V5.33268C8.66797 6.43725 9.5634 7.33268 10.668 7.33268H13.3346C14.4392 7.33268 15.3346 6.43725 15.3346 5.33268V2.66602ZM14.0013 2.66602C14.0013 2.29783 13.7028 1.99935 13.3346 1.99935H10.668C10.2998 1.99935 10.0013 2.29783 10.0013 2.66602V5.33268C10.0013 5.70087 10.2998 5.99935 10.668 5.99935H13.3346C13.7028 5.99935 14.0013 5.70087 14.0013 5.33268V2.66602Z" fill="currentColor"/>
<path fill-rule="evenodd" clip-rule="evenodd" d="M13.3346 8.66602C14.4392 8.66602 15.3346 9.56145 15.3346 10.666V13.3327C15.3346 14.4373 14.4392 15.3327 13.3346 15.3327H10.668C9.5634 15.3327 8.66797 14.4373 8.66797 13.3327V10.666C8.66797 9.56145 9.5634 8.66602 10.668 8.66602H13.3346ZM13.3346 9.99935C13.7028 9.99935 14.0013 10.2978 14.0013 10.666V13.3327C14.0013 13.7009 13.7028 13.9993 13.3346 13.9993H10.668C10.2998 13.9993 10.0013 13.7009 10.0013 13.3327V10.666C10.0013 10.2978 10.2998 9.99935 10.668 9.99935H13.3346Z" fill="currentColor"/>
</svg>
