<svg width="16" height="16" viewBox="0 0 16 16" fill="none" xmlns="http://www.w3.org/2000/svg">
<g clip-path="url(#clip0_55258_8351)">
<path d="M11.5 9.75C11.0168 9.75 10.625 10.1418 10.625 10.625V13.25H2.75V5.375H5.375C5.85816 5.375 6.25 4.98344 6.25 4.5C6.25 4.01656 5.85816 3.625 5.375 3.625H2.75C1.7834 3.625 1 4.4084 1 5.375V13.25C1 14.2163 1.7834 15 2.75 15H10.625C11.5916 15 12.375 14.2163 12.375 13.25V10.625C12.375 10.141 11.984 9.75 11.5 9.75ZM14.3438 1H10.625C10.2712 1 9.9518 1.2132 9.81672 1.54004C9.68085 1.86734 9.75604 2.24332 10.0064 2.49379L11.1391 3.625L5.63203 9.13203C5.29023 9.47383 5.29023 10.0275 5.63203 10.3693C5.80156 10.5402 6.02578 10.625 6.25 10.625C6.47422 10.625 6.69789 10.5396 6.86852 10.3687L12.375 4.86367L13.5065 5.99516C13.7568 6.24511 14.1321 6.31891 14.4602 6.18487C14.7867 6.04766 15 5.72773 15 5.375V1.65625C15 1.29367 14.7074 1 14.3438 1Z" fill="currentColor"/>
</g>
<defs>
<clipPath id="clip0_55258_8351">
<rect width="14" height="14" fill="white" transform="translate(1 1)"/>
</clipPath>
</defs>
</svg>
