<svg width="16" height="16" viewBox="0 0 16 16" fill="none" xmlns="http://www.w3.org/2000/svg">
<path fill-rule="evenodd" clip-rule="evenodd" d="M8.09091 1C5.67656 1 4.36912 2.29109 3.7021 3.56922C3.37609 4.1939 3.20251 4.81149 3.10974 5.26821C3.06307 5.49798 3.03609 5.69083 3.02065 5.82864C3.01093 5.91538 3 6.00351 3 6.09091C3 7.82333 3.7841 8.83599 4.46012 9.37037C4.79642 9.63622 4.9836 9.90843 5.01349 10.1476L5.41101 13.3277C5.53043 14.2831 6.34256 15 7.30536 15H8.87646C9.83926 15 10.6514 14.2831 10.7708 13.3277L11.1683 10.1476C11.1982 9.90843 11.3854 9.63622 11.7217 9.37037C12.3977 8.83599 13.1818 7.82333 13.1818 6.09091C13.1818 6.00351 13.1709 5.91538 13.1612 5.82864C13.1457 5.69083 13.1187 5.49798 13.0721 5.26821C12.9793 4.81149 12.8057 4.1939 12.4797 3.56922C11.8127 2.29109 10.5053 1 8.09091 1ZM5.24938 8.37192C4.55153 7.82028 4.18693 6.84975 4.28546 5.97036C4.29732 5.86457 4.31884 5.7094 4.357 5.52156C4.43388 5.14305 4.57525 4.64701 4.83042 4.15806C5.32575 3.20891 6.24559 2.27273 8.09091 2.27273C9.93623 2.27273 10.8561 3.20891 11.3514 4.15806C11.6066 4.64701 11.7479 5.14305 11.8248 5.52156C11.863 5.7094 11.8845 5.86457 11.8964 5.97036C11.9949 6.84976 11.6303 7.82028 10.9324 8.37193C10.4997 8.71397 9.99712 9.25615 9.90543 9.9897L9.75641 11.1818H6.42541L6.27639 9.9897C6.1847 9.25615 5.68208 8.71397 5.24938 8.37192ZM6.5845 12.4545L6.67391 13.1698C6.71372 13.4883 6.98443 13.7273 7.30536 13.7273H8.87646C9.19739 13.7273 9.4681 13.4883 9.50791 13.1698L9.59732 12.4545H6.5845Z" fill="currentColor"/>
</svg>
