<svg width="24" height="24" viewBox="0 0 24 24" fill="none" xmlns="http://www.w3.org/2000/svg">
<path d="M12.0049 3.81348C12.2848 3.81348 12.5625 3.85882 12.8271 3.94629L13.0879 4.04785L13.0957 4.05176L13.2207 4.12012C13.5055 4.28958 13.7484 4.52214 13.9316 4.7998L13.9355 4.80566L21.8232 17.6729H21.8242C21.9967 17.944 22.0774 18.2635 22.0547 18.584C22.0338 18.9004 21.918 19.2033 21.7227 19.4531L21.7197 19.4561C21.5227 19.6979 21.2705 19.8895 20.9844 20.0137L20.9834 20.0127C20.7101 20.1329 20.4157 20.1976 20.1172 20.2002H3.89453C3.58552 20.1996 3.27986 20.136 2.99609 20.0137L2.99219 20.0117C2.71206 19.8846 2.46521 19.6942 2.27051 19.4561L2.26855 19.4541C2.07098 19.205 1.95461 18.9013 1.93555 18.584L1.93164 18.4639C1.93388 18.2242 1.9934 17.9882 2.10547 17.7764L2.16602 17.6729L10.0547 4.80566L10.0586 4.79785H10.0596C10.2749 4.4779 10.5706 4.22044 10.917 4.05078L10.9229 4.04785C11.2628 3.89366 11.6316 3.81351 12.0049 3.81348ZM12.0049 5.2002C11.8374 5.20172 11.672 5.23907 11.5205 5.31055L11.5166 5.3125C11.4103 5.36 11.3198 5.43697 11.2559 5.53418L3.35547 18.4043L3.35352 18.4072C3.34566 18.4196 3.34023 18.4332 3.33691 18.4473L3.33398 18.4902L3.33496 18.5029L3.34375 18.543L3.36523 18.5771L3.37207 18.585L3.37793 18.5938C3.40979 18.6379 3.45122 18.6741 3.49902 18.6992L3.5498 18.7207L3.55859 18.7236L3.64648 18.7588C3.72679 18.7856 3.81147 18.7994 3.89648 18.7998H20.1133C20.2004 18.7989 20.2868 18.7861 20.3701 18.7617L20.4521 18.7334C20.5246 18.7029 20.5878 18.6539 20.6348 18.5908L20.6396 18.584L20.6455 18.5771C20.6636 18.5565 20.6737 18.5303 20.6748 18.5029L20.6758 18.4902L20.6729 18.4473C20.6695 18.4332 20.6641 18.4196 20.6562 18.4072L20.6543 18.4043L12.7568 5.53809C12.6927 5.43903 12.6009 5.36063 12.4932 5.3125L12.4893 5.31055V5.30957C12.3378 5.23826 12.1723 5.20166 12.0049 5.2002ZM12.0938 15.4043C12.2464 15.4173 12.3942 15.4617 12.5273 15.5352L12.6553 15.6182L12.6572 15.6201L12.7363 15.6885C12.8117 15.7617 12.8743 15.8476 12.9209 15.9424C12.9828 16.0685 13.0146 16.2072 13.0146 16.3477V16.3486C13.0143 16.5641 12.9365 16.7714 12.7969 16.9355L12.7979 16.9365C12.6763 17.0815 12.5167 17.1895 12.3369 17.248L12.332 17.25C12.226 17.2814 12.1152 17.293 12.0049 17.2871V17.2881H11.8506L11.8359 17.2861C11.6579 17.2601 11.4899 17.1869 11.3496 17.0742C11.1888 16.9454 11.0739 16.7676 11.0215 16.5684L11.0205 16.5645C10.9696 16.3498 10.9965 16.1233 11.0967 15.9268L11.0996 15.9209C11.1923 15.7536 11.3307 15.6162 11.498 15.5234L11.5039 15.5195C11.6856 15.4265 11.8903 15.387 12.0938 15.4043ZM12.0049 8.7998C12.1905 8.7998 12.3687 8.87361 12.5 9.00488C12.6313 9.13616 12.7051 9.31435 12.7051 9.5V13.5C12.7051 13.6857 12.6313 13.8638 12.5 13.9951C12.3687 14.1264 12.1905 14.2002 12.0049 14.2002C11.8192 14.2002 11.641 14.1264 11.5098 13.9951C11.3785 13.8638 11.3047 13.6857 11.3047 13.5V9.5C11.3047 9.31435 11.3785 9.13616 11.5098 9.00488C11.641 8.87361 11.8192 8.7998 12.0049 8.7998Z" fill="currentColor" stroke="currentColor" stroke-width="0.4"/>
</svg>
