<svg width="38" height="38" viewBox="0 0 38 38" fill="none" xmlns="http://www.w3.org/2000/svg">
<path fill-rule="evenodd" clip-rule="evenodd" d="M15.0356 11.2919C14.5455 11.0119 13.9434 11.0139 13.4553 11.2972C12.9671 11.5805 12.6667 12.1023 12.6667 12.6667V25.3333C12.6667 25.8977 12.9671 26.4195 13.4553 26.7028C13.9434 26.9861 14.5455 26.9881 15.0356 26.7081L26.1189 20.3747C26.6122 20.0928 26.9167 19.5682 26.9167 19C26.9167 18.4318 26.6122 17.9072 26.1189 17.6253L15.0356 11.2919ZM22.142 19L15.8333 22.605V15.395L22.142 19Z" fill="currentColor"/>
<path fill-rule="evenodd" clip-rule="evenodd" d="M0 19C0 13.0629 0 10.0944 1.51195 8.01337C2.00025 7.34128 2.59128 6.75025 3.26337 6.26195C5.34439 4.75 8.31292 4.75 14.25 4.75H23.75C29.6871 4.75 32.6556 4.75 34.7366 6.26195C35.4087 6.75025 35.9998 7.34128 36.4881 8.01337C38 10.0944 38 13.0629 38 19C38 24.9371 38 27.9056 36.4881 29.9866C35.9998 30.6587 35.4087 31.2498 34.7366 31.7381C32.6556 33.25 29.6871 33.25 23.75 33.25H14.25C8.31292 33.25 5.34439 33.25 3.26337 31.7381C2.59128 31.2498 2.00025 30.6587 1.51195 29.9866C0 27.9056 0 24.9371 0 19ZM14.25 7.91667H23.75C26.7891 7.91667 28.814 7.92101 30.3482 8.08724C31.8232 8.24704 32.4646 8.52543 32.8753 8.82384C33.2786 9.11681 33.6332 9.47144 33.9262 9.87469C34.2246 10.2854 34.503 10.9268 34.6628 12.4018C34.829 13.936 34.8333 15.9609 34.8333 19C34.8333 22.0391 34.829 24.064 34.6628 25.5982C34.503 27.0732 34.2246 27.7146 33.9262 28.1253C33.6332 28.5286 33.2786 28.8832 32.8753 29.1762C32.4646 29.4746 31.8232 29.753 30.3482 29.9128C28.814 30.079 26.7891 30.0833 23.75 30.0833H14.25C11.2109 30.0833 9.18598 30.079 7.65175 29.9128C6.17679 29.753 5.53541 29.4746 5.12469 29.1762C4.72144 28.8832 4.36681 28.5286 4.07384 28.1253C3.77543 27.7146 3.49704 27.0732 3.33724 25.5982C3.17101 24.064 3.16667 22.0391 3.16667 19C3.16667 15.9609 3.17101 13.936 3.33724 12.4018C3.49704 10.9268 3.77543 10.2854 4.07384 9.87469C4.36681 9.47144 4.72144 9.11681 5.12469 8.82384C5.53541 8.52543 6.17679 8.24704 7.65175 8.08724C9.18598 7.92101 11.2109 7.91667 14.25 7.91667Z" fill="currentColor"/>
</svg>
