<svg width="167" height="59" viewBox="0 0 167 59" fill="none" xmlns="http://www.w3.org/2000/svg">
<path d="M71.4115 43.4324H68.3829C68.3301 43.5819 68.2744 43.7461 68.2129 43.925C68.1513 44.1038 68.0956 44.2738 68.037 44.4439C67.9812 44.6139 67.9255 44.7723 67.8728 44.9189C67.82 45.0654 67.7789 45.1886 67.7496 45.2853C67.6441 45.3293 67.521 45.3528 67.3773 45.3528C67.2571 45.3528 67.1486 45.3205 67.0548 45.256C66.961 45.1915 66.9141 45.0889 66.9141 44.9452C66.9141 44.8778 66.9258 44.8074 66.9492 44.7371C66.9727 44.6667 66.9991 44.5876 67.0284 44.5055C67.1427 44.1888 67.2864 43.7813 67.4623 43.2858C67.6382 42.7874 67.8317 42.2597 68.037 41.6997C68.2451 41.1397 68.4562 40.5739 68.6702 40.0051C68.8842 39.4363 69.0836 38.9262 69.2625 38.4747C69.324 38.4454 69.412 38.4161 69.5322 38.3838C69.6524 38.3545 69.7755 38.3398 69.9045 38.3398C70.054 38.3398 70.2006 38.3633 70.3384 38.4073C70.4762 38.4513 70.5671 38.5275 70.6023 38.633C70.7841 39.0699 70.9776 39.5683 71.1828 40.1312C71.391 40.6912 71.5991 41.2658 71.8102 41.8551C72.0213 42.4415 72.2236 43.019 72.4142 43.5878C72.6047 44.1566 72.7777 44.6696 72.9272 45.1299C72.8657 45.1974 72.7953 45.2531 72.7132 45.2941C72.6311 45.3352 72.5373 45.3557 72.4318 45.3557C72.2881 45.3557 72.1796 45.3234 72.1034 45.2589C72.0272 45.1944 71.9627 45.0889 71.9128 44.9364L71.4115 43.4324ZM69.8957 39.105C69.8136 39.3308 69.7198 39.5888 69.6143 39.8791C69.5087 40.1693 69.4002 40.4713 69.2859 40.7879C69.1716 41.1045 69.0602 41.4241 68.9458 41.7466C68.8315 42.0721 68.7259 42.3799 68.6292 42.6731H71.1711C71.0567 42.333 70.9424 41.9929 70.8222 41.6499C70.702 41.3068 70.5876 40.9785 70.4792 40.6618C70.3707 40.3452 70.2681 40.055 70.1742 39.7852C70.0804 39.5184 70.0042 39.2898 69.9426 39.1021H69.8957V39.105Z" fill="#113525"/>
<path d="M79.1032 45.17C79.0651 45.2081 78.9947 45.2404 78.8892 45.2726C78.7836 45.302 78.6663 45.3166 78.5403 45.3166C78.3966 45.3166 78.2705 45.2961 78.1562 45.255C78.0419 45.214 77.9686 45.1524 77.9304 45.0674C77.8337 44.871 77.7164 44.6188 77.5874 44.311C77.4555 44.0032 77.3177 43.6572 77.1682 43.279C77.0216 42.8979 76.8721 42.4991 76.7167 42.077C76.5613 41.6548 76.4147 41.2385 76.271 40.8221C76.1274 40.4087 75.9925 40.0071 75.8635 39.6201C75.7345 39.2331 75.626 38.8842 75.5352 38.5764C75.5791 38.5148 75.6495 38.4591 75.7374 38.4063C75.8283 38.3535 75.9309 38.3271 76.0424 38.3271C76.186 38.3271 76.2916 38.3623 76.359 38.4298C76.4264 38.4972 76.4821 38.5998 76.529 38.7347C76.8691 39.7198 77.1916 40.6726 77.4995 41.5932C77.8073 42.5109 78.1474 43.4461 78.5168 44.396H78.5608C78.725 43.968 78.8979 43.5106 79.0739 43.0239C79.2498 42.5372 79.4257 42.0388 79.5928 41.5228C79.7628 41.0068 79.927 40.485 80.0912 39.9572C80.2525 39.4295 80.399 38.9135 80.5251 38.4092C80.6219 38.3565 80.7509 38.3301 80.9092 38.3301C81.044 38.3301 81.1525 38.3653 81.2375 38.4327C81.3196 38.5001 81.3607 38.6027 81.3607 38.7376C81.3607 38.8519 81.3167 39.063 81.2317 39.3767C81.1437 39.6904 81.0352 40.054 80.8975 40.4674C80.7626 40.8808 80.6101 41.3264 80.4401 41.8014C80.27 42.2763 80.1029 42.7307 79.9388 43.1676C79.7716 43.6044 79.6133 44.0032 79.4638 44.3638C79.3143 44.7185 79.1941 44.9912 79.1032 45.17Z" fill="#113525"/>
<path d="M84.1227 39.8965C84.7765 39.8965 85.2984 40.0431 85.6824 40.3363C86.0665 40.6294 86.2571 41.0927 86.2571 41.7259V44.4027C86.2571 44.5669 86.2248 44.6959 86.1603 44.7809C86.0958 44.8689 85.9991 44.948 85.873 45.0242C85.6912 45.1298 85.4538 45.2207 85.1547 45.2998C84.8586 45.379 84.5156 45.4171 84.1315 45.4171C83.4249 45.4171 82.8767 45.2764 82.4868 44.9979C82.0998 44.7193 81.9062 44.3177 81.9062 43.7899C81.9062 43.2915 82.0675 42.9192 82.3929 42.6671C82.7154 42.4149 83.1728 42.2595 83.7592 42.198L85.3629 42.0396V41.723C85.3629 41.3477 85.2485 41.0721 85.0228 40.8992C84.797 40.7262 84.4921 40.6382 84.1081 40.6382C83.7914 40.6382 83.4953 40.6822 83.2168 40.7731C82.9383 40.864 82.6891 40.9637 82.4721 41.078C82.4105 41.0252 82.3578 40.9637 82.3079 40.8962C82.2581 40.8288 82.2346 40.7526 82.2346 40.6705C82.2346 40.5649 82.261 40.4799 82.3138 40.4096C82.3666 40.3421 82.4486 40.2776 82.563 40.2161C82.7653 40.1105 82.9998 40.0284 83.2637 39.9727C83.5275 39.9258 83.8149 39.8965 84.1227 39.8965ZM84.1344 44.6754C84.4511 44.6754 84.712 44.6431 84.9202 44.5786C85.1283 44.5141 85.2749 44.4525 85.3658 44.391V42.7521L83.9644 42.8987C83.5715 42.9368 83.2842 43.0247 83.0936 43.1655C82.906 43.3062 82.8122 43.5085 82.8122 43.7811C82.8122 44.0685 82.9207 44.2884 83.1406 44.4408C83.3575 44.5991 83.6888 44.6754 84.1344 44.6754Z" fill="#113525"/>
<path d="M88.6325 45.2412C88.5944 45.2559 88.5387 45.2734 88.4625 45.291C88.3862 45.3086 88.3041 45.3204 88.2132 45.3204C87.8907 45.3204 87.7266 45.1855 87.7266 44.9128V41.0839C87.7266 40.9109 87.7588 40.7731 87.8233 40.6705C87.8878 40.5679 87.9934 40.4682 88.1458 40.3714C88.3423 40.2424 88.6061 40.134 88.9433 40.0372C89.2775 39.9434 89.6557 39.8965 90.0779 39.8965C90.6789 39.8965 90.9809 40.046 90.9809 40.348C90.9809 40.4242 90.9692 40.4916 90.9457 40.5561C90.9223 40.6206 90.8929 40.6734 90.8548 40.7203C90.7786 40.7057 90.6818 40.691 90.5616 40.6764C90.4414 40.6617 90.3212 40.6529 90.201 40.6529C89.8551 40.6529 89.5502 40.6881 89.2863 40.7614C89.0224 40.8317 88.8055 40.9168 88.6325 41.0164V45.2412Z" fill="#113525"/>
<path d="M96.2271 44.4022C96.2271 44.5518 96.1949 44.669 96.1304 44.7511C96.0659 44.8332 95.9662 44.9153 95.8313 45.0003C95.6818 45.0971 95.4648 45.1909 95.1863 45.2759C94.9078 45.3639 94.5882 45.4049 94.2276 45.4049C93.8201 45.4049 93.4477 45.3521 93.1106 45.2466C92.7705 45.141 92.4802 44.9769 92.234 44.754C91.9906 44.5312 91.8001 44.2498 91.6681 43.9068C91.5362 43.5637 91.4688 43.1503 91.4688 42.6695C91.4688 42.1799 91.5362 41.7607 91.671 41.4088C91.8059 41.057 91.9877 40.7697 92.2193 40.5439C92.448 40.3182 92.7206 40.154 93.0314 40.0455C93.3451 39.94 93.6764 39.8872 94.0312 39.8872C94.2716 39.8872 94.5061 39.9165 94.7319 39.9781C94.9576 40.0397 95.1541 40.113 95.3182 40.2039V37.9346C95.3563 37.92 95.415 37.9024 95.4941 37.8848C95.5733 37.8672 95.6554 37.8555 95.7375 37.8555C96.06 37.8555 96.2242 37.9903 96.2242 38.263V44.4022H96.2271ZM95.3241 41.0248C95.1746 40.9192 94.9987 40.8283 94.8052 40.755C94.6117 40.6817 94.383 40.6407 94.1279 40.6407C93.8934 40.6407 93.6735 40.6759 93.4683 40.7492C93.263 40.8225 93.0783 40.9368 92.92 41.0981C92.7617 41.2593 92.6356 41.4733 92.5418 41.7372C92.448 42.0011 92.4011 42.3206 92.4011 42.6959C92.4011 43.3878 92.5653 43.8892 92.8995 44.197C93.2308 44.5048 93.6706 44.6602 94.2217 44.6602C94.4856 44.6602 94.7026 44.6309 94.8726 44.5752C95.0426 44.5195 95.1951 44.4491 95.33 44.367V41.0248H95.3241Z" fill="#113525"/>
<path d="M99.6266 39.8965C100.28 39.8965 100.802 40.0431 101.186 40.3363C101.57 40.6294 101.761 41.0927 101.761 41.7259V44.4027C101.761 44.5669 101.729 44.6959 101.664 44.7809C101.6 44.8689 101.503 44.948 101.377 45.0242C101.195 45.1298 100.958 45.2207 100.659 45.2998C100.362 45.379 100.019 45.4171 99.6354 45.4171C98.9288 45.4171 98.3806 45.2764 97.9907 44.9979C97.6037 44.7193 97.4102 44.3177 97.4102 43.7899C97.4102 43.2915 97.5714 42.9192 97.8968 42.6671C98.2193 42.4149 98.6767 42.2595 99.2631 42.198L100.867 42.0396V41.723C100.867 41.3477 100.752 41.0721 100.527 40.8992C100.301 40.7262 99.996 40.6382 99.6119 40.6382C99.2953 40.6382 98.9992 40.6822 98.7207 40.7731C98.4422 40.864 98.193 40.9637 97.976 41.078C97.9144 41.0252 97.8617 40.9637 97.8118 40.8962C97.762 40.8288 97.7385 40.7526 97.7385 40.6705C97.7385 40.5649 97.7649 40.4799 97.8177 40.4096C97.8704 40.3421 97.9525 40.2776 98.0669 40.2161C98.2692 40.1105 98.5037 40.0284 98.7676 39.9727C99.0315 39.9258 99.3188 39.8965 99.6266 39.8965ZM99.6383 44.6754C99.955 44.6754 100.216 44.6431 100.424 44.5786C100.632 44.5141 100.779 44.4525 100.87 44.391V42.7521L99.4683 42.8987C99.0754 42.9368 98.7881 43.0247 98.5975 43.1655C98.4099 43.3062 98.3161 43.5085 98.3161 43.7811C98.3161 44.0685 98.4246 44.2884 98.6445 44.4408C98.8614 44.5991 99.1927 44.6754 99.6383 44.6754Z" fill="#113525"/>
<path d="M109.015 43.872C109.015 44.3529 108.839 44.7311 108.484 45.0008C108.129 45.2705 107.619 45.4083 106.948 45.4083C106.66 45.4083 106.397 45.3849 106.156 45.335C105.916 45.2852 105.71 45.2236 105.54 45.1444C105.37 45.0653 105.238 44.9744 105.145 44.8747C105.051 44.7721 105.004 44.6695 105.004 44.5639C105.004 44.4731 105.027 44.388 105.077 44.303C105.127 44.2209 105.2 44.1476 105.297 44.089C105.499 44.2385 105.737 44.3734 106.01 44.4906C106.279 44.6079 106.59 44.6666 106.936 44.6666C107.719 44.6666 108.112 44.4027 108.112 43.875C108.112 43.4469 107.851 43.1684 107.332 43.0394L106.394 42.7902C105.933 42.67 105.599 42.4941 105.388 42.2654C105.177 42.0367 105.071 41.7406 105.071 41.38C105.071 41.1836 105.109 40.9959 105.189 40.8141C105.268 40.6324 105.391 40.4741 105.555 40.3392C105.719 40.2043 105.927 40.0958 106.171 40.0167C106.414 39.9375 106.704 39.8994 107.036 39.8994C107.563 39.8994 107.989 39.9756 108.311 40.131C108.634 40.2864 108.798 40.4653 108.798 40.6676C108.798 40.7643 108.774 40.8523 108.724 40.9285C108.675 41.0047 108.61 41.0604 108.525 41.0985C108.39 41.0076 108.197 40.9109 107.95 40.8053C107.701 40.6998 107.408 40.647 107.068 40.647C106.728 40.647 106.461 40.7115 106.262 40.8376C106.062 40.9666 105.963 41.1454 105.963 41.38C105.963 41.553 106.018 41.6996 106.133 41.8198C106.247 41.94 106.435 42.0308 106.698 42.0895L107.478 42.2801C107.991 42.4091 108.376 42.5996 108.631 42.8518C108.886 43.1039 109.015 43.444 109.015 43.872Z" fill="#113525"/>
<path d="M115.113 42.6514C115.113 43.0736 115.052 43.4547 114.931 43.7919C114.811 44.132 114.638 44.4193 114.418 44.6626C114.195 44.9031 113.926 45.0878 113.612 45.2168C113.295 45.3458 112.941 45.4073 112.551 45.4073C112.158 45.4073 111.806 45.3428 111.489 45.2168C111.173 45.0878 110.903 44.9031 110.677 44.6626C110.452 44.4222 110.279 44.132 110.158 43.7919C110.038 43.4518 109.977 43.0736 109.977 42.6514C109.977 42.2292 110.038 41.8481 110.164 41.5109C110.287 41.1708 110.463 40.8835 110.689 40.6402C110.915 40.3998 111.187 40.2151 111.501 40.0861C111.818 39.9571 112.167 39.8926 112.551 39.8926C112.935 39.8926 113.284 39.9571 113.6 40.0861C113.917 40.2151 114.187 40.3998 114.407 40.6402C114.629 40.8806 114.802 41.1708 114.925 41.5109C115.052 41.851 115.113 42.2292 115.113 42.6514ZM112.551 40.6402C112.038 40.6402 111.636 40.8161 111.343 41.1708C111.05 41.5256 110.903 42.0181 110.903 42.6514C110.903 43.2906 111.047 43.786 111.337 44.1379C111.627 44.4867 112.032 44.6626 112.551 44.6626C113.07 44.6626 113.474 44.4867 113.759 44.132C114.046 43.7772 114.187 43.2847 114.187 42.6514C114.187 42.0181 114.043 41.5256 113.753 41.1708C113.463 40.819 113.061 40.6402 112.551 40.6402Z" fill="#113525"/>
<path d="M116.266 38.3959C116.266 38.2376 116.321 38.1057 116.43 37.9943C116.538 37.8858 116.679 37.8301 116.855 37.8301C117.028 37.8301 117.166 37.8858 117.271 37.9943C117.377 38.1027 117.43 38.2376 117.43 38.3959C117.43 38.5542 117.377 38.6891 117.271 38.7976C117.166 38.9061 117.028 38.9618 116.855 38.9618C116.682 38.9618 116.541 38.9061 116.43 38.7976C116.321 38.6862 116.266 38.5542 116.266 38.3959ZM117.306 45.2417C117.268 45.2564 117.213 45.274 117.136 45.2916C117.06 45.3092 116.978 45.3209 116.887 45.3209C116.562 45.3209 116.4 45.186 116.4 44.9134V40.0671C116.439 40.0524 116.497 40.0348 116.576 40.0172C116.656 39.9996 116.741 39.9879 116.831 39.9879C117.148 39.9879 117.306 40.1286 117.306 40.4072V45.2417Z" fill="#113525"/>
<path d="M119.748 45.2906C119.671 45.3082 119.589 45.3199 119.498 45.3199C119.173 45.3199 119.012 45.185 119.012 44.9124V37.9434C119.05 37.9288 119.108 37.9112 119.188 37.8936C119.267 37.876 119.349 37.8643 119.431 37.8643C119.753 37.8643 119.918 37.9991 119.918 38.2718V45.2407C119.88 45.2554 119.821 45.27 119.748 45.2906Z" fill="#113525"/>
<path d="M125.845 45.4083C125.582 45.4083 125.332 45.379 125.101 45.3174C124.866 45.2588 124.676 45.1855 124.523 45.1034V47.2935C124.485 47.3081 124.429 47.3257 124.353 47.3433C124.277 47.3609 124.195 47.3726 124.104 47.3726C123.781 47.3726 123.617 47.2319 123.617 46.9563V40.993C123.617 40.8435 123.644 40.7233 123.696 40.6324C123.749 40.5415 123.858 40.4477 124.025 40.3509C124.227 40.2366 124.47 40.134 124.752 40.0401C125.033 39.9463 125.356 39.8994 125.719 39.8994C126.089 39.8994 126.438 39.9522 126.763 40.0577C127.091 40.1633 127.373 40.3275 127.61 40.5503C127.848 40.7731 128.035 41.0575 128.176 41.4034C128.314 41.7494 128.384 42.1628 128.384 42.6465C128.384 43.1127 128.323 43.5202 128.197 43.8662C128.074 44.2121 127.898 44.4994 127.672 44.7311C127.446 44.9597 127.176 45.1327 126.866 45.2441C126.555 45.3526 126.215 45.4083 125.845 45.4083ZM125.722 44.6636C126.25 44.6636 126.672 44.5024 126.992 44.1828C127.311 43.8632 127.473 43.3502 127.473 42.6407C127.473 42.2713 127.426 41.9605 127.332 41.7025C127.238 41.4474 127.109 41.2393 126.948 41.0809C126.786 40.9226 126.599 40.8112 126.388 40.7409C126.177 40.6734 125.954 40.6382 125.722 40.6382C125.453 40.6382 125.221 40.6734 125.033 40.7409C124.846 40.8083 124.676 40.8845 124.526 40.9666V44.3001C124.67 44.4056 124.84 44.4907 125.033 44.561C125.23 44.6284 125.458 44.6636 125.722 44.6636Z" fill="#113525"/>
<path d="M130.443 45.2906C130.367 45.3082 130.285 45.3199 130.194 45.3199C129.868 45.3199 129.707 45.185 129.707 44.9124V37.9434C129.745 37.9288 129.804 37.9112 129.883 37.8936C129.962 37.876 130.044 37.8643 130.126 37.8643C130.449 37.8643 130.613 37.9991 130.613 38.2718V45.2407C130.575 45.2554 130.519 45.27 130.443 45.2906Z" fill="#113525"/>
<path d="M134.076 39.8965C134.73 39.8965 135.251 40.0431 135.636 40.3363C136.02 40.6294 136.21 41.0927 136.21 41.7259V44.4027C136.21 44.5669 136.178 44.6959 136.113 44.7809C136.049 44.8689 135.952 44.948 135.826 45.0242C135.644 45.1298 135.407 45.2207 135.108 45.2998C134.812 45.379 134.469 45.4171 134.085 45.4171C133.378 45.4171 132.83 45.2764 132.44 44.9979C132.053 44.7193 131.859 44.3177 131.859 43.7899C131.859 43.2915 132.021 42.9192 132.346 42.6671C132.669 42.4149 133.126 42.2595 133.712 42.198L135.316 42.0396V41.723C135.316 41.3477 135.202 41.0721 134.976 40.8992C134.75 40.7262 134.445 40.6382 134.061 40.6382C133.745 40.6382 133.448 40.6822 133.17 40.7731C132.891 40.864 132.642 40.9637 132.425 41.078C132.364 41.0252 132.311 40.9637 132.261 40.8962C132.211 40.8288 132.188 40.7526 132.188 40.6705C132.188 40.5649 132.214 40.4799 132.267 40.4096C132.32 40.3421 132.402 40.2776 132.516 40.2161C132.718 40.1105 132.953 40.0284 133.217 39.9727C133.481 39.9258 133.768 39.8965 134.076 39.8965ZM134.088 44.6754C134.404 44.6754 134.665 44.6431 134.873 44.5786C135.081 44.5141 135.228 44.4525 135.319 44.391V42.7521L133.918 42.8987C133.525 42.9368 133.237 43.0247 133.047 43.1655C132.859 43.3062 132.765 43.5085 132.765 43.7811C132.765 44.0685 132.874 44.2884 133.094 44.4408C133.311 44.5991 133.642 44.6754 134.088 44.6754Z" fill="#113525"/>
<path d="M139.481 45.4084C138.953 45.4084 138.525 45.2911 138.2 45.0595C137.871 44.825 137.707 44.438 137.707 43.8956V38.5303C137.745 38.5157 137.804 38.4981 137.883 38.4805C137.962 38.4629 138.047 38.4512 138.138 38.4512C138.455 38.4512 138.613 38.586 138.613 38.8587V40.1575H140.466C140.489 40.1956 140.51 40.2455 140.533 40.31C140.557 40.3745 140.568 40.4448 140.568 40.5181C140.568 40.7732 140.457 40.9022 140.228 40.9022H138.613V43.8399C138.613 44.1418 138.698 44.3529 138.868 44.479C139.038 44.6021 139.276 44.6666 139.586 44.6666C139.715 44.6666 139.856 44.6432 140.014 44.5992C140.173 44.5552 140.305 44.5025 140.41 44.4409C140.454 44.4849 140.498 44.5435 140.533 44.6109C140.571 44.6784 140.589 44.7575 140.589 44.8484C140.589 45.0155 140.492 45.1504 140.296 45.2559C140.096 45.3556 139.827 45.4084 139.481 45.4084Z" fill="#113525"/>
<path d="M142.641 40.3359H144.878C144.902 40.374 144.922 40.4239 144.946 40.4825C144.969 40.5441 144.981 40.6144 144.981 40.6965C144.981 40.9457 144.864 41.0689 144.632 41.0689H142.656V45.2379C142.618 45.2526 142.562 45.2702 142.486 45.2878C142.41 45.3053 142.328 45.3171 142.237 45.3171C141.911 45.3171 141.75 45.1822 141.75 44.9095V39.5795C141.75 38.9169 141.929 38.4361 142.287 38.14C142.644 37.8439 143.143 37.6943 143.782 37.6943C144.21 37.6943 144.547 37.75 144.793 37.8644C145.037 37.9758 145.16 38.1165 145.16 38.2807C145.16 38.4478 145.095 38.5856 144.969 38.6999C144.834 38.6237 144.664 38.5622 144.462 38.5123C144.26 38.4625 144.063 38.439 143.876 38.439C143.415 38.439 143.096 38.5328 142.917 38.7205C142.735 38.9081 142.647 39.2101 142.647 39.6235V40.3359H142.641Z" fill="#113525"/>
<path d="M150.57 42.6514C150.57 43.0736 150.509 43.4547 150.388 43.7919C150.268 44.132 150.095 44.4193 149.875 44.6626C149.652 44.9031 149.383 45.0878 149.069 45.2168C148.752 45.3458 148.398 45.4073 148.008 45.4073C147.615 45.4073 147.263 45.3428 146.946 45.2168C146.63 45.0878 146.36 44.9031 146.134 44.6626C145.909 44.4222 145.736 44.132 145.615 43.7919C145.495 43.4518 145.434 43.0736 145.434 42.6514C145.434 42.2292 145.495 41.8481 145.621 41.5109C145.744 41.1708 145.92 40.8835 146.146 40.6402C146.372 40.3998 146.644 40.2151 146.958 40.0861C147.275 39.9571 147.624 39.8926 148.008 39.8926C148.392 39.8926 148.741 39.9571 149.057 40.0861C149.374 40.2151 149.644 40.3998 149.864 40.6402C150.086 40.8806 150.259 41.1708 150.383 41.5109C150.509 41.851 150.57 42.2292 150.57 42.6514ZM148.005 40.6402C147.492 40.6402 147.09 40.8161 146.797 41.1708C146.504 41.5256 146.357 42.0181 146.357 42.6514C146.357 43.2906 146.501 43.786 146.791 44.1379C147.081 44.4867 147.486 44.6626 148.005 44.6626C148.524 44.6626 148.928 44.4867 149.213 44.132C149.5 43.7772 149.641 43.2847 149.641 42.6514C149.641 42.0181 149.497 41.5256 149.207 41.1708C148.92 40.819 148.518 40.6402 148.005 40.6402Z" fill="#113525"/>
<path d="M152.707 45.2412C152.669 45.2559 152.613 45.2734 152.537 45.291C152.46 45.3086 152.378 45.3204 152.287 45.3204C151.965 45.3204 151.801 45.1855 151.801 44.9128V41.0839C151.801 40.9109 151.833 40.7731 151.898 40.6705C151.962 40.5679 152.068 40.4682 152.22 40.3714C152.416 40.2424 152.68 40.134 153.017 40.0372C153.352 39.9434 153.73 39.8965 154.152 39.8965C154.753 39.8965 155.055 40.046 155.055 40.348C155.055 40.4242 155.043 40.4916 155.02 40.5561C154.996 40.6206 154.967 40.6734 154.929 40.7203C154.853 40.7057 154.756 40.691 154.636 40.6764C154.516 40.6617 154.395 40.6529 154.275 40.6529C153.929 40.6529 153.624 40.6881 153.361 40.7614C153.097 40.8317 152.88 40.9168 152.707 41.0164V45.2412Z" fill="#113525"/>
<path d="M162.196 40.9021C161.985 40.7291 161.703 40.6412 161.349 40.6412C160.859 40.6412 160.422 40.8141 160.038 41.1601C160.082 41.3096 160.106 41.4738 160.106 41.6468V45.2383C160.067 45.2529 160.009 45.2705 159.93 45.2881C159.851 45.3057 159.768 45.3174 159.686 45.3174C159.364 45.3174 159.2 45.1826 159.2 44.9099V41.7142C159.2 41.3448 159.094 41.0751 158.883 40.9021C158.672 40.7291 158.385 40.6412 158.024 40.6412C157.784 40.6412 157.555 40.6793 157.341 40.7555C157.127 40.8317 156.942 40.9168 156.793 41.0164V45.2412C156.755 45.2559 156.699 45.2734 156.623 45.291C156.546 45.3086 156.464 45.3204 156.373 45.3204C156.051 45.3204 155.887 45.1855 155.887 44.9128V41.0604C155.887 40.9109 155.919 40.7848 155.983 40.6822C156.048 40.5796 156.159 40.477 156.318 40.3714C156.52 40.2424 156.778 40.134 157.092 40.0372C157.405 39.9434 157.719 39.8965 158.036 39.8965C158.405 39.8965 158.734 39.9522 159.018 40.0607C159.305 40.1691 159.522 40.3187 159.672 40.5063C159.868 40.3333 160.111 40.1897 160.405 40.0724C160.698 39.9551 161.032 39.8965 161.41 39.8965C162.02 39.8965 162.507 40.0401 162.867 40.3304C163.228 40.6206 163.41 41.0663 163.41 41.6702V45.2412C163.372 45.2559 163.313 45.2734 163.234 45.291C163.155 45.3086 163.073 45.3204 162.991 45.3204C162.665 45.3204 162.504 45.1855 162.504 44.9128V41.7171C162.51 41.3477 162.404 41.0751 162.196 40.9021Z" fill="#113525"/>
<path d="M73.6524 31.2335C72.3946 31.2335 71.2747 31.0576 70.2984 30.7087C69.3191 30.3598 68.3839 29.7822 67.4926 28.9789C67.2991 28.8382 67.1554 28.6681 67.0616 28.4688C66.9649 28.2694 66.918 28.0612 66.918 27.8531C66.918 27.5218 67.0411 27.2227 67.2844 26.9618C67.5278 26.7009 67.8356 26.5689 68.2021 26.5689C68.4806 26.5689 68.7445 26.6657 68.9878 26.8563C69.6504 27.469 70.3453 27.9322 71.0724 28.2459C71.7965 28.5596 72.6497 28.718 73.6289 28.718C74.3267 28.718 74.9688 28.6036 75.5551 28.3779C76.1415 28.1521 76.6076 27.8443 76.9565 27.4602C77.3054 27.0761 77.4813 26.6305 77.4813 26.1233C77.4813 25.493 77.3025 24.974 76.9448 24.5636C76.5871 24.1531 76.0711 23.813 75.3997 23.5404C74.7283 23.2706 73.9192 23.039 72.9751 22.8455C72.1014 22.6872 71.3186 22.4703 70.6297 22.1917C69.9377 21.9132 69.3485 21.5585 68.8618 21.1304C68.3722 20.7024 67.9969 20.1922 67.7359 19.5971C67.475 19.0019 67.3431 18.3129 67.3431 17.5272C67.3431 16.4629 67.6216 15.5453 68.1816 14.7742C68.7416 14.0061 69.5009 13.4109 70.4625 12.9917C71.4242 12.5724 72.506 12.3613 73.711 12.3613C74.8104 12.3613 75.8424 12.5314 76.8041 12.8715C77.7657 13.2116 78.5426 13.6719 79.1378 14.2465C79.5571 14.613 79.7681 15.0058 79.7681 15.4251C79.7681 15.7388 79.6421 16.032 79.387 16.3017C79.1319 16.5714 78.8417 16.7092 78.5104 16.7092C78.2641 16.7092 78.056 16.6389 77.8801 16.4981C77.6015 16.202 77.2263 15.9352 76.7542 15.6977C76.2822 15.4632 75.7809 15.2638 75.2473 15.1084C74.7137 14.9501 74.2035 14.8739 73.7139 14.8739C72.9282 14.8739 72.2539 14.9824 71.6968 15.2023C71.1369 15.4222 70.7088 15.7183 70.4127 16.0935C70.1166 16.4688 69.9671 16.9115 69.9671 17.4158C69.9671 18.011 70.1371 18.5006 70.4772 18.8846C70.8173 19.2687 71.2952 19.5795 71.905 19.814C72.5148 20.0486 73.2155 20.2655 74.0013 20.4561C74.9629 20.6642 75.8219 20.9017 76.5842 21.1627C77.3435 21.4236 77.9856 21.7608 78.5104 22.1712C79.0352 22.5817 79.4368 23.0918 79.7154 23.7045C79.9939 24.3173 80.1346 25.0766 80.1346 25.9855C80.1346 27.0351 79.8385 27.9498 79.2434 28.7385C78.6482 29.5242 77.8683 30.137 76.8979 30.5738C75.9187 31.0136 74.8398 31.2335 73.6524 31.2335Z" fill="#113525"/>
<path d="M101.355 14.959C100.997 15.3167 100.672 15.5131 100.382 15.5424C100.091 15.5747 99.7922 15.434 99.4815 15.1261L99.1853 14.83C98.8775 14.5222 98.7456 14.2202 98.7954 13.9212C98.8453 13.625 99.0417 13.3025 99.3876 12.9566C99.76 12.5842 100.088 12.3849 100.379 12.3556C100.669 12.3262 100.962 12.4582 101.258 12.7543L101.554 13.0504C101.877 13.3729 102.015 13.6778 101.971 13.9681C101.932 14.2583 101.727 14.5867 101.355 14.959ZM101.695 29.6328C101.695 30.0169 101.572 30.3364 101.329 30.5886C101.082 30.8407 100.769 30.9697 100.384 30.9697C100.018 30.9697 99.7072 30.8436 99.4551 30.5886C99.2029 30.3364 99.0739 30.0169 99.0739 29.6328V18.4156C99.0739 18.0316 99.2 17.712 99.4551 17.4599C99.7072 17.2077 100.018 17.0787 100.384 17.0787C100.769 17.0787 101.082 17.2048 101.329 17.4599C101.572 17.712 101.695 18.0316 101.695 18.4156V29.6328Z" fill="#113525"/>
<path d="M108.062 29.6323C108.062 30.0164 107.936 30.3359 107.681 30.5881C107.426 30.8402 107.118 30.9692 106.752 30.9692C106.385 30.9692 106.075 30.8431 105.823 30.5881C105.57 30.3359 105.441 30.0164 105.441 29.6323V12.9121C105.441 12.528 105.573 12.2085 105.834 11.9563C106.095 11.7042 106.412 11.5752 106.778 11.5752C107.162 11.5752 107.473 11.7013 107.708 11.9563C107.942 12.2085 108.062 12.528 108.062 12.9121V29.6323Z" fill="#113525"/>
<path d="M113.671 12.625C114.02 12.625 114.331 12.7511 114.6 13.0061C114.87 13.2583 115.008 13.5778 115.008 13.9619V29.6354C114.99 30.0195 114.847 30.3391 114.577 30.5912C114.307 30.8433 113.988 30.9723 113.621 30.9723C113.219 30.9723 112.891 30.8463 112.639 30.5912C112.384 30.3391 112.258 30.0195 112.258 29.6354V13.9619C112.258 13.5778 112.39 13.2583 112.651 13.0061C112.909 12.7511 113.252 12.625 113.671 12.625ZM113.565 20.8458H125.504L125.477 23.3613H113.539L113.565 20.8458ZM125.489 12.625C125.908 12.625 126.24 12.7511 126.486 13.0061C126.729 13.2583 126.852 13.5778 126.852 13.9619V29.6354C126.852 30.0195 126.726 30.3391 126.471 30.5912C126.216 30.8433 125.882 30.9723 125.463 30.9723C125.096 30.9723 124.783 30.8463 124.519 30.5912C124.258 30.3391 124.126 30.0195 124.126 29.6354V13.9619C124.126 13.5778 124.261 13.2583 124.53 13.0061C124.803 12.7511 125.123 12.625 125.489 12.625Z" fill="#FE6A21"/>
<path d="M132.937 14.959C132.579 15.3167 132.254 15.5131 131.964 15.5424C131.673 15.5747 131.374 15.434 131.063 15.1261L130.767 14.83C130.46 14.5222 130.328 14.2202 130.377 13.9212C130.427 13.625 130.624 13.3025 130.97 12.9566C131.342 12.5842 131.67 12.3849 131.961 12.3556C132.251 12.3262 132.544 12.4582 132.84 12.7543L133.136 13.0504C133.459 13.3729 133.597 13.6778 133.553 13.9681C133.514 14.2583 133.309 14.5867 132.937 14.959ZM133.274 29.6328C133.274 30.0169 133.151 30.3364 132.908 30.5886C132.661 30.8407 132.348 30.9697 131.964 30.9697C131.597 30.9697 131.286 30.8436 131.034 30.5886C130.782 30.3364 130.653 30.0169 130.653 29.6328V18.4156C130.653 18.0316 130.779 17.712 131.034 17.4599C131.286 17.2077 131.597 17.0787 131.964 17.0787C132.348 17.0787 132.661 17.2048 132.908 17.4599C133.151 17.712 133.274 18.0316 133.274 18.4156V29.6328Z" fill="#FE6A21"/>
<path d="M137.128 17.0547C137.389 17.0547 137.638 17.1251 137.876 17.2658C138.11 17.4065 138.283 17.6147 138.386 17.8961L142.499 27.4099L142.001 27.6444L146.167 17.9196C146.41 17.342 146.803 17.0635 147.345 17.0811C147.694 17.0811 147.987 17.1896 148.222 17.4094C148.456 17.6293 148.577 17.9108 148.577 18.2626C148.577 18.3681 148.559 18.4766 148.524 18.591C148.489 18.7053 148.445 18.8138 148.392 18.9193L143.411 30.1365C143.185 30.6613 142.81 30.9398 142.285 30.975C142.024 31.0102 141.763 30.9545 141.511 30.8049C141.259 30.6554 141.062 30.4326 140.922 30.1365L135.967 18.9193C135.932 18.849 135.897 18.7581 135.861 18.6437C135.826 18.5294 135.809 18.3945 135.809 18.2362C135.809 17.9753 135.926 17.7114 136.163 17.4505C136.407 17.1837 136.726 17.0547 137.128 17.0547Z" fill="#FE6A21"/>
<path d="M157.541 31.2331C156.09 31.2331 154.832 30.9311 153.768 30.3301C152.701 29.7262 151.877 28.8964 151.291 27.841C150.704 26.7855 150.414 25.5747 150.414 24.2114C150.414 22.6751 150.725 21.3587 151.343 20.2681C151.962 19.1775 152.771 18.339 153.768 17.7526C154.765 17.1662 155.82 16.876 156.94 16.876C157.796 16.876 158.609 17.046 159.377 17.3861C160.145 17.7262 160.831 18.1982 161.435 18.8022C162.036 19.4061 162.514 20.1127 162.863 20.9248C163.211 21.7369 163.396 22.6253 163.414 23.584C163.396 23.9329 163.255 24.2231 162.995 24.4489C162.734 24.6776 162.426 24.789 162.077 24.789H151.883L151.253 22.5608H161.106L160.608 23.0328V22.3761C160.573 21.7633 160.371 21.2268 160.004 20.7636C159.638 20.3003 159.183 19.9427 158.641 19.6876C158.098 19.4355 157.53 19.3065 156.937 19.3065C156.413 19.3065 155.911 19.3885 155.43 19.5557C154.95 19.7228 154.522 19.9866 154.146 20.356C153.771 20.7225 153.475 21.2092 153.255 21.8102C153.035 22.4142 152.927 23.1589 152.927 24.0501C152.927 25.0118 153.126 25.8503 153.531 26.5656C153.932 27.281 154.475 27.8381 155.155 28.2309C155.835 28.6238 156.586 28.8202 157.409 28.8202C158.054 28.8202 158.588 28.7557 159.007 28.6238C159.426 28.4919 159.775 28.3306 160.057 28.14C160.335 27.9465 160.582 27.7648 160.79 27.5889C161.051 27.4305 161.315 27.3543 161.576 27.3543C161.889 27.3543 162.153 27.4628 162.361 27.6827C162.569 27.9026 162.675 28.1576 162.675 28.4567C162.675 28.8407 162.481 29.1896 162.097 29.5063C161.625 29.9607 160.974 30.3624 160.145 30.7112C159.321 31.0572 158.45 31.2331 157.541 31.2331Z" fill="#FE6A21"/>
<path d="M89.2392 20.0212C91.6111 20.0212 93.5402 21.9504 93.5402 24.3222C93.5402 26.6941 91.6111 28.6232 89.2392 28.6232C86.8674 28.6232 84.9382 26.6941 84.9382 24.3222C84.9382 21.9504 86.8674 20.0212 89.2392 20.0212ZM89.2392 17.6729C85.5686 17.6729 82.5898 20.6487 82.5898 24.3222C82.5898 27.9958 85.5656 30.9716 89.2392 30.9716C92.9128 30.9716 95.8886 27.9958 95.8886 24.3222C95.8886 20.6487 92.9099 17.6729 89.2392 17.6729Z" fill="#113525"/>
<path d="M53.5755 17.7028C53.4582 16.2105 53.0302 14.8765 52.1008 13.6803C50.2068 11.2411 47.1871 9.7898 44.5543 8.30923C41.4993 6.59118 38.1688 5.07836 34.9057 3.80008C33.9499 3.42481 32.9795 3.09938 31.9944 2.81499C31.8888 2.78567 31.7715 2.82672 31.7158 2.92054C31.5751 3.16095 31.537 3.46292 31.5047 3.74731C31.0884 7.74045 31.0914 11.7981 31.2321 15.8059C31.3171 18.2364 31.5898 20.6698 33.1055 22.6722C34.1551 24.059 35.5419 25.1496 36.9638 26.1464C37.4886 26.5158 38.0867 26.8559 38.6496 27.1726C39.9396 27.8909 41.2501 28.5183 42.5313 29.26C44.0793 30.1542 45.6273 31.0455 47.1753 31.9397C48.8611 32.9131 49.899 34.7132 49.899 36.6629V37.129C49.899 39.1637 48.8113 41.046 47.0493 42.0604L31.2145 51.1959C30.3731 51.6797 29.4349 51.923 28.4967 51.926C27.5585 51.926 26.6203 51.6826 25.7789 51.1959L9.94412 42.0604C8.1821 41.043 7.09439 39.1637 7.09439 37.129V36.6629C7.09439 34.7162 8.13226 32.916 9.81806 31.9397C11.3661 31.0455 12.9141 30.1542 14.4621 29.26C15.7462 28.5183 17.0567 27.8938 18.3438 27.1726C18.9096 26.8559 19.5048 26.5158 20.0296 26.1464C21.4515 25.1467 22.8383 24.059 23.8879 22.6722C25.4036 20.6698 25.6763 18.2364 25.7613 15.8059C25.902 11.7952 25.905 7.74045 25.4886 3.74731C25.4593 3.46292 25.4212 3.16388 25.2776 2.92054C25.2219 2.82672 25.1046 2.78567 24.999 2.81499C24.0139 3.09938 23.0435 3.42774 22.0877 3.80008C18.8246 5.08129 15.4941 6.59118 12.4391 8.30923C9.8034 9.79273 6.78362 11.2411 4.89259 13.6803C3.96321 14.8765 3.53516 16.2134 3.41789 17.7028C3.33873 18.7231 3.41789 19.7844 3.42082 20.8076C3.42082 21.2972 3.42082 21.7868 3.42082 22.2764C3.42082 22.7807 3.99546 23.0768 4.40298 22.7778C5.92166 21.6666 7.54589 20.6757 9.16133 19.7316C9.17012 19.67 9.18478 19.6055 9.2053 19.541C9.9324 17.6588 10.7328 15.7912 11.627 13.9852C11.7531 13.7302 12.143 13.8797 12.0638 14.1553C11.627 15.6622 11.2576 17.1751 10.9351 18.7055C11.0875 18.6175 11.2371 18.5296 11.3866 18.4445C12.4215 17.8377 13.4623 17.1663 14.4503 16.4802C15.456 15.7883 16.441 15.0788 17.3704 14.3048C18.3028 13.5337 19.1794 12.6952 19.9768 11.7805C20.1908 11.5313 20.6042 11.8274 20.4078 12.1147C19.0504 14.0497 17.388 15.7414 15.6025 17.2923C17.4613 17.3862 19.3025 17.4419 21.1232 16.9698C21.4017 16.8995 21.5395 17.3011 21.2756 17.4155C18.9536 18.3976 16.3296 18.4827 13.8786 18.7407C13.8728 18.7407 13.8669 18.7407 13.861 18.7407C13.3656 19.1364 12.8672 19.5264 12.3658 19.9105C11.2664 20.7196 10.1024 21.5581 8.9561 22.4347C10.6536 22.4846 12.4479 22.555 13.864 22.7191C14.1513 22.7543 14.1337 23.1824 13.8405 23.1882C11.9612 23.2351 9.35776 23.5459 7.26444 23.7805C6.46698 24.443 5.05091 25.8796 4.1743 26.7973C3.69055 27.3045 3.42375 27.9759 3.42375 28.6766L3.42668 34.722L3.42961 39.24C3.42961 41.2746 4.51732 43.1539 6.27935 44.1713L25.7789 55.4178C26.6203 55.9015 27.5556 56.1448 28.4938 56.1478C29.4319 56.1448 30.3672 55.9044 31.2086 55.4178L50.7082 44.1713C52.4702 43.1539 53.5579 41.2746 53.5579 39.24L53.5608 34.722L53.5638 28.6766C53.5638 27.9759 53.297 27.3045 52.8132 26.7973C51.9366 25.8796 50.5176 24.4401 49.7231 23.7805C47.6298 23.5459 45.0263 23.2351 43.147 23.1882C42.8568 23.1824 42.8362 22.7543 43.1236 22.7191C44.5396 22.555 46.331 22.4846 48.0314 22.4347C46.8851 21.5581 45.7212 20.7196 44.6217 19.9105C44.1204 19.5264 43.622 19.1394 43.1265 18.7407C43.1206 18.7407 43.1148 18.7407 43.1089 18.7407C40.6579 18.4797 38.0339 18.3976 35.7119 17.4155C35.4451 17.3011 35.5858 16.8995 35.8644 16.9698C37.685 17.4419 39.5262 17.3862 41.385 17.2923C39.5995 15.7385 37.9342 14.0497 36.5797 12.1147C36.3833 11.8274 36.7967 11.5342 37.0107 11.7805C37.8111 12.6952 38.6877 13.5337 39.6171 14.3048C40.5494 15.0788 41.5345 15.7883 42.5372 16.4802C43.5223 17.1633 44.566 17.8377 45.6009 18.4445C45.7505 18.5325 45.9029 18.6175 46.0525 18.7055C45.73 17.178 45.3605 15.6622 44.9237 14.1553C44.8475 13.8826 45.2345 13.7331 45.3605 13.9852C46.2547 15.7912 47.0551 17.6617 47.7822 19.541C47.8057 19.6085 47.8203 19.67 47.8262 19.7316C49.4416 20.6757 51.0659 21.6666 52.5846 22.7778C52.9921 23.0768 53.5667 22.7807 53.5667 22.2764C53.5667 21.7868 53.5667 21.2972 53.5667 20.8076C53.5726 19.7844 53.6547 18.7231 53.5755 17.7028Z" fill="#2E4343"/>
</svg>
