<svg width="14" height="14" viewBox="0 0 14 14" fill="none" xmlns="http://www.w3.org/2000/svg">
<g clip-path="url(#clip0_50981_37107)">
<path d="M10.1016 3.90039C11.1816 4.36192 12.3963 4.39765 13.5016 4.00039" stroke="currentColor" stroke-linecap="round" stroke-linejoin="round"/>
<path d="M3.99854 13.4999C4.39543 12.3911 4.35972 11.1735 3.89854 10.0899C3.53756 9.22708 3.43989 8.27677 3.61783 7.35858C3.79578 6.44039 4.24138 5.59537 4.89854 4.92988C5.57221 4.26318 6.42817 3.81084 7.35854 3.62988" stroke="currentColor" stroke-linecap="round" stroke-linejoin="round"/>
<path d="M6.60156 10.37C7.53644 10.1875 8.3961 9.7316 9.07156 9.06C9.72987 8.39523 10.1763 7.55016 10.3543 6.63168C10.5323 5.7132 10.4339 4.76257 10.0716 3.9C9.61978 2.81616 9.59477 1.60152 10.0016 0.5" stroke="currentColor" stroke-linecap="round" stroke-linejoin="round"/>
<path d="M0.5 9.99981C1.60575 9.60067 2.82236 9.64004 3.9 10.1098" stroke="currentColor" stroke-linecap="round" stroke-linejoin="round"/>
<path d="M4.94141 4.92969L9.07141 9.05969" stroke="currentColor" stroke-linecap="round" stroke-linejoin="round"/>
</g>
<defs>
<clipPath id="clip0_50981_37107">
<rect width="14" height="14" fill="white"/>
</clipPath>
</defs>
</svg>
