<svg width="16" height="16" viewBox="0 0 16 16" fill="none" xmlns="http://www.w3.org/2000/svg">
<path fill-rule="evenodd" clip-rule="evenodd" d="M15.3332 8.0013C15.3332 12.0514 12.0499 15.3346 7.99984 15.3346C3.94975 15.3346 0.666504 12.0514 0.666504 8.0013C0.666504 3.95121 3.94975 0.667969 7.99984 0.667969C12.0499 0.667969 15.3332 3.95121 15.3332 8.0013ZM2.00439 8.0013C2.00439 11.3125 4.68864 13.9967 7.99984 13.9967C11.311 13.9967 13.9953 11.3125 13.9953 8.0013C13.9953 4.69011 11.311 2.00586 7.99984 2.00586C4.68864 2.00586 2.00439 4.69011 2.00439 8.0013Z" fill="currentColor"/>
<path d="M10.4116 5.86035C10.6242 5.64773 10.9695 5.64773 11.1821 5.86035C11.3943 6.07286 11.3942 6.41732 11.1821 6.62988L7.9624 9.84863C7.40314 10.4076 6.49688 10.408 5.93701 9.84961L4.80518 8.7207C4.5926 8.50813 4.59269 8.1638 4.80518 7.95117C5.01779 7.73855 5.36209 7.73855 5.57471 7.95117L6.70459 9.08008C6.8391 9.21459 7.05738 9.21459 7.19189 9.08008L10.4116 5.86035Z" fill="currentColor" stroke="currentColor" stroke-width="0.2"/>
</svg>
