<svg width="41" height="41" viewBox="0 0 41 41" fill="none" xmlns="http://www.w3.org/2000/svg">
<g clip-path="url(#clip0_53036_58590)">
<path d="M0.854004 11.1055V5.98047C0.854004 4.62123 1.39396 3.31767 2.35508 2.35655C3.31621 1.39542 4.61977 0.855469 5.979 0.855469H11.104" stroke="#00303E" stroke-width="1.70833" stroke-linecap="round" stroke-linejoin="round"/>
<path d="M40.146 11.1055V5.98047C40.146 4.62123 39.606 3.31767 38.6449 2.35655C37.6838 1.39542 36.3802 0.855469 35.021 0.855469H29.896" stroke="#00303E" stroke-width="1.70833" stroke-linecap="round" stroke-linejoin="round"/>
<path d="M0.854004 29.8945V35.0195C0.854004 36.3788 1.39396 37.6823 2.35508 38.6435C3.31621 39.6046 4.61977 40.1445 5.979 40.1445H11.104" stroke="#00303E" stroke-width="1.70833" stroke-linecap="round" stroke-linejoin="round"/>
<path d="M40.146 29.8945V35.0195C40.146 36.3788 39.606 37.6823 38.6449 38.6435C37.6838 39.6046 36.3802 40.1445 35.021 40.1445H29.896" stroke="#00303E" stroke-width="1.70833" stroke-linecap="round" stroke-linejoin="round"/>
<path d="M6.76318 32.607C9.68031 30.9155 12.7833 29.5672 16.0104 28.589C17.4403 28.0594 17.5957 24.7811 16.5707 23.6519C15.0913 22.0256 13.8374 20.1174 13.8374 15.5117C13.7512 14.5941 13.8608 13.6687 14.1588 12.7967C14.4569 11.9246 14.9367 11.1257 15.5664 10.4528C16.1962 9.77997 16.9616 9.24843 17.812 8.89336C18.6625 8.53828 19.5786 8.36777 20.4999 8.39308C21.4211 8.36777 22.3373 8.53828 23.1877 8.89336C24.0382 9.24843 24.8036 9.77997 25.4334 10.4528C26.0631 11.1257 26.5429 11.9246 26.8409 12.7967C27.139 13.6687 27.2486 14.5941 27.1624 15.5117C27.1624 20.1242 25.9085 22.0256 24.4291 23.6519C23.4041 24.7811 23.5595 28.0594 24.9894 28.589C28.2164 29.5672 31.3195 30.9155 34.2366 32.607C25.1968 34.686 15.803 34.686 6.76318 32.607Z" fill="#BEBCC0"/>
<path d="M6.76318 32.607C9.68031 30.9155 12.7833 29.5672 16.0104 28.589C17.4403 28.0594 17.5957 24.7811 16.5707 23.6519C15.0913 22.0256 13.8374 20.1174 13.8374 15.5117C13.7512 14.5941 13.8608 13.6687 14.1588 12.7967C14.4569 11.9246 14.9367 11.1257 15.5664 10.4528C16.1962 9.77997 16.9616 9.24843 17.812 8.89336C18.6625 8.53828 19.5786 8.36777 20.4999 8.39308C21.4211 8.36777 22.3373 8.53828 23.1877 8.89336C24.0382 9.24843 24.8036 9.77997 25.4334 10.4528C26.0631 11.1257 26.5429 11.9246 26.8409 12.7967C27.139 13.6687 27.2486 14.5941 27.1624 15.5117C27.1624 20.1242 25.9085 22.0256 24.4291 23.6519C23.4041 24.7811 23.5595 28.0594 24.9894 28.589C28.2164 29.5672 31.3195 30.9155 34.2366 32.607C25.1968 34.686 15.803 34.686 6.76318 32.607Z" fill="black" fill-opacity="0.2"/>
<path d="M20.5785 8.39308H20.4999C19.5788 8.36779 18.6628 8.53827 17.8125 8.89324C16.9622 9.24821 16.1968 9.77959 15.5671 10.4523C14.9374 11.125 14.4576 11.9236 14.1594 12.7955C13.8612 13.6673 13.7515 14.5926 13.8374 15.51C13.8374 20.1225 15.0913 22.0239 16.5707 23.6519C17.5957 24.7777 17.4403 28.0577 16.0121 28.5873C12.7841 29.5645 9.68041 30.9128 6.76318 32.6053C11.2951 33.6423 15.9294 34.1655 20.5785 34.165V8.39308Z" fill="#BEBCC0"/>
<path d="M20.5785 8.39308H20.4999C19.5788 8.36779 18.6628 8.53827 17.8125 8.89324C16.9622 9.24821 16.1968 9.77959 15.5671 10.4523C14.9374 11.125 14.4576 11.9236 14.1594 12.7955C13.8612 13.6673 13.7515 14.5926 13.8374 15.51C13.8374 20.1225 15.0913 22.0239 16.5707 23.6519C17.5957 24.7777 17.4403 28.0577 16.0121 28.5873C12.7841 29.5645 9.68041 30.9128 6.76318 32.6053C11.2951 33.6423 15.9294 34.1655 20.5785 34.165V8.39308Z" fill="black" fill-opacity="0.2"/>
<path d="M6.76318 32.607C9.68031 30.9155 12.7833 29.5672 16.0104 28.589C17.4403 28.0594 17.5957 24.7811 16.5707 23.6519C15.0913 22.0256 13.8374 20.1174 13.8374 15.5117C13.7512 14.5941 13.8608 13.6687 14.1588 12.7967C14.4569 11.9246 14.9367 11.1257 15.5664 10.4528C16.1962 9.77997 16.9616 9.24843 17.812 8.89336C18.6625 8.53828 19.5786 8.36777 20.4999 8.39308C21.4211 8.36777 22.3373 8.53828 23.1877 8.89336C24.0382 9.24843 24.8036 9.77997 25.4334 10.4528C26.0631 11.1257 26.5429 11.9246 26.8409 12.7967C27.139 13.6687 27.2486 14.5941 27.1624 15.5117C27.1624 20.1242 25.9085 22.0256 24.4291 23.6519C23.4041 24.7811 23.5595 28.0594 24.9894 28.589C28.2164 29.5672 31.3195 30.9155 34.2366 32.607" stroke="#00303E" stroke-width="1.70833" stroke-linecap="round" stroke-linejoin="round"/>
</g>
<defs>
<clipPath id="clip0_53036_58590">
<rect width="41" height="41" fill="white"/>
</clipPath>
</defs>
</svg>
