<svg width="24" height="24" viewBox="0 0 24 24" fill="none" xmlns="http://www.w3.org/2000/svg">
<path fill-rule="evenodd" clip-rule="evenodd" d="M4.92123 6.7676C3.04613 5.10085 4.22507 2 6.73387 2H17.1737C19.6825 2 20.8615 5.10085 18.9864 6.7676L14.9874 10.3222C14.7933 10.4948 14.6822 10.7422 14.6822 11.002V20.2672C14.6822 21.8877 12.7229 22.6993 11.5771 21.5534L9.75817 19.7345C9.41706 19.3934 9.22542 18.9307 9.22542 18.4483V11.002C9.22542 10.7422 9.11434 10.4948 8.92018 10.3222L4.92123 6.7676ZM6.73387 3.81892C5.8976 3.81892 5.50462 4.85254 6.12965 5.40812L10.1286 8.96274C10.7111 9.4805 11.0443 10.2226 11.0443 11.002V18.4483L12.8633 20.2672V11.002C12.8633 10.2226 13.1965 9.4805 13.779 8.96274L17.778 5.40812C18.403 4.85254 18.01 3.81892 17.1737 3.81892H6.73387Z" fill="currentColor"/>
</svg>
