<svg width="22" height="22" viewBox="0 0 22 22" fill="none" xmlns="http://www.w3.org/2000/svg">
<path d="M9 9C9 9.55228 9.44772 10 10 10V16C9.44772 16 9 16.4477 9 17C9 17.5523 9.44772 18 10 18H12C12.5523 18 13 17.5523 13 17C13 16.4477 12.5523 16 12 16V8H10C9.44772 8 9 8.44772 9 9Z" fill="#0F0F0F"/>
<path d="M11 7C11.8284 7 12.5 6.32843 12.5 5.5C12.5 4.67157 11.8284 4 11 4C10.1716 4 9.5 4.67157 9.5 5.5C9.5 6.32843 10.1716 7 11 7Z" fill="#0F0F0F"/>
<path fill-rule="evenodd" clip-rule="evenodd" d="M22 3C22 1.34315 20.6569 0 19 0H3C1.34315 0 0 1.34315 0 3V19C0 20.6569 1.34315 22 3 22H19C20.6569 22 22 20.6569 22 19V3ZM20 3C20 2.44772 19.5523 2 19 2H3C2.44772 2 2 2.44772 2 3V19C2 19.5523 2.44772 20 3 20H19C19.5523 20 20 19.5523 20 19V3Z" fill="#0F0F0F"/>
</svg>
