<svg width="24" height="24" viewBox="0 0 24 24" fill="none" xmlns="http://www.w3.org/2000/svg">
<path d="M13.5 16.1685C13.5 16.9216 12.8284 17.5321 12 17.5321C11.1716 17.5321 10.5 16.9216 10.5 16.1685C10.5 15.4154 11.1716 14.8049 12 14.8049C12.8284 14.8049 13.5 15.4154 13.5 16.1685Z" fill="currentColor"/>
<path fill-rule="evenodd" clip-rule="evenodd" d="M5.94209 10.1823C5.93921 10.0667 5.9375 9.94303 5.9375 9.8125C5.9375 9.00671 6.00254 7.91256 6.27381 6.80279C6.54278 5.70247 7.03242 4.51183 7.94009 3.58353C8.8791 2.62318 10.2132 2 12 2C13.7868 2 15.1209 2.62318 16.0599 3.58353C16.9676 4.51183 17.4572 5.70247 17.7262 6.80279C17.9975 7.91256 18.0625 9.00671 18.0625 9.8125C18.0625 9.94303 18.0608 10.0667 18.0579 10.1823C19.688 10.2104 21 11.4204 21 12.9091V19.2727C21 20.779 19.6569 22 18 22H6C4.34315 22 3 20.779 3 19.2727V12.9091C3 11.4204 4.31196 10.2104 5.94209 10.1823ZM16.0573 10.1818C16.0605 10.0679 16.0625 9.94425 16.0625 9.8125C16.0625 9.0842 16.0025 8.13289 15.7738 7.19721C15.5428 6.25208 15.1574 5.39726 14.5651 4.79147C14.0041 4.21773 13.2132 3.81818 12 3.81818C10.7868 3.81818 9.9959 4.21773 9.43491 4.79147C8.84258 5.39726 8.45722 6.25208 8.22619 7.19721C7.99747 8.13289 7.9375 9.0842 7.9375 9.8125C7.9375 9.94425 7.93946 10.0679 7.94265 10.1818H16.0573ZM19 12.9091C19 12.407 18.5523 12 18 12H6C5.44772 12 5 12.407 5 12.9091V19.2727C5 19.7748 5.44772 20.1818 6 20.1818H18C18.5523 20.1818 19 19.7748 19 19.2727V12.9091Z" fill="currentColor"/>
</svg>
