<svg width="41" height="41" viewBox="0 0 41 41" fill="none" xmlns="http://www.w3.org/2000/svg">
<g clip-path="url(#clip0_53036_58603)">
<path d="M0.86084 20.5521C0.86084 25.7625 2.93066 30.7595 6.61497 34.4438C10.2993 38.1281 15.2963 40.1979 20.5067 40.1979C25.7171 40.1979 30.7141 38.1281 34.3984 34.4438C38.0827 30.7595 40.1525 25.7625 40.1525 20.5521C40.1525 17.9722 39.6444 15.4175 38.6571 13.0339C37.6698 10.6504 36.2227 8.48467 34.3984 6.66038C32.5741 4.8361 30.4084 3.389 28.0248 2.4017C25.6413 1.4144 23.0866 0.90625 20.5067 0.90625C17.9267 0.90625 15.3721 1.4144 12.9885 2.4017C10.605 3.389 8.43926 4.8361 6.61497 6.66038C4.79069 8.48467 3.34359 10.6504 2.35629 13.0339C1.36899 15.4175 0.86084 17.9722 0.86084 20.5521Z" fill="#A2D141"/>
<path d="M6.67735 34.5089C2.97615 30.841 0.883612 25.8531 0.860064 20.6423C0.836517 15.4316 2.88389 10.4249 6.55178 6.72373C10.2197 3.02254 15.2076 0.929998 20.4184 0.906451C25.6291 0.882903 30.6358 2.93028 34.337 6.59817L6.67735 34.5089Z" fill="#EAEFE0"/>
<path d="M0.86084 20.5521C0.86084 25.7625 2.93066 30.7595 6.61497 34.4438C10.2993 38.1281 15.2963 40.1979 20.5067 40.1979C25.7171 40.1979 30.7141 38.1281 34.3984 34.4438C38.0827 30.7595 40.1525 25.7625 40.1525 20.5521C40.1525 17.9722 39.6444 15.4175 38.6571 13.0339C37.6698 10.6504 36.2227 8.48467 34.3984 6.66038C32.5741 4.8361 30.4084 3.389 28.0248 2.4017C25.6413 1.4144 23.0866 0.90625 20.5067 0.90625C17.9267 0.90625 15.3721 1.4144 12.9885 2.4017C10.605 3.389 8.43926 4.8361 6.61497 6.66038C4.79069 8.48467 3.34359 10.6504 2.35629 13.0339C1.36899 15.4175 0.86084 17.9722 0.86084 20.5521Z" stroke="#00303E" stroke-width="1.70833" stroke-linecap="round" stroke-linejoin="round"/>
<path d="M28.2349 28.2031C28.2349 28.6547 28.056 29.088 27.7375 29.4081C27.419 29.7282 26.9867 29.9092 26.5351 29.9115L14.5767 29.9661C14.1236 29.9661 13.6891 29.7861 13.3688 29.4658C13.0484 29.1454 12.8684 28.7109 12.8684 28.2578L12.8291 19.7161C12.8291 19.263 13.0091 18.8285 13.3295 18.5082C13.6498 18.1878 14.0844 18.0078 14.5374 18.0078L26.4958 17.9531C26.9488 17.9531 27.3834 18.1331 27.7037 18.4535C28.0241 18.7739 28.2041 19.2084 28.2041 19.6615L28.2349 28.2031Z" fill="#A2D141"/>
<path d="M20.5 17.9883L14.5208 18.0156C14.0678 18.0156 13.6332 18.1956 13.3129 18.516C12.9925 18.8363 12.8125 19.2709 12.8125 19.7239L12.8518 28.2656C12.8518 28.7187 13.0318 29.1532 13.3522 29.4736C13.6725 29.794 14.107 29.9739 14.5601 29.9739L20.5 29.9466V17.9883Z" fill="#EAEFE0"/>
<path d="M28.2349 28.2031C28.2349 28.6547 28.056 29.088 27.7375 29.4081C27.419 29.7282 26.9867 29.9092 26.5351 29.9115L14.5767 29.9661C14.1236 29.9661 13.6891 29.7861 13.3688 29.4658C13.0484 29.1454 12.8684 28.7109 12.8684 28.2578L12.8291 19.7161C12.8291 19.263 13.0091 18.8285 13.3295 18.5082C13.6498 18.1878 14.0844 18.0078 14.5374 18.0078L26.4958 17.9531C26.9488 17.9531 27.3834 18.1331 27.7037 18.4535C28.0241 18.7739 28.2041 19.2084 28.2041 19.6615L28.2349 28.2031Z" stroke="#00303E" stroke-width="1.70833" stroke-linecap="round" stroke-linejoin="round"/>
<path d="M20.5225 22.2617C20.185 22.2634 19.8556 22.3651 19.5758 22.5538C19.296 22.7425 19.0783 23.0099 18.9504 23.3222C18.8224 23.6345 18.7897 23.9777 18.8566 24.3086C18.9235 24.6394 19.0869 24.943 19.3261 25.181C19.5654 25.4191 19.8698 25.581 20.2009 25.6462C20.5321 25.7114 20.8751 25.6771 21.1868 25.5475C21.4985 25.418 21.7648 25.199 21.9521 24.9183C22.1394 24.6375 22.2394 24.3076 22.2394 23.9701C22.2394 23.745 22.195 23.5222 22.1086 23.3143C22.0222 23.1065 21.8956 22.9178 21.736 22.7591C21.5765 22.6003 21.3872 22.4747 21.1789 22.3893C20.9707 22.304 20.7476 22.2606 20.5225 22.2617Z" fill="#A2D141" stroke="#00303E" stroke-width="1.70833" stroke-linecap="round" stroke-linejoin="round"/>
<path d="M16.2295 18.0084L16.2159 15.4459C16.2109 14.3132 16.6561 13.2249 17.4535 12.4205C18.2509 11.616 19.3352 11.1613 20.4679 11.1563C21.6006 11.1513 22.6889 11.5965 23.4933 12.3939C24.2978 13.1913 24.7525 14.2756 24.7575 15.4083L24.7712 17.9708" stroke="#00303E" stroke-width="1.70833" stroke-linecap="round" stroke-linejoin="round"/>
</g>
<defs>
<clipPath id="clip0_53036_58603">
<rect width="41" height="41" fill="white"/>
</clipPath>
</defs>
</svg>
