<svg width="16" height="16" viewBox="0 0 16 16" fill="none" xmlns="http://www.w3.org/2000/svg">
<path fill-rule="evenodd" clip-rule="evenodd" d="M8.00229 9.33573C9.65915 9.33573 11.0023 7.99258 11.0023 6.33573C11.0023 4.67887 9.65915 3.33573 8.00229 3.33573C6.34544 3.33573 5.00229 4.67887 5.00229 6.33573C5.00229 7.99258 6.34544 9.33573 8.00229 9.33573ZM8.00229 8.00479C7.0805 8.00479 6.33323 7.25752 6.33323 6.33573C6.33323 5.41393 7.0805 4.66667 8.00229 4.66667C8.92409 4.66667 9.67135 5.41393 9.67135 6.33573C9.67135 7.25752 8.92409 8.00479 8.00229 8.00479Z" fill="#F5B200"/>
<path fill-rule="evenodd" clip-rule="evenodd" d="M14.1812 7.72125C15.0432 3.85885 12.0034 0.00244141 7.99989 0.00244141C3.99756 0.00244141 0.957493 3.86414 1.81867 7.72174C2.48338 10.8548 5.17136 13.8978 6.77563 15.4847C7.46269 16.1643 8.5371 16.1643 9.22417 15.4847C10.8285 13.8977 13.5167 10.8545 14.1812 7.72125ZM7.99989 1.33577C11.1415 1.33577 13.5578 4.39329 12.8799 7.43085C12.5543 8.89039 11.8238 10.2011 10.9666 11.4127C10.0708 12.679 9.05518 13.7764 8.2865 14.5367C8.11894 14.7025 7.88086 14.7025 7.71329 14.5367C6.94465 13.7764 5.92909 12.6791 5.03329 11.4129C4.17602 10.2012 3.4458 8.8908 3.11997 7.43123C2.44282 4.39796 4.85998 1.33577 7.99989 1.33577Z" fill="#F5B200"/>
</svg>
