<svg width="16" height="16" viewBox="0 0 16 16" fill="none" xmlns="http://www.w3.org/2000/svg">
<path d="M5.47147 6.83421C5.47147 6.51188 5.75447 6.25058 6.10356 6.25058H7.36775V5.08333C7.36775 4.761 7.65074 4.4997 7.99984 4.4997C8.34894 4.4997 8.63193 4.761 8.63193 5.08333V6.25058H9.89612C10.2452 6.25058 10.5282 6.51188 10.5282 6.83421C10.5282 7.15654 10.2452 7.41784 9.89612 7.41784H8.63193V8.58509C8.63193 8.90742 8.34893 9.16872 7.99984 9.16872C7.65074 9.16872 7.36775 8.90742 7.36775 8.58509V7.41784H6.10356C5.75447 7.41784 5.47147 7.15654 5.47147 6.83421Z" fill="white"/>
<path fill-rule="evenodd" clip-rule="evenodd" d="M7.99984 1C11.7957 1 14.6778 4.37606 13.8606 7.75737C13.2305 10.5003 10.6818 13.1645 9.16061 14.5538C8.50918 15.1487 7.49049 15.1487 6.83906 14.5538C5.318 13.1645 2.76942 10.5006 2.13918 7.75779C1.32267 4.38069 4.20507 1 7.99984 1ZM12.6268 7.50313C13.2695 4.84393 10.9785 2.16725 7.99984 2.16725C5.02276 2.16725 2.73096 4.84802 3.373 7.50347C3.68193 8.78123 4.37428 9.92843 5.18708 10.9892C6.03643 12.0977 6.99932 13.0583 7.72809 13.7239C7.88697 13.869 8.11271 13.869 8.27158 13.7239C9.0004 13.0583 9.96334 12.0976 10.8127 10.989C11.6254 9.92834 12.3181 8.78087 12.6268 7.50313Z" fill="white"/>
</svg>
