<svg width="24" height="24" viewBox="0 0 24 24" fill="none" xmlns="http://www.w3.org/2000/svg">
<path fill-rule="evenodd" clip-rule="evenodd" d="M22.5495 4.33799C22.2357 2.04623 19.6752 1.31174 18.0012 2.51095C16.6758 3.46043 14.9703 4.60138 13.2896 5.50075C11.5617 6.42536 10.0306 6.999 9 6.999H4C2.34315 6.999 1 8.34215 1 9.999V12.999C1 14.5825 2.22678 15.8794 3.78175 15.9912L3.37637 18.0181C3.07284 19.5357 3.97365 21.0352 5.45607 21.4799L6.66894 21.8437C8.32897 22.3418 10.0644 21.3336 10.4542 19.6448L11.1775 16.5105C11.828 16.7613 12.5403 17.0963 13.2896 17.4973C14.9703 18.3966 16.6758 19.5376 18.0012 20.4871C19.6752 21.6863 22.2357 20.9518 22.5495 18.66C22.7843 16.9448 23 14.5414 23 11.499C23 8.45661 22.7843 6.05317 22.5495 4.33799ZM19.1659 4.13681C19.4791 3.91248 19.8248 3.89154 20.0858 3.98901C20.3336 4.08151 20.5232 4.28265 20.568 4.6093C20.7911 6.2386 21 8.55134 21 11.499C21 14.4467 20.7911 16.7594 20.568 18.3887C20.5232 18.7154 20.3336 18.9165 20.0858 19.009C19.8248 19.1065 19.4791 19.0855 19.1659 18.8612C17.8074 17.888 16.0226 16.6914 14.2332 15.7339C12.491 14.8016 10.5724 13.999 9 13.999H4C3.44772 13.999 3 13.5513 3 12.999V9.999C3 9.44672 3.44772 8.999 4 8.999H9C10.5724 8.999 12.491 8.19642 14.2332 7.26415C16.0226 6.30662 17.8074 5.11001 19.1659 4.13681ZM9.24072 16.0086C9.15774 16.0022 9.07745 15.999 9 15.999H5.81979L5.33753 18.4103C5.23636 18.9162 5.53663 19.416 6.03077 19.5642L7.24363 19.9281C7.79698 20.0941 8.37547 19.758 8.50537 19.1951L9.24072 16.0086Z" fill="currentColor"/>
</svg>
