<svg width="60" height="60" viewBox="0 0 60 60" fill="none" xmlns="http://www.w3.org/2000/svg">
<path d="M1.25 29.9941C1.25 33.7696 1.99364 37.5082 3.43846 40.9963C4.88329 44.4844 7.001 47.6538 9.67068 50.3235C12.3404 52.9931 15.5097 55.1109 18.9979 56.5557C22.486 58.0005 26.2245 58.7441 30 58.7441C33.7755 58.7441 37.514 58.0005 41.0022 56.5557C44.4903 55.1109 47.6596 52.9931 50.3293 50.3235C52.999 47.6538 55.1167 44.4844 56.5615 40.9963C58.0064 37.5082 58.75 33.7696 58.75 29.9941C58.75 26.2186 58.0064 22.4801 56.5615 18.992C55.1167 15.5039 52.999 12.3345 50.3293 9.66482C47.6596 6.99514 44.4903 4.87743 41.0022 3.4326C37.514 1.98778 33.7755 1.24414 30 1.24414C26.2245 1.24414 22.486 1.98778 18.9979 3.4326C15.5097 4.87743 12.3404 6.99514 9.67068 9.66482C7.001 12.3345 4.88329 15.5039 3.43846 18.992C1.99364 22.4801 1.25 26.2186 1.25 29.9941Z" fill="#A2D141"/>
<path d="M9.90617 37.4973C9.90538 32.4759 11.2198 27.5418 13.7186 23.1862C16.2173 18.8306 19.8133 15.2055 24.1486 12.6716C28.4838 10.1377 33.4071 8.78345 38.4284 8.74367C43.4497 8.70388 48.3938 9.97994 52.7687 12.4448C50.1671 9.07041 46.8479 6.31646 43.0514 4.38218C39.2549 2.44791 35.0759 1.38168 30.8168 1.26063C26.5576 1.13958 22.3248 1.96673 18.4246 3.68226C14.5243 5.39778 11.0542 7.95877 8.2651 11.18C5.47605 14.4012 3.43784 18.202 2.29794 22.3076C1.15804 26.4131 0.94494 30.7207 1.67406 34.9188C2.40319 39.1168 4.0563 43.1002 6.51381 46.581C8.97132 50.0617 12.1718 52.9527 15.8837 55.0448C11.9994 50.0209 9.89654 43.8477 9.90617 37.4973Z" fill="#EAEFE0"/>
<path d="M4.74609 43.749H27.5011" stroke="#00303E" stroke-width="2.5" stroke-linecap="round" stroke-linejoin="round"/>
<path d="M6.28125 13.749H53.7413" stroke="#00303E" stroke-width="2.5" stroke-linecap="round" stroke-linejoin="round"/>
<path d="M31.2538 28.7515L1.28125 28.749" stroke="#00303E" stroke-width="2.5" stroke-linecap="round" stroke-linejoin="round"/>
<path d="M21.2533 57.3957C16.2511 55.7919 11.7839 52.8482 8.33687 48.8843C4.88983 44.9204 2.59468 40.0879 1.70068 34.9115C0.806671 29.7351 1.34798 24.4127 3.26581 19.5222C5.18364 14.6318 8.40469 10.3603 12.5792 7.17153C16.7537 3.98278 21.722 1.9987 26.9447 1.43474C32.1674 0.870772 37.4447 1.74849 42.2037 3.97257C46.9627 6.19665 51.0214 9.68208 53.939 14.0504C56.8566 18.4187 58.5216 23.5028 58.7533 28.7507" stroke="#00303E" stroke-width="2.5" stroke-linecap="round" stroke-linejoin="round"/>
<path d="M28.177 1.3125C14.7245 15.89 13.5545 34.4025 24.282 52.5" stroke="#00303E" stroke-width="2.5" stroke-linecap="round" stroke-linejoin="round"/>
<path d="M31.8281 1.3125C37.7358 7.44849 41.533 15.3083 42.6681 23.75" stroke="#00303E" stroke-width="2.5" stroke-linecap="round" stroke-linejoin="round"/>
<path d="M45.8455 31.2494C45.6428 30.8699 45.3408 30.5526 44.9719 30.3313C44.6029 30.11 44.1807 29.9932 43.7505 29.9932C43.3202 29.9932 42.8981 30.11 42.5291 30.3313C42.1601 30.5526 41.8581 30.8699 41.6555 31.2494L29.0155 55.3369C28.8288 55.6917 28.7377 56.089 28.7513 56.4897C28.7649 56.8904 28.8827 57.2806 29.093 57.6219C29.306 57.965 29.6031 58.248 29.9562 58.444C30.3093 58.6401 30.7066 58.7426 31.1105 58.7419H56.3905C56.7943 58.7426 57.1916 58.6401 57.5447 58.444C57.8978 58.248 58.195 57.965 58.408 57.6219C58.6183 57.2806 58.736 56.8904 58.7496 56.4897C58.7632 56.089 58.6722 55.6917 58.4855 55.3369L45.8455 31.2494Z" fill="#A2D141"/>
<path d="M43.7505 29.9981C43.3206 29.9961 42.8983 30.1115 42.5291 30.3317C42.16 30.552 41.8579 30.8688 41.6555 31.2481L29.0155 55.3356C28.8288 55.6904 28.7377 56.0877 28.7513 56.4883C28.7649 56.889 28.8827 57.2792 29.093 57.6206C29.3061 57.9635 29.6033 58.2464 29.9564 58.4424C30.3094 58.6384 30.7067 58.741 31.1105 58.7406H43.7505V29.9981Z" fill="#EAEFE0"/>
<path d="M45.8455 31.2494C45.6428 30.8699 45.3408 30.5526 44.9719 30.3313C44.6029 30.11 44.1807 29.9932 43.7505 29.9932C43.3202 29.9932 42.8981 30.11 42.5291 30.3313C42.1601 30.5526 41.8581 30.8699 41.6555 31.2494L29.0155 55.3369C28.8288 55.6917 28.7377 56.089 28.7513 56.4897C28.7649 56.8904 28.8827 57.2806 29.093 57.6219C29.306 57.965 29.6031 58.248 29.9562 58.444C30.3093 58.6401 30.7066 58.7426 31.1105 58.7419H56.3905C56.7943 58.7426 57.1916 58.6401 57.5447 58.444C57.8978 58.248 58.195 57.965 58.408 57.6219C58.6183 57.2806 58.736 56.8904 58.7496 56.4897C58.7632 56.089 58.6722 55.6917 58.4855 55.3369L45.8455 31.2494Z" stroke="#00303E" stroke-width="2.5" stroke-linecap="round" stroke-linejoin="round"/>
<path d="M43.75 51.248C43.8736 51.248 43.9945 51.2847 44.0972 51.3534C44.2 51.4221 44.2801 51.5197 44.3274 51.6339C44.3747 51.7481 44.3871 51.8737 44.363 51.995C44.3389 52.1162 44.2794 52.2276 44.1919 52.315C44.1045 52.4024 43.9932 52.4619 43.8719 52.486C43.7507 52.5102 43.625 52.4978 43.5108 52.4505C43.3966 52.4032 43.299 52.3231 43.2303 52.2203C43.1617 52.1175 43.125 51.9967 43.125 51.873C43.125 51.7073 43.1908 51.5483 43.3081 51.4311C43.4253 51.3139 43.5842 51.248 43.75 51.248Z" stroke="#00303E" stroke-width="2.5" stroke-linecap="round" stroke-linejoin="round"/>
<path d="M43.75 46.248V38.748" stroke="#00303E" stroke-width="2.5" stroke-linecap="round" stroke-linejoin="round"/>
</svg>
