<svg width="16" height="16" viewBox="0 0 16 16" fill="none" xmlns="http://www.w3.org/2000/svg">
<g clip-path="url(#clip0_49703_66512)">
<path d="M11.75 0.5C12.4404 0.5 13 1.05964 13 1.75C13 1.99526 12.9277 2.22298 12.8057 2.41602L14.9043 8.18652C15.2613 8.40658 15.4999 8.7999 15.5 9.25C15.5 9.94036 14.9404 10.5 14.25 10.5C14.1739 10.5 14.0997 10.4915 14.0273 10.4785L10.4727 14.5078C10.3538 15.0745 9.85197 15.5 9.25 15.5C8.59846 15.5 8.06398 15.0016 8.00586 14.3652L2.00488 11.2441C1.79494 11.4038 1.53412 11.5 1.25 11.5C0.559644 11.5 0 10.9404 0 10.25C7.05465e-05 9.64428 0.430943 9.13908 1.00293 9.02441L1.38574 6.15234C1.14825 5.92481 1 5.60487 1 5.25C1 4.55964 1.55964 4 2.25 4C2.60139 4 2.91841 4.14548 3.14551 4.37891L10.5029 1.68164C10.5385 1.0231 11.0826 0.5 11.75 0.5ZM3.49609 5.31543C3.46372 5.94217 2.97177 6.44501 2.34961 6.49414L1.9834 9.23926C2.296 9.46644 2.49995 9.83401 2.5 10.25C2.5 10.2908 2.49699 10.3313 2.49316 10.3711L8.3291 13.4062C8.55761 13.157 8.88522 13 9.25 13C9.59787 13 9.91206 13.1427 10.1387 13.3721L13.1914 9.91406C13.0705 9.72162 13 9.49407 13 9.25C13.0001 8.71781 13.3331 8.26426 13.8018 8.08398L11.9463 2.98242C11.8822 2.99254 11.8169 3 11.75 3C11.3971 3 11.0789 2.85333 10.8516 2.61816L3.49609 5.31543Z" fill="#3E7F77"/>
</g>
<defs>
<clipPath id="clip0_49703_66512">
<rect width="16" height="16" fill="white"/>
</clipPath>
</defs>
</svg>
