<svg width="16" height="16" viewBox="0 0 16 16" fill="none" xmlns="http://www.w3.org/2000/svg">
<path d="M15.3333 7.99999C15.3333 12.0501 12.05 15.3333 7.99996 15.3333C3.94987 15.3333 0.666626 12.0501 0.666626 7.99999C0.666626 3.9499 3.94987 0.666656 7.99996 0.666656C12.05 0.666656 15.3333 3.9499 15.3333 7.99999ZM2.00451 7.99999C2.00451 11.3112 4.68877 13.9954 7.99996 13.9954C11.3112 13.9954 13.9954 11.3112 13.9954 7.99999C13.9954 4.6888 11.3112 2.00454 7.99996 2.00454C4.68877 2.00454 2.00451 4.6888 2.00451 7.99999Z" fill="currentColor"/>
<path d="M8.99996 12C8.99996 12.5523 8.55225 13 7.99996 13C7.44768 13 6.99996 12.5523 6.99996 12C6.99996 11.4477 7.44768 11 7.99996 11C8.55225 11 8.99996 11.4477 8.99996 12Z" fill="currentColor"/>
<path d="M7.33329 7.99999V9.33333C7.33329 9.33333 7.33329 9.99999 7.99996 9.99999C8.66662 9.99999 8.66662 9.33333 8.66662 9.33333V7.99999C8.66662 7.99999 8.9861 7.90857 9.10857 7.85888C9.10857 7.85888 9.33125 7.77938 9.48712 7.65973C9.64299 7.54009 9.78402 7.39802 9.9102 7.23351C10.0438 7.069 10.1477 6.87832 10.222 6.66147C10.2962 6.44461 10.3333 6.26919 10.3333 5.99999C10.3333 5.55133 10.2331 5.09115 10.0327 4.75466C9.83969 4.41069 9.56506 4.14523 9.20877 3.95829C8.85249 3.76387 8.43683 3.66666 7.96178 3.66666C7.66488 3.66666 7.40138 3.70405 7.17128 3.77882C6.94118 3.84612 6.73706 3.93959 6.55892 4.05924C6.3882 4.1714 6.24346 4.29852 6.1247 4.4406C6.01336 4.57519 5.92429 4.70605 5.85749 4.83317C5.79069 4.96029 5.74615 5.07246 5.72388 5.16967C5.67935 5.31174 5.66079 5.42765 5.66821 5.51738C5.68306 5.60711 5.72759 5.68189 5.80182 5.74171C5.87605 5.80153 5.9911 5.86509 6.14697 5.93239C6.31027 5.98474 6.43645 6.00343 6.52552 5.98847C6.62201 5.97352 6.69995 5.92865 6.75933 5.85388C6.75933 5.85388 7.07585 5.40378 7.16492 5.31405C7.26141 5.21684 7.38017 5.14207 7.5212 5.08972C7.66223 5.0299 7.82182 4.99999 7.99996 4.99999C8.38593 4.99999 8.6717 5.09346 8.85726 5.2804C9.05025 5.45987 9.10857 5.61085 9.10857 5.95482C9.10857 6.18663 9.06775 6.37357 8.9861 6.51565C8.90445 6.65773 8.79682 6.77363 8.66322 6.86336C8.66322 6.86336 8.48174 6.93269 8.33329 6.99999C8.19226 7.05981 7.93338 7.15873 7.79977 7.23351C7.67359 7.30081 7.60285 7.37154 7.5212 7.47623C7.43955 7.58091 7.33329 7.82053 7.33329 7.99999Z" fill="currentColor"/>
</svg>
