<svg width="29" height="29" viewBox="0 0 29 29" fill="none" xmlns="http://www.w3.org/2000/svg">
<rect width="28.5022" height="28.3262" rx="4" fill="white"/>
<path fill-rule="evenodd" clip-rule="evenodd" d="M23.625 4.70649C24.0155 5.09707 24.0154 5.73023 23.6248 6.12071L17.6253 12.1187C17.2347 12.5092 16.6015 12.5091 16.2111 12.1185C15.8206 11.7279 15.8207 11.0948 16.2112 10.7043L22.2108 4.70631C22.6014 4.31583 23.2345 4.31592 23.625 4.70649Z" fill="#666666"/>
<path fill-rule="evenodd" clip-rule="evenodd" d="M22.7552 12.1102C22.7552 12.6625 22.3075 13.1102 21.7552 13.1102L16.1418 13.1102C15.8763 13.1102 15.6218 13.0047 15.4342 12.8169C15.2467 12.6291 15.1414 12.3744 15.1418 12.109L15.1482 6.64221C15.1489 6.08993 15.5971 5.64274 16.1494 5.6434C16.7017 5.64405 17.1489 6.0923 17.1482 6.64458L17.1429 11.1102L21.7552 11.1102C22.3074 11.1102 22.7552 11.5579 22.7552 12.1102Z" fill="#666666"/>
<path fill-rule="evenodd" clip-rule="evenodd" d="M4.88279 23.6197C4.49232 23.2291 4.4924 22.5959 4.88298 22.2055L10.8825 16.2075C11.2731 15.817 11.9063 15.8171 12.2968 16.2077C12.6872 16.5982 12.6871 17.2314 12.2966 17.6219L6.297 23.6199C5.90643 24.0103 5.27326 24.0103 4.88279 23.6197Z" fill="#666666"/>
<path fill-rule="evenodd" clip-rule="evenodd" d="M5.75265 16.216C5.75265 15.6637 6.20036 15.216 6.75265 15.216L12.366 15.216C12.6315 15.216 12.886 15.3215 13.0736 15.5093C13.2611 15.6971 13.3664 15.9517 13.3661 16.2172L13.3596 21.684C13.3589 22.2362 12.9107 22.6834 12.3584 22.6828C11.8061 22.6821 11.3589 22.2339 11.3596 21.6816L11.3649 17.216L6.75265 17.216C6.20036 17.216 5.75265 16.7683 5.75265 16.216Z" fill="#666666"/>
</svg>
