<svg width="24" height="24" viewBox="0 0 24 24" fill="none" xmlns="http://www.w3.org/2000/svg">
<path fill-rule="evenodd" clip-rule="evenodd" d="M2.7 10.817L3.73385 11.8508C3.81525 10.3464 4.30501 8.88918 5.15442 7.63798C6.08773 6.2632 7.41226 5.20026 8.95653 4.58678C10.5008 3.9733 12.1937 3.83754 13.816 4.19708C15.4382 4.55662 16.9152 5.39489 18.0557 6.60337C18.4332 7.00336 18.415 7.63362 18.015 8.0111C17.615 8.38858 16.9847 8.37034 16.6072 7.97035C15.7405 7.0519 14.618 6.41482 13.385 6.14157C12.1521 5.86832 10.8655 5.9715 9.69185 6.43774C8.51821 6.90398 7.51156 7.71182 6.80224 8.75666C6.21007 9.62894 5.8479 10.6329 5.7443 11.6755L6.6028 10.817C6.99169 10.4281 7.62222 10.4281 8.01112 10.817C8.40002 11.2059 8.40002 11.8364 8.01112 12.2253L5.35556 14.8809C4.96666 15.2698 4.33613 15.2698 3.94723 14.8809L1.29167 12.2253C0.902776 11.8364 0.902776 11.2059 1.29167 10.817C1.68057 10.4281 2.3111 10.4281 2.7 10.817ZM19.2571 9.86086C19.2742 9.86086 19.2913 9.8613 19.3083 9.86216ZM19.3083 9.86216C19.4004 9.86682 19.4891 9.884 19.573 9.91201ZM19.573 9.91201C19.7149 9.95933 19.8484 10.0395 19.9614 10.1525L22.6169 12.8081C23.0058 13.197 23.0058 13.8275 22.6169 14.2164C22.228 14.6053 21.5975 14.6053 21.2086 14.2164L20.1906 13.1984C20.0301 14.5004 19.5625 15.751 18.8202 16.8444C17.8869 18.2192 16.5624 19.2821 15.0181 19.8956C13.4738 20.5091 11.781 20.6448 10.1587 20.2853C8.53638 19.9258 7.05938 19.0875 5.9189 17.879C5.54142 17.479 5.55967 16.8488 5.95966 16.4713C6.35964 16.0938 6.98991 16.112 7.36739 16.512C8.23415 17.4305 9.35667 18.0676 10.5896 18.3408C11.8226 18.6141 13.1091 18.5109 14.2828 18.0446C15.4564 17.5784 16.4631 16.7706 17.1724 15.7257C17.6562 15.013 17.9865 14.2124 18.1477 13.3745L17.3058 14.2164C16.9169 14.6053 16.2864 14.6053 15.8975 14.2164C15.5086 13.8275 15.5086 13.197 15.8975 12.8081L18.5424 10.1632C18.5842 10.1201 18.63 10.0807 18.6791 10.0457C18.7121 10.0221 18.7466 10.0005 18.7824 9.98105C18.9227 9.90483 19.0834 9.86135 19.2542 9.86087" fill="#868686"/>
</svg>
