<svg width="16" height="16" viewBox="0 0 16 16" fill="none" xmlns="http://www.w3.org/2000/svg">
<path fill-rule="evenodd" clip-rule="evenodd" d="M8.00229 9.33524C9.65915 9.33524 11.0023 7.99209 11.0023 6.33524C11.0023 4.67838 9.65915 3.33524 8.00229 3.33524C6.34544 3.33524 5.00229 4.67838 5.00229 6.33524C5.00229 7.99209 6.34544 9.33524 8.00229 9.33524ZM8.00229 8.0043C7.0805 8.0043 6.33323 7.25703 6.33323 6.33524C6.33323 5.41344 7.0805 4.66618 8.00229 4.66618C8.92409 4.66618 9.67135 5.41344 9.67135 6.33524C9.67135 7.25703 8.92409 8.0043 8.00229 8.0043Z" fill="currentColor"/>
<path fill-rule="evenodd" clip-rule="evenodd" d="M14.1812 7.72076C15.0432 3.85836 12.0034 0.00195312 7.99989 0.00195312C3.99756 0.00195312 0.957493 3.86366 1.81867 7.72125C2.48338 10.8543 5.17136 13.8973 6.77563 15.4842C7.46269 16.1638 8.5371 16.1638 9.22417 15.4842C10.8285 13.8972 13.5167 10.854 14.1812 7.72076ZM7.99989 1.33529C11.1415 1.33529 13.5578 4.3928 12.8799 7.43036C12.5543 8.8899 11.8238 10.2006 10.9666 11.4123C10.0708 12.6785 9.05518 13.7759 8.2865 14.5362C8.11894 14.702 7.88086 14.702 7.71329 14.5362C6.94465 13.7759 5.92909 12.6786 5.03329 11.4124C4.17602 10.2007 3.4458 8.89031 3.11997 7.43074C2.44282 4.39747 4.85998 1.33529 7.99989 1.33529Z" fill="currentColor"/>
</svg>
