<svg width="16" height="16" viewBox="0 0 16 16" fill="none" xmlns="http://www.w3.org/2000/svg">
<path d="M7 1C10.3137 1 13 3.68629 13 7C13 8.2957 12.587 9.49384 11.8887 10.4746L14.707 13.293C15.0972 13.6835 15.0974 14.3166 14.707 14.707C14.3166 15.0974 13.6835 15.0972 13.293 14.707L10.4746 11.8887C9.49384 12.587 8.2957 13 7 13C3.68629 13 1 10.3137 1 7C1 3.68629 3.68629 1 7 1ZM7 3C4.79086 3 3 4.79086 3 7C3 9.20914 4.79086 11 7 11C9.20914 11 11 9.20914 11 7C11 4.79086 9.20914 3 7 3Z" fill="currentColor"/>
</svg>
