<svg width="16" height="16" viewBox="0 0 16 16" fill="none" xmlns="http://www.w3.org/2000/svg">
<path fill-rule="evenodd" clip-rule="evenodd" d="M10.3707 0.942809C10.8914 0.42211 11.7356 0.42211 12.2563 0.942809L15.0847 3.77124C15.6054 4.29193 15.6054 5.13615 15.0847 5.65685L5.65662 15.0849C5.13592 15.6056 4.2917 15.6056 3.771 15.0849L0.942577 12.2565C0.421878 11.7358 0.421879 10.8916 0.942577 10.3709L10.3707 0.942809ZM10.8421 2.35702C11.1024 2.09667 11.5245 2.09667 11.7849 2.35702L13.6705 4.24264C13.9308 4.50299 13.9308 4.9251 13.6705 5.18545L13.1991 4.71405C12.9387 4.4537 12.5166 4.4537 12.2563 4.71405C11.9959 4.97439 11.9959 5.3965 12.2563 5.65685L12.7277 6.12826L11.7849 7.07107L10.3707 5.65685C10.1103 5.3965 9.68821 5.3965 9.42786 5.65685C9.16751 5.9172 9.16751 6.33931 9.42786 6.59966L10.8421 8.01388L9.89926 8.95669L9.42786 8.48528C9.16751 8.22493 8.7454 8.22493 8.48505 8.48528C8.2247 8.74563 8.2247 9.16774 8.48505 9.42809L8.95645 9.89949L8.01364 10.8423L6.59943 9.42809C6.33908 9.16774 5.91697 9.16774 5.65662 9.42809C5.39627 9.68844 5.39627 10.1106 5.65662 10.3709L7.07084 11.7851L6.12803 12.7279L5.65662 12.2565C5.39627 11.9962 4.97416 11.9962 4.71381 12.2565C4.45346 12.5169 4.45346 12.939 4.71381 13.1993L5.18522 13.6707C4.92487 13.9311 4.50276 13.9311 4.24241 13.6707L2.35679 11.7851C2.09644 11.5248 2.09644 11.1027 2.35679 10.8423L10.8421 2.35702Z" fill="currentColor"/>
</svg>
