<svg width="16" height="16" viewBox="0 0 16 16" fill="none" xmlns="http://www.w3.org/2000/svg">
<path fill-rule="evenodd" clip-rule="evenodd" d="M8 0C7.48981 0 7.08619 0.0838054 6.77112 0.239476C6.65633 0.296193 6.5471 0.363116 6.45908 0.418114L6.39357 0.459205C6.32762 0.500669 6.27213 0.535556 6.21387 0.569232C6.06309 0.65639 6.00597 0.665661 6.00035 0.666573C5.99989 0.666649 6.00013 0.666573 6.00035 0.666573C5.26397 0.666573 4.66667 1.26362 4.66667 2H4C2.89543 2 2 2.89543 2 4V13.3333C2 14.4379 2.89543 15.3333 4 15.3333H12C13.1046 15.3333 14 14.4379 14 13.3333V4C14 2.89543 13.1046 2 12 2H11.3333C11.3333 1.26362 10.7364 0.666667 10 0.666667C10.0002 0.666667 10.0005 0.666743 10 0.666667C9.99438 0.665755 9.93691 0.656389 9.78613 0.569232C9.72786 0.535553 9.67238 0.500669 9.60642 0.459203L9.54093 0.418114C9.4529 0.363116 9.34367 0.296193 9.22888 0.239476C8.91381 0.0838054 8.51019 0 8 0ZM11.155 3.33333C10.9244 3.73187 10.4935 4 10 4H6C5.50648 4 5.07558 3.73187 4.84504 3.33333H4C3.63181 3.33333 3.33333 3.63181 3.33333 4V13.3333C3.33333 13.7015 3.63181 14 4 14H12C12.3682 14 12.6667 13.7015 12.6667 13.3333V4C12.6667 3.63181 12.3682 3.33333 12 3.33333H11.155ZM7.36175 1.43486C7.44173 1.39534 7.62834 1.33333 8 1.33333C8.37167 1.33333 8.55827 1.39534 8.63825 1.43486C8.68851 1.45969 8.74908 1.49556 8.83443 1.54889L8.88407 1.58005C8.95331 1.62362 9.03686 1.67619 9.11887 1.72359C9.31414 1.83646 9.62889 2 10 2V2.66667H6V2C6.37111 2 6.68586 1.83646 6.88113 1.72359C6.96314 1.67619 7.04669 1.62362 7.11593 1.58005L7.16557 1.54889C7.25092 1.49556 7.31149 1.45969 7.36175 1.43486Z" fill="currentColor"/>
</svg>
