<svg width="16" height="16" viewBox="0 0 16 16" fill="none" xmlns="http://www.w3.org/2000/svg">
<path fill-rule="evenodd" clip-rule="evenodd" d="M7.99565 10.333C9.28431 10.333 10.329 9.28834 10.329 7.99967C10.329 6.71101 9.28431 5.66634 7.99565 5.66634C6.70698 5.66634 5.66231 6.71101 5.66231 7.99967C5.66231 9.28834 6.70698 10.333 7.99565 10.333ZM7.99565 8.99593C7.44543 8.99593 6.99939 8.54989 6.99939 7.99967C6.99939 7.44946 7.44543 7.00342 7.99565 7.00342C8.54586 7.00342 8.9919 7.44946 8.9919 7.99967C8.9919 8.54989 8.54586 8.99593 7.99565 8.99593Z" fill="currentColor"/>
<path fill-rule="evenodd" clip-rule="evenodd" d="M7.99938 3.33301C4.79191 3.33301 2.61052 5.07237 1.45892 6.31953C0.570984 7.28114 0.570985 8.71821 1.45892 9.67982C2.61052 10.927 4.79191 12.6663 7.99938 12.6663C11.2069 12.6663 13.3882 10.927 14.5398 9.67982C15.4278 8.71821 15.4278 7.28114 14.5398 6.31953C13.3882 5.07237 11.2069 3.33301 7.99938 3.33301ZM2.43851 7.22406C3.45827 6.11969 5.31066 4.66634 7.99938 4.66634C10.6881 4.66634 12.5405 6.11969 13.5603 7.22406C13.9765 7.67488 13.9765 8.32447 13.5603 8.77529C12.5405 9.87966 10.6881 11.333 7.99938 11.333C5.31066 11.333 3.45827 9.87966 2.43851 8.77529C2.02223 8.32447 2.02223 7.67488 2.43851 7.22406Z" fill="currentColor"/>
</svg>
