<svg width="16" height="16" viewBox="0 0 16 16" fill="none" xmlns="http://www.w3.org/2000/svg">
<path fill-rule="evenodd" clip-rule="evenodd" d="M4 0.666992C2.89543 0.666992 2 1.56242 2 2.66699V13.3337C2 14.4382 2.89543 15.3337 4 15.3337H12C13.1046 15.3337 14 14.4382 14 13.3337V5.88594C14 5.35551 13.7893 4.8468 13.4142 4.47173L10.1953 1.25278C9.82019 0.877706 9.31148 0.666992 8.78105 0.666992H4ZM3.33333 2.66699C3.33333 2.2988 3.63181 2.00033 4 2.00033H8V5.33366C8 6.07004 8.59695 6.66699 9.33333 6.66699H12.6667V13.3337C12.6667 13.7018 12.3682 14.0003 12 14.0003H4C3.63181 14.0003 3.33333 13.7018 3.33333 13.3337V2.66699ZM12.3905 5.33366L9.33333 2.27647V5.33366H12.3905Z" fill="currentColor"/>
</svg>
