<svg width="16" height="16" viewBox="0 0 16 16" fill="none" xmlns="http://www.w3.org/2000/svg">
<path d="M4.66536 9.33366C4.66536 8.96547 4.96384 8.66699 5.33203 8.66699C5.70022 8.66699 5.9987 8.96547 5.9987 9.33366C5.9987 9.70185 5.70022 10.0003 5.33203 10.0003C4.96384 10.0003 4.66536 9.70185 4.66536 9.33366Z" fill="currentColor"/>
<path d="M5.33203 11.3337C4.96384 11.3337 4.66536 11.6321 4.66536 12.0003C4.66536 12.3685 4.96384 12.667 5.33203 12.667C5.70022 12.667 5.9987 12.3685 5.9987 12.0003C5.9987 11.6321 5.70022 11.3337 5.33203 11.3337Z" fill="currentColor"/>
<path d="M7.33203 9.33366C7.33203 8.96547 7.63051 8.66699 7.9987 8.66699C8.36689 8.66699 8.66537 8.96547 8.66537 9.33366C8.66537 9.70185 8.36689 10.0003 7.9987 10.0003C7.63051 10.0003 7.33203 9.70185 7.33203 9.33366Z" fill="currentColor"/>
<path d="M7.9987 11.3337C7.63051 11.3337 7.33203 11.6321 7.33203 12.0003C7.33203 12.3685 7.63051 12.667 7.9987 12.667C8.36689 12.667 8.66537 12.3685 8.66537 12.0003C8.66537 11.6321 8.36689 11.3337 7.9987 11.3337Z" fill="currentColor"/>
<path d="M9.9987 9.33366C9.9987 8.96547 10.2972 8.66699 10.6654 8.66699C11.0336 8.66699 11.332 8.96547 11.332 9.33366C11.332 9.70185 11.0336 10.0003 10.6654 10.0003C10.2972 10.0003 9.9987 9.70185 9.9987 9.33366Z" fill="currentColor"/>
<path d="M10.6654 11.3337C10.2972 11.3337 9.9987 11.6321 9.9987 12.0003C9.9987 12.3685 10.2972 12.667 10.6654 12.667C11.0336 12.667 11.332 12.3685 11.332 12.0003C11.332 11.6321 11.0336 11.3337 10.6654 11.3337Z" fill="currentColor"/>
<path fill-rule="evenodd" clip-rule="evenodd" d="M3.9987 1.33366C3.9987 0.965469 4.29718 0.666992 4.66536 0.666992C5.03355 0.666992 5.33203 0.965469 5.33203 1.33366V2.00033H10.6654V1.33366C10.6654 0.965469 10.9638 0.666992 11.332 0.666992C11.7002 0.666992 11.9987 0.965469 11.9987 1.33366V2.00033H12.6654C13.7699 2.00033 14.6654 2.89576 14.6654 4.00033V13.3337C14.6654 14.4382 13.7699 15.3337 12.6654 15.3337H3.33203C2.22746 15.3337 1.33203 14.4382 1.33203 13.3337V4.00032C1.33203 2.89576 2.22746 2.00033 3.33203 2.00033H3.9987V1.33366ZM10.6654 3.33366V4.00033C10.6654 4.36851 10.9638 4.66699 11.332 4.66699C11.7002 4.66699 11.9987 4.36851 11.9987 4.00033V3.33366H12.6654C13.0336 3.33366 13.332 3.63214 13.332 4.00033V6.00033H2.66536V4.00033C2.66536 3.63214 2.96384 3.33366 3.33203 3.33366H3.9987V4.00033C3.9987 4.36851 4.29718 4.66699 4.66536 4.66699C5.03355 4.66699 5.33203 4.36851 5.33203 4.00033V3.33366H10.6654ZM2.66536 7.33366V13.3337C2.66536 13.7018 2.96384 14.0003 3.33203 14.0003H12.6654C13.0336 14.0003 13.332 13.7018 13.332 13.3337V7.33366H2.66536Z" fill="currentColor"/>
</svg>
