<svg width="16" height="17" viewBox="0 0 16 17" fill="none" xmlns="http://www.w3.org/2000/svg">
<mask id="path-1-outside-1_27524_103257" maskUnits="userSpaceOnUse" x="6.46338" y="9.90039" width="3" height="3" fill="black">
<rect fill="white" x="6.46338" y="9.90039" width="3" height="3"/>
<path d="M8.00317 11.8924H7.90983C7.81462 11.8785 7.72485 11.8393 7.64983 11.7791C7.56493 11.7111 7.50416 11.6176 7.4765 11.5124C7.44987 11.4001 7.46405 11.2819 7.5165 11.1791C7.56619 11.0893 7.64012 11.0154 7.72983 10.9657C7.82879 10.915 7.94001 10.8931 8.05081 10.9025C8.16162 10.912 8.26754 10.9523 8.3565 11.0191C8.4146 11.0639 8.46163 11.1215 8.49399 11.1874C8.52635 11.2532 8.54318 11.3257 8.54317 11.3991C8.54301 11.5115 8.50284 11.6202 8.42983 11.7057C8.36485 11.7833 8.27938 11.841 8.18317 11.8724C8.12483 11.8897 8.06388 11.8964 8.00317 11.8924Z"/>
</mask>
<path d="M8.00317 11.8924H7.90983C7.81462 11.8785 7.72485 11.8393 7.64983 11.7791C7.56493 11.7111 7.50416 11.6176 7.4765 11.5124C7.44987 11.4001 7.46405 11.2819 7.5165 11.1791C7.56619 11.0893 7.64012 11.0154 7.72983 10.9657C7.82879 10.915 7.94001 10.8931 8.05081 10.9025C8.16162 10.912 8.26754 10.9523 8.3565 11.0191C8.4146 11.0639 8.46163 11.1215 8.49399 11.1874C8.52635 11.2532 8.54318 11.3257 8.54317 11.3991C8.54301 11.5115 8.50284 11.6202 8.42983 11.7057C8.36485 11.7833 8.27938 11.841 8.18317 11.8724C8.12483 11.8897 8.06388 11.8964 8.00317 11.8924Z" fill="#BC001F"/>
<path d="M8.00317 11.8924H7.90983C7.81462 11.8785 7.72485 11.8393 7.64983 11.7791C7.56493 11.7111 7.50416 11.6176 7.4765 11.5124C7.44987 11.4001 7.46405 11.2819 7.5165 11.1791C7.56619 11.0893 7.64012 11.0154 7.72983 10.9657C7.82879 10.915 7.94001 10.8931 8.05081 10.9025C8.16162 10.912 8.26754 10.9523 8.3565 11.0191C8.4146 11.0639 8.46163 11.1215 8.49399 11.1874C8.52635 11.2532 8.54318 11.3257 8.54317 11.3991C8.54301 11.5115 8.50284 11.6202 8.42983 11.7057C8.36485 11.7833 8.27938 11.841 8.18317 11.8724C8.12483 11.8897 8.06388 11.8964 8.00317 11.8924Z" stroke="#BC001F" stroke-width="0.8" mask="url(#path-1-outside-1_27524_103257)"/>
<mask id="path-2-outside-2_27524_103257" maskUnits="userSpaceOnUse" x="6.66992" y="5.5" width="3" height="5" fill="black">
<rect fill="white" x="6.66992" y="5.5" width="3" height="5"/>
<path d="M8.00326 9.83333C7.91485 9.83333 7.83006 9.79821 7.76755 9.7357C7.70504 9.67319 7.66992 9.58841 7.66992 9.5V6.83333C7.66992 6.74493 7.70504 6.66014 7.76755 6.59763C7.83006 6.53512 7.91485 6.5 8.00326 6.5C8.09166 6.5 8.17645 6.53512 8.23896 6.59763C8.30147 6.66014 8.33659 6.74493 8.33659 6.83333V9.5C8.33659 9.58841 8.30147 9.67319 8.23896 9.7357C8.17645 9.79821 8.09166 9.83333 8.00326 9.83333Z"/>
</mask>
<path d="M8.00326 9.83333C7.91485 9.83333 7.83006 9.79821 7.76755 9.7357C7.70504 9.67319 7.66992 9.58841 7.66992 9.5V6.83333C7.66992 6.74493 7.70504 6.66014 7.76755 6.59763C7.83006 6.53512 7.91485 6.5 8.00326 6.5C8.09166 6.5 8.17645 6.53512 8.23896 6.59763C8.30147 6.66014 8.33659 6.74493 8.33659 6.83333V9.5C8.33659 9.58841 8.30147 9.67319 8.23896 9.7357C8.17645 9.79821 8.09166 9.83333 8.00326 9.83333Z" fill="#BC001F"/>
<path d="M8.00326 9.83333C7.91485 9.83333 7.83006 9.79821 7.76755 9.7357C7.70504 9.67319 7.66992 9.58841 7.66992 9.5V6.83333C7.66992 6.74493 7.70504 6.66014 7.76755 6.59763C7.83006 6.53512 7.91485 6.5 8.00326 6.5C8.09166 6.5 8.17645 6.53512 8.23896 6.59763C8.30147 6.66014 8.33659 6.74493 8.33659 6.83333V9.5C8.33659 9.58841 8.30147 9.67319 8.23896 9.7357C8.17645 9.79821 8.09166 9.83333 8.00326 9.83333Z" stroke="#BC001F" stroke-width="0.8" mask="url(#path-2-outside-2_27524_103257)"/>
<mask id="path-3-outside-3_27524_103257" maskUnits="userSpaceOnUse" x="0.421387" y="2.17578" width="15" height="13" fill="black">
<rect fill="white" x="0.421387" y="2.17578" width="15" height="13"/>
<path d="M13.4102 13.8333H2.5969C2.40887 13.833 2.22288 13.7944 2.05023 13.72C1.88206 13.6437 1.73377 13.5296 1.6169 13.3866C1.50189 13.2416 1.43438 13.0647 1.42356 12.88C1.41041 12.6947 1.45715 12.51 1.55689 12.3533L6.8169 3.7733C6.94746 3.57919 7.12679 3.42284 7.3369 3.31997C7.5463 3.22494 7.7736 3.17578 8.00356 3.17578C8.23352 3.17578 8.46082 3.22494 8.67023 3.31997C8.87545 3.42476 9.05002 3.58094 9.1769 3.7733V3.7733L14.4369 12.3533C14.5366 12.51 14.5834 12.6947 14.5702 12.88C14.5582 13.0644 14.4908 13.241 14.3769 13.3866C14.259 13.5313 14.1081 13.6457 13.9369 13.72C13.7709 13.7932 13.5917 13.8317 13.4102 13.8333V13.8333ZM8.00356 3.8333C7.87211 3.8343 7.74245 3.86387 7.62356 3.91997C7.52806 3.96263 7.44699 4.03211 7.39023 4.11996L2.12356 12.7C2.09707 12.7416 2.08533 12.7909 2.09023 12.84C2.09206 12.8892 2.11091 12.9364 2.14356 12.9733C2.18818 13.0354 2.25112 13.0821 2.32356 13.1066C2.4094 13.1457 2.50257 13.1662 2.5969 13.1666H13.4102C13.5038 13.1657 13.5965 13.1476 13.6836 13.1133C13.7552 13.0838 13.8174 13.0354 13.8636 12.9733C13.8962 12.9364 13.9151 12.8892 13.9169 12.84C13.9218 12.7909 13.9101 12.7416 13.8836 12.7L8.6169 4.11996C8.56013 4.03211 8.47907 3.96263 8.38356 3.91997C8.26468 3.86387 8.13501 3.8343 8.00356 3.8333V3.8333Z"/>
</mask>
<path d="M13.4102 13.8333H2.5969C2.40887 13.833 2.22288 13.7944 2.05023 13.72C1.88206 13.6437 1.73377 13.5296 1.6169 13.3866C1.50189 13.2416 1.43438 13.0647 1.42356 12.88C1.41041 12.6947 1.45715 12.51 1.55689 12.3533L6.8169 3.7733C6.94746 3.57919 7.12679 3.42284 7.3369 3.31997C7.5463 3.22494 7.7736 3.17578 8.00356 3.17578C8.23352 3.17578 8.46082 3.22494 8.67023 3.31997C8.87545 3.42476 9.05002 3.58094 9.1769 3.7733V3.7733L14.4369 12.3533C14.5366 12.51 14.5834 12.6947 14.5702 12.88C14.5582 13.0644 14.4908 13.241 14.3769 13.3866C14.259 13.5313 14.1081 13.6457 13.9369 13.72C13.7709 13.7932 13.5917 13.8317 13.4102 13.8333V13.8333ZM8.00356 3.8333C7.87211 3.8343 7.74245 3.86387 7.62356 3.91997C7.52806 3.96263 7.44699 4.03211 7.39023 4.11996L2.12356 12.7C2.09707 12.7416 2.08533 12.7909 2.09023 12.84C2.09206 12.8892 2.11091 12.9364 2.14356 12.9733C2.18818 13.0354 2.25112 13.0821 2.32356 13.1066C2.4094 13.1457 2.50257 13.1662 2.5969 13.1666H13.4102C13.5038 13.1657 13.5965 13.1476 13.6836 13.1133C13.7552 13.0838 13.8174 13.0354 13.8636 12.9733C13.8962 12.9364 13.9151 12.8892 13.9169 12.84C13.9218 12.7909 13.9101 12.7416 13.8836 12.7L8.6169 4.11996C8.56013 4.03211 8.47907 3.96263 8.38356 3.91997C8.26468 3.86387 8.13501 3.8343 8.00356 3.8333V3.8333Z" fill="#BC001F"/>
<path d="M13.4102 13.8333H2.5969C2.40887 13.833 2.22288 13.7944 2.05023 13.72C1.88206 13.6437 1.73377 13.5296 1.6169 13.3866C1.50189 13.2416 1.43438 13.0647 1.42356 12.88C1.41041 12.6947 1.45715 12.51 1.55689 12.3533L6.8169 3.7733C6.94746 3.57919 7.12679 3.42284 7.3369 3.31997C7.5463 3.22494 7.7736 3.17578 8.00356 3.17578C8.23352 3.17578 8.46082 3.22494 8.67023 3.31997C8.87545 3.42476 9.05002 3.58094 9.1769 3.7733V3.7733L14.4369 12.3533C14.5366 12.51 14.5834 12.6947 14.5702 12.88C14.5582 13.0644 14.4908 13.241 14.3769 13.3866C14.259 13.5313 14.1081 13.6457 13.9369 13.72C13.7709 13.7932 13.5917 13.8317 13.4102 13.8333V13.8333ZM8.00356 3.8333C7.87211 3.8343 7.74245 3.86387 7.62356 3.91997C7.52806 3.96263 7.44699 4.03211 7.39023 4.11996L2.12356 12.7C2.09707 12.7416 2.08533 12.7909 2.09023 12.84C2.09206 12.8892 2.11091 12.9364 2.14356 12.9733C2.18818 13.0354 2.25112 13.0821 2.32356 13.1066C2.4094 13.1457 2.50257 13.1662 2.5969 13.1666H13.4102C13.5038 13.1657 13.5965 13.1476 13.6836 13.1133C13.7552 13.0838 13.8174 13.0354 13.8636 12.9733C13.8962 12.9364 13.9151 12.8892 13.9169 12.84C13.9218 12.7909 13.9101 12.7416 13.8836 12.7L8.6169 4.11996C8.56013 4.03211 8.47907 3.96263 8.38356 3.91997C8.26468 3.86387 8.13501 3.8343 8.00356 3.8333V3.8333Z" stroke="#BC001F" stroke-width="0.8" mask="url(#path-3-outside-3_27524_103257)"/>
</svg>
