<svg width="16" height="16" viewBox="0 0 16 16" fill="none" xmlns="http://www.w3.org/2000/svg">
<path d="M8.07774 1.33331C6.28972 1.33331 4.575 2.0436 3.31056 3.30793C2.04625 4.57234 1.33594 6.28728 1.33594 8.07511C1.33594 9.86294 2.04623 11.5778 3.31056 12.8423C4.57497 14.1066 6.28991 14.8169 8.07774 14.8169C9.86557 14.8169 11.5805 14.1066 12.8449 12.8423C14.1092 11.5779 14.8195 9.86294 14.8195 8.07511C14.8195 6.89162 14.508 5.72911 13.9163 4.70418C13.3246 3.67925 12.4735 2.82824 11.4486 2.2365C10.4237 1.64475 9.26117 1.33325 8.07768 1.33325L8.07774 1.33331ZM13.3292 5.66736H11.0346C10.699 4.48109 10.1164 3.37909 9.32506 2.43374C10.1964 2.62819 11.011 3.0213 11.7055 3.58206C12.4 4.14295 12.9557 4.85657 13.3292 5.66738V5.66736ZM8.05132 13.6274C7.16828 12.7478 6.50862 11.6696 6.12744 10.483H10.0281C9.64617 11.6699 8.98574 12.7481 8.10184 13.6274C8.08669 13.6383 8.06637 13.6383 8.05132 13.6274ZM5.8843 9.51985C5.70769 8.56479 5.70769 7.58554 5.8843 6.63048H10.2712C10.4478 7.58554 10.4478 8.56479 10.2712 9.51985H5.8843ZM2.299 8.07516C2.29825 7.58779 2.35974 7.10227 2.48195 6.63048H4.90663C4.74948 7.58716 4.74948 8.56316 4.90663 9.51985H2.48195C2.35974 9.04805 2.29825 8.56253 2.299 8.07516ZM8.07774 2.51327C8.08623 2.50994 8.09569 2.50994 8.10418 2.51327C8.98852 3.39565 9.64828 4.47735 10.0281 5.66736H6.12741C6.50933 4.48043 7.16976 3.4022 8.05366 2.5229C8.06021 2.51677 8.06881 2.51333 8.07774 2.51323L8.07774 2.51327ZM11.2489 6.63048H13.6736C13.9176 7.57814 13.9176 8.57219 13.6736 9.51985H11.2489C11.406 8.56316 11.406 7.58716 11.2489 6.63048ZM6.83063 2.43374C6.04013 3.37967 5.45763 4.48145 5.12109 5.66736H2.82647C3.19999 4.85655 3.75574 4.14293 4.45023 3.58203C5.14473 3.02125 5.95931 2.62818 6.83063 2.43374ZM2.82652 10.483H5.12115C5.45672 11.6692 6.03933 12.7712 6.83069 13.7166C5.95936 13.5221 5.14478 13.129 4.45029 12.5683C3.7558 12.0074 3.20005 11.2938 2.82652 10.4829V10.483ZM9.3276 13.7166C10.1171 12.7704 10.6988 11.6687 11.0347 10.483H13.3293C12.9558 11.2938 12.4 12.0074 11.7055 12.5683C11.011 13.1291 10.1964 13.5222 9.32512 13.7166L9.3276 13.7166Z" fill="black"/>
</svg>
