<svg width="43" height="43" viewBox="0 0 43 43" fill="none" xmlns="http://www.w3.org/2000/svg">
<g clip-path="url(#clip0_52362_144764)">
<path d="M1.53013 5.11571L5.37504 8.95884H8.95838V5.3755L5.11346 1.53238C6.44056 0.932659 7.91887 0.751475 9.35151 1.01296C10.7842 1.27444 12.1031 1.96617 13.1328 2.99604C14.1625 4.0259 14.854 5.34502 15.1152 6.77772C15.3764 8.21041 15.1949 9.68869 14.595 11.0157L31.9885 28.4074C33.3156 27.8077 34.7939 27.6265 36.2265 27.888C37.6592 28.1494 38.9781 28.8412 40.0078 29.871C41.0375 30.9009 41.729 32.22 41.9902 33.6527C42.2514 35.0854 42.0699 36.5637 41.47 37.8907L37.625 34.0422H34.0417V37.6255L37.8866 41.4722C36.5595 42.0719 35.0812 42.2531 33.6486 41.9916C32.2159 41.7302 30.8969 41.0384 29.8673 40.0086C28.8376 38.9787 28.1461 37.6596 27.8849 36.2269C27.6237 34.7942 27.8052 33.3159 28.4051 31.9889L11.0116 14.599C9.68453 15.1987 8.20622 15.3799 6.77358 15.1184C5.34093 14.8569 4.02194 14.1652 2.99227 13.1353C1.9626 12.1055 1.27111 10.7864 1.0099 9.35366C0.748695 7.92097 0.930158 6.44269 1.53013 5.11571Z" fill="#000066"/>
<path d="M8.95832 8.95884V5.3755L5.1134 1.53238C6.4405 0.932659 7.91881 0.751475 9.35145 1.01296C10.7841 1.27444 12.1031 1.96617 13.1328 2.99604C14.1624 4.0259 14.8539 5.34502 15.1151 6.77772C15.3763 8.21041 15.1949 9.68869 14.5949 11.0157L31.9884 28.4074C33.3155 27.8077 34.7938 27.6265 36.2265 27.888C37.6591 28.1494 38.9781 28.8412 40.0078 29.871C41.0374 30.9009 41.7289 32.22 41.9901 33.6527C42.2513 35.0854 42.0699 36.5637 41.4699 37.8907L37.625 34.0422H34.0417L8.95832 8.95884Z" fill="#000066"/>
<path d="M1.53013 5.11571L5.37504 8.95884H8.95838V5.3755L5.11346 1.53238C6.44056 0.932659 7.91887 0.751475 9.35151 1.01296C10.7842 1.27444 12.1031 1.96617 13.1328 2.99604C14.1625 4.0259 14.854 5.34502 15.1152 6.77772C15.3764 8.21041 15.1949 9.68869 14.595 11.0157L31.9885 28.4074C33.3156 27.8077 34.7939 27.6265 36.2265 27.888C37.6592 28.1494 38.9781 28.8412 40.0078 29.871C41.0375 30.9009 41.729 32.22 41.9902 33.6527C42.2514 35.0854 42.0699 36.5637 41.47 37.8907L37.625 34.0422H34.0417V37.6255L37.8866 41.4722C36.5595 42.0719 35.0812 42.2531 33.6486 41.9916C32.2159 41.7302 30.8969 41.0384 29.8673 40.0086C28.8376 38.9787 28.1461 37.6596 27.8849 36.2269C27.6237 34.7942 27.8052 33.3159 28.4051 31.9889L11.0116 14.599C9.68453 15.1987 8.20622 15.3799 6.77358 15.1184C5.34093 14.8569 4.02194 14.1652 2.99227 13.1353C1.9626 12.1055 1.27111 10.7864 1.0099 9.35366C0.748695 7.92097 0.930158 6.44269 1.53013 5.11571Z" stroke="#00303E" stroke-linecap="round" stroke-linejoin="round"/>
<path d="M41.47 5.11571L37.625 8.95884H34.0417V5.3755L37.8866 1.53238C36.5595 0.932659 35.0812 0.751475 33.6486 1.01296C32.2159 1.27444 30.8969 1.96617 29.8673 2.99604C28.8376 4.0259 28.1461 5.34502 27.8849 6.77772C27.6237 8.21041 27.8052 9.68869 28.4051 11.0157L11.0116 28.4074C9.68453 27.8077 8.20622 27.6265 6.77358 27.888C5.34093 28.1494 4.02194 28.8412 2.99227 29.871C1.9626 30.9009 1.27111 32.22 1.0099 33.6527C0.748695 35.0854 0.930158 36.5637 1.53013 37.8907L5.37504 34.0422H8.95838V37.6255L5.11346 41.474C6.44056 42.0737 7.91887 42.2549 9.35151 41.9934C10.7842 41.7319 12.1031 41.0402 13.1328 40.0103C14.1625 38.9805 14.854 37.6614 15.1152 36.2287C15.3764 34.796 15.1949 33.3177 14.595 31.9907L31.9885 14.599C33.3156 15.1987 34.7939 15.3799 36.2265 15.1184C37.6592 14.8569 38.9781 14.1652 40.0078 13.1353C41.0375 12.1055 41.729 10.7864 41.9902 9.35367C42.2514 7.92097 42.0699 6.44269 41.47 5.11571Z" fill="#BDBDCF"/>
<path d="M34.0417 8.95884V5.3755L37.8866 1.53238C36.5595 0.932659 35.0812 0.751475 33.6486 1.01296C32.2159 1.27444 30.8969 1.96617 29.8673 2.99604C28.8376 4.0259 28.1461 5.34502 27.8849 6.77772C27.6237 8.21041 27.8052 9.68869 28.4051 11.0157L11.0116 28.4074C9.68453 27.8077 8.20622 27.6265 6.77358 27.888C5.34093 28.1494 4.02194 28.8412 2.99227 29.871C1.9626 30.9009 1.27111 32.22 1.0099 33.6527C0.748695 35.0854 0.930158 36.5637 1.53013 37.8907L5.37504 34.0422H8.95838L34.0417 8.95884Z" fill="white"/>
<path d="M41.47 5.11571L37.625 8.95884H34.0417V5.3755L37.8866 1.53238C36.5595 0.932659 35.0812 0.751475 33.6486 1.01296C32.2159 1.27444 30.8969 1.96617 29.8673 2.99604C28.8376 4.0259 28.1461 5.34502 27.8849 6.77772C27.6237 8.21041 27.8052 9.68869 28.4051 11.0157L11.0116 28.4074C9.68453 27.8077 8.20622 27.6265 6.77358 27.888C5.34093 28.1494 4.02194 28.8412 2.99227 29.871C1.9626 30.9009 1.27111 32.22 1.0099 33.6527C0.748695 35.0854 0.930158 36.5637 1.53013 37.8907L5.37504 34.0422H8.95838V37.6255L5.11346 41.474C6.44056 42.0737 7.91887 42.2549 9.35151 41.9934C10.7842 41.7319 12.1031 41.0402 13.1328 40.0103C14.1625 38.9805 14.854 37.6614 15.1152 36.2287C15.3764 34.796 15.1949 33.3177 14.595 31.9907L31.9885 14.599C33.3156 15.1987 34.7939 15.3799 36.2265 15.1184C37.6592 14.8569 38.9781 14.1652 40.0078 13.1353C41.0375 12.1055 41.729 10.7864 41.9902 9.35367C42.2514 7.92097 42.0699 6.44269 41.47 5.11571Z" stroke="#00303E" stroke-linecap="round" stroke-linejoin="round"/>
</g>
<defs>
<clipPath id="clip0_52362_144764">
<rect width="43" height="43" fill="white"/>
</clipPath>
</defs>
</svg>
